<mxfile host="app.diagrams.net" modified="2020-12-30T04:50:34.826Z" agent="5.0 (Windows NT 10.0; Win64; x64) AppleWebKit/537.36 (KHTML, like Gecko) Chrome/84.0.4147.89 Safari/537.36" etag="ny4-mOJmB47w0itHcLqQ" version="14.1.3" type="github">
  <diagram id="loFfVk7E3o2_CKLYnwea" name="Page-1">
    <mxGraphModel dx="1561" dy="699" grid="1" gridSize="10" guides="1" tooltips="1" connect="1" arrows="1" fold="1" page="1" pageScale="1" pageWidth="827" pageHeight="1169" math="0" shadow="0">
      <root>
        <mxCell id="0" />
        <mxCell id="1" parent="0" />
        <mxCell id="JT29bU-KKxfSDwlyNfCX-87" value="" style="rounded=1;whiteSpace=wrap;html=1;shadow=0;fillColor=none;dashed=1;" vertex="1" parent="1">
          <mxGeometry x="-20" y="20" width="690" height="290" as="geometry" />
        </mxCell>
        <mxCell id="JT29bU-KKxfSDwlyNfCX-84" value="" style="edgeStyle=orthogonalEdgeStyle;rounded=0;orthogonalLoop=1;jettySize=auto;html=1;" edge="1" parent="1" source="JT29bU-KKxfSDwlyNfCX-34" target="JT29bU-KKxfSDwlyNfCX-83">
          <mxGeometry relative="1" as="geometry" />
        </mxCell>
        <mxCell id="JT29bU-KKxfSDwlyNfCX-34" value="" style="shape=image;verticalLabelPosition=bottom;labelBackgroundColor=#ffffff;verticalAlign=top;aspect=fixed;imageAspect=0;image=data:image/png,iVBORw0KGgoAAAANSUhEUgAAAM8AAACtCAAAAAAy1nTSAABZ7ElEQVR42t39Z6yuW5Lfh1XVCk98444nh5v6dvftNKmnhxM5HNHmmKRJkyZNW5AAG4IhW7QEEY6wAVvSF0OAAAWDchJsmZRliZRMUpSGk9jDmekwPdPd93bffPLZeb/xiStU+cOzz71nCMuWYZMf/H7bZ7/n3W89a62qf9Vaq36o4ZMXAQGLImYgigLEyIgMCEgCQhKRQABYkJhEEAQBBUGAUQBAAAQAAQAFX3wqwvCbfzwvfNkeEhm+nyACAJMQAzEJK0YQIAEQFB2HtyFEJEEmVowiKEoEiQUpogBGhMFkAGQAZASUf9SG0cs/MCgiIkBEZBBCEkBGYRVffDEAAA+AgkLMCMxCjIwCKCigJKJgECQBEoOAKIAgSChaExIpQsB/POODOuLVkxdBgGEOoQAiACMwIdMws5CJ6eo9xASRGFlFRCBgIYhEQfHwEIQiXQ0uACMCCohiCpoRmARQQABQBPn/p/YoQRQQQFGRRBSreLUMBEFACRMjCgGDIKgowypCjEqAEURFwgiAKCgkgoIQEYAYAAWQAYWQKSqMOBgqJATAKMRAgCwIwIDINMxM+f/KHiAGJQworCNSQIoEGEkJCyAMIwKCgihCjICMiCLGCwqQABOJCAkMbx8eOwqiIANQRBTCSJFQUJRXgMyomEQAQUgogiAgDLMABVVAlACIwsR4Zd6Vz/l/7w+GDwEAUTxMC0RGwWGWMAJJJAAhIUYARmIUFQBVQEEAVgIi6mpKCgAM60ciISsWQgB54RwQUJCVDAuTWECGqY5MyKIiCVIkRlEigAgRBdkEAK2i0wEE5f+lPSRqeKCAIkCMACAUEYa/MUw+QQGkiILEAKJAmBh0RBAhEQABIbxyEEBMgoyColhUFCUCJC9GGIgYGEiG6cZIjJGAFSMgsigWAkbtCXlYWggRVSRGYtFxeAwIAoqH6SEv+zdEFEFgFgYEEQZkFEJCJEEOADw8cokoIFEBETMiCDEwgmEARCKFMcIwnkAijIKAjMSkBAREkAgABRQ4EKWQGBlAgEQYRCAgAcchTEQADxgFNGpQgkifjDILIIgi1FoEQQRQ20/HZ4iVJACsIlxNNxBEABQmxcAIEAkpAg7PlAFIBJEBVNB85TiEBEEAhUAEdBAkYBjGFq9mgGJRDEDCiCggxIAAKgx/gQGJQYSQdUCKhEwsSlgJCDFGhcAgOgAhU1AoAoBRA8un4yMyRB0AEoUogkIIg58RBC+AgEDAUVBEWIIAAeMwxJGGwRNBQgHRKCQAqITMi1mMQINNigBFokBEAAEWYBRkjIPcYFAQQaFWjF4pTzI4GKFhxoNCEcWJJxUF2QALEqABQvXS+lEqAFEEAQIh4avVMrgoFQF5CCEkgqxFECPCMAg4aCNBERLEQfeIAYgiCjAKAaBQBARWIoIKIgKACFFEFFaMCKIjCjKIDiYiowCrq2UIoFgFFQl4cP8gBBiRFUYaApgIAuiX/QGQXPkeURGIEVBo8JOCJCDIxAigWEWUwRS6WlIohBCRAsIQeTQGHhGJF2zzEDyooASQEUTx4BoBCCNGNbhftpEpIIGIAKioWQiZGJCRICphYiCJigCECQRECRM5QhAhwIBC+JI9WgCjisPsF2ISxSAoFGkYJ6Fh5l/FoKtgBDi4kswJB82kgmmyZE43rs/ygy7La1wdP3v/ojfomBiEGFkDiAyaSYkAk2BUrCGiqEgMGBEBhwdIwEpkWFEEiCwEAVlHDYEQWExQkWSIwP+QPYKihAFIVBhUDwoDCTIpRmDRAT+VDCAIgEBQhMTBpO2kJ1RjuvWZa9m1WV+vauzX2z2XjEfp977zTswCS9AMwAQweF1iYkREigxEkXXQEEAzsCITGCNQ1J7AGHCewOuIJGgigyDrqLzGyEMUQBQSftmeIVgQCwAygRATD8sDKRCgCCsRFKQIohgAAVArk+UBaz2u+sZO7x68tW/6zaX9gC8PWuMF+0ks+tHN0aPf/KBTadDQgmJh0hyBBBUP8kkUm8gkQyhSETBhACLPrAJY6NUQ4ZACMUUFgKKYEUUAKCqUiCq+HE+VwBAIh7kZh6VPjADCSINPZYokStgwA4KJuclsQuDW5bQa3/vS4ex4dXbaGWU2xTLhg+dFWN35wvrbanu9uPn4m8u14pYEEJmFBp8qBMQCJBFNQBQe/DcpT6IEI4moAGqQRIAMClkFFVUAJGAUJVFRZBMAQV62B5CRlQziWlBAFAgyDYoMAeMQdjQzoIAinUspeZJQlJhNr9/J9JOTLUrhq2mKrx3PZHebLqZ5jBuiH1yu96cl1aE5uli1HE1g8orBBBHRAioCMCELqCgmqmENIwsOChxAVEQBBYHQKwDWIgQMgMBgvBo+4mX/RgKAyAKCCEIiQBhJkOEqjQAUjMSoWEispVQlFgpKNEcsxzO3KsfmaSD3+Z2aStcix8hEwXpOFLjtycrtqSQxE1x8fPa4B0Bgp4Z1L0iBNEctCMqDAGJUEUENihFJBWDiYeUrCgyD933xjJlUIGD6w/5gcNaATICsw6DpQYPIkF8O0QAjEpMZq0QZbROdkYhOc9qCF3V9PIF0LehM8JkV16ORNs2i8LaQI33qL3aqsiwTtXp0ciQYLTPyIO4QBSIOfx/lhZwHYB2Y8CrvEiKmGDWIDsMqFsUAICQo8LI/UKyEUWj4IBQhBryS6RpkeCKAUQNFIfQ3tDUpmSTNfWowQRc83jqYbbcd4CqG5iIGAoUp8cimCZld6ddk5WILx1B0Z6/dkbo6+mDjKPGBBJmBkKKSq2hAkaKWwduCEoFhzgvJELgVI0YEJPJIDALEQi+ND2oenDAMKQoAgBDrcOXYGQEQBIWQAmcKijLR1iQ2LdBA0vbV7uFufu6qxfb4IjS1N14xAjMWY2vmu1Qmsyn27Khvo3rt9z7qaHZ/VDz66OmlV1pHcaQ9gQzzbFAgAKA8igJWEQQASQRIgkJGYASgSINAYEIWzfiyHsWgBFkNQmeYXhTpajyvfgaCyFppnX32M//JlAqdprkhoiez0y/s8PJs83Rx0RcBUuRgwGeJctL1QfXJIV2vx8UboyJWzu0Xj5pNdRnae8lu5z48PgsajHhABhVBiBGMR2QUUZGijopfpDIIUQEolsERYyARGygqEgzwsj3EV/E+khBGoSHPBgVBAQzRCZE4YTX96i995v3/2W2dmcImVqqLm+OD8AfPV8fi0kJZ9BBsMhslZPIAWb9dn276nkaJjpP9u7umCbZcgmxhc+wcvz7B5sPVWcWjLgoyKAa4qoABiQAr1iwYSZQAshIRoAjEiPCi8qCi8krwpfVDBBjhKhsVigoGtcY6IokIsmZCimz17Kf/S9dPni++tc1yazXGmGfXqh98sNrYMs6vHWa6Wy1u7mQQBFGLCHIb+9Ztzk/C3Ci2N1/fdU7ZGDe2LR/3l01hrr0W/uDJY+hJOUFg66+KMUxyVekThEgAxAQAERUIYqCIopAFgJWKgi+Nj4aoBBkVw5CV4NXnXaW1ooWAwVDyU3/65sXZSbu6WGdolB1lk/TBd48q0rx7eHdigw64DLupMBIBqz6BqESgC2Hz8UXbjkdI17JXJs5ybalO17Tcnnq1p64HeXx8HhpE7SWSAoigIoEIsAJWAhSRBCOiANOgqAEZEAEjMZCKn9qjBDEiiuhIAiogMgkIEkQhEgVeRQUqu/tPffHo3J2suqT/2CRqf+dw8/Z3Kp85unnnRiocEDE4ylIliSS+tY5sRyBiumyz2oyWq4tlcvOM4ceuT7SPyJGWutrEduHNwW6RLjZnT5pGFDn0CgE52gCfJiKAIoSMgRCHrEjxEGMQ4WV/QELEAEA81NBwqDIBK6bh3RATNfqnf7JbrR/bNfYBn/bFL8jD7z3qDURKv7i757wSRdSoLo5Ix1EO5WXvLY5bYIjsCVztP7p3/uQsS4t1ff327RmJyNpb55PVhvwy8YeTbL97evHeOdsYmZARAFSkgAisIwzVQCGMSlBExaEgNijsl+0BABJAQUYgZiRGii8KnCBGYgL3/0e7z6r63Umr1GJPvXtn8s77F2bfLbW5vn9HiVhvJXKUHg1Y6A4naVhVnMyNs9L3IXCdQ3X2gHfPL6pkrsvuR0cm8RqyU2g67Da5443lkOzc3T393oOT/MbaOx8lsMKIjKwZCCMrRBYcBAyYCAIMCuQP6QMkHGqgQ22BGAWHNIiihkgMSv/ov2Ce9fp9cL6B0UFy8d3v98muXq/NjXF6rdSenEECD2YRRiFCkh4e8OUF28nUJVF7advYimw+anY22pysV0lnR2/szHe9s2YL25RHiz7YuGhdM7q3O3vv26V3rnc+cpQhmR9SXxBEQAYBRFYAEV/Il5fKbyBAQkxXPhsjARLzUKw0XpP96r/0dPEuf7ZXQAcalr/7oE5Lo57q8h7EURI8KOvBKOUjbRPVbu7geTLZdW2iQIsRE0ejNQU/p2nmgnpz021PV81Cpj8/1YFQlVOvDyqlH9tURk9+57UdmoEiUrr3AaPIlUAh4oBCrFAEWETAAIioaOIf8tdArIbNkcgqgpiAQkNJWkxfRPvz/+Nn3+MGqrh+Jcnf+fbDAqyYxifjOxVMpmXUbWOnOuu0k/wHdj8+n8zN9aluOigMEwaXRPIrX+MPJ9Y/GpsRVlK7j6s+v/Mj6Yh5JE6JlW3ZtbqJS1mD6WP0rve9izGyDJsWjNpTpOH5I6MIMqqIJjDCy+V4VoDCFKOOjMTeQARizYGUN+34C//ixxfVbGVivL335N9/gNMU+8WrUe/e3BaTQlwKanTc3W4VEHSjp1OYqi45m2orOquK1oOTsRNg7dcpJrfr+ghSp8Y/JuHR0+evfaGot/tuFLa6JBpTLOj5Ts8QPCnlTe+D9zzUkhF6zSRAKEKigiAQBSVOkaiX/TUQeRJQwIJCAEwiSkQBAqL9sX/l8bPF1kzevSPF7/62zzHYtgGzs1+gu51nLMZn2+Lj+azKbEvu919VY9+m5ewgGvGJqqtIqoxx2YXlb38ZxyeqU/35Zy5qP5qMvr6hg8PXprA4IM+GQtrUOoVqueYYfQwxOBd7F6MXAQBGJgYaQo9cpdE8eOZPxwcFIBICQUBEYSQcCuKceCPlV/75R6d9p5pvfL6o/p1z5dKo273R3ri/6MyoUJpjn0pR3V2sSxDd6nHYAUu9C06DWEQnDHlQTUy7NSQnEXvYpl9c1dk++Qc//v3H7vFy9sq2uRGc9KVLVJ625l53sg7oUSkip1QIygkLkHUREEREATELDNs8wAAvzbchh4/IgzrXHAXBOhVQkNSX/7nmZNXHPv/Ctcd/o9KSjqYHu1Pqcpy+J1ppFqUIuAjF8agljZmibtLoXrWAPYVZBaFPW0uqDUldliHNz/GeJ9WmlzsOH/3cd3+YSvXo+uYPRlXuZytIkr2Mi9GNyVGThqCUMU73PSkfo0gPKDoSo0gwIKJZgBUggLy8foAj6jBs4xALalatETSc8p/+C+7RdpN4Ujd/+zdQ0vwr+0VKLVnx4/3TDDlpSsmUrwS3l7uGlSwOLSuJGKqZEdNxD1AXae8S8OfXV0mItPvxnivmB7OLO231ja/8zH94dHf0HLN3jJokm1WT+FiQ2r2d3j4GCkTKeK29J0eRGQQYbIugPauoAuKQzr1c31GAABhBCURFLEKsGaMCE6Z//r/+tHrWxfjg1t3f/A3bzH7ivg0ELsFsyXT+4f1sHBI7VpYvKlgnKs9W+GhnFlW7LLPyNksKy65xukiyVR2b3/pSxQZ6vp/HzXbKGA28c/Indn//dxKUvaLIMlHN2bNNGloJuszvTWItMQrH3oeuj9FzZImaIQkRBVUcUiEWoJfHRwSJESUScSRGNgHRIFP2L71RXXTSZB8fvvEf/B609/6o0RZRSiw73SCqVckWUKVodn2XM856HVoCIjLYatI6eF31IelS1xg413e/WfDWvbHXgEzbnSpb7e43q4/u/7lFtWuhqMEz2b3bRuHm8nS7WvPO6+IpIpJ22nhvQh9ZmLgjYNIASDoykyD/IX9AFAWECAVJNIooEfLJ/b9479l5ftTr9s71f//b2r/6i0YbnUOj0bQBvZ8c32zHzhVQkrl25FMzfkrmUFOHau4Eq1xUvlViw07ag4NqZ1uoXm6MKpX23c76ZqfqWeOfdu1rh5Lz2vii363ifqLXZfVaWJ4kq6/f3y3riIgUSBnPunUmRFIRAD0yQBy2XyX+IX8QAIxHEUEmiQRsRMrZP3uz+gCX7mg23/+3n1r+3E8mosfpRmXEPihp9K568Gad+3YSdSqvnFnTUYucsUINRa+NFt/0PVPhS1ahr+/Uirf7psvTVHe4l9hz69a1rceHFTZZqT1CrO9NrDvsXv1we2P2KMKDJzeuJV4iaat7HZCFNQQBFFYBEQUAGXR8WV4jAHHACIqFAGxQDAnd/B8evNfvL7cX12fZv34a+LWfSmNhfC+io4R+o1Tm9k5OyBXbbCxh5O+v1IrYZcC52fqEitS26bIXLuq9iE7Funyi23jdacFEdKpalvWeTT67XYuOB1lc9rSu7Bwg7dX4zuaD7M2Hgfij53eveRUjU9pDg7ClOGy9RGIxgRgJGZhecm8CbBE0MhCpJGDQ7N/6X5pnTfP4tIV75Qdi05s/qyjFpu5U7GsHrnQdZuW9Va1cUNjZlrtMuJmhJcM1ZVwk1MPKA49k15KUajs9Wa1XzaFsbbrWmk+2J1a1fJ+m48salfFOmsfqkIheeQ3a/MYf+dKzz2un76r3PxYiZQxkOBsbw4pSYGAB0kyBBEQQ6aXxEUQXIQ77RY40qPHn/hfZ+nLTNrR8Df7GB5KHP5JYr71vu20bDG7T4FMMrbo3Yms6b6BQBFWjXBqp9iAO7RisNFXTRqMSD7LWST9P8aAuS9Pys+W567EzW4aOxhsKZ5C0qrtjrI05xIPJbFbufuXoc3vSO3j07Q1pFlE3KYyRPPcIworAQzRACPhS/AmKEcWEYQ8YIwll/s3/Qeyj08ukeqX4Ny8m2+1P7po48g10KQRhTV2w1mfKQNm4XFTuKgW+leBXs2hUW7Y6S2KyiEom5SipyVmKBc+WlKxQgm77iK4wkLx3G0pvpkc3/PO7Ny/nlG6dwjElPnQadDF75enKnLf4rfFfWp0Xzfm92XtlHUVFG0QEMRCgV0Ki6Q9t1kNAJBKFTKL7+BP/K9n2zremvRf+td5s4IuHCRvvQdzm3HvnvASlE4WsE6OCJ2d1TJO0pXobE8DeYVqkGXttdL4TnO7qBVIo1lzsNGwy7EMEW7dNB3WyGnfF+EnZdOWt6RTHVExrzMcTU5P+3N3kzq3Jwai9Nvnfff/z19+YvVf8XMLCUdggIRBCiIYxXJUNB3VNBKKGuhtrSd34rf9pFfBpbJqTz7/7wzfWrnvdskfM09wq4E0jpmt76VODSrFvmDT6xDiJOaZ7pilDorNJVnFd6mTvVhvCpvZer7MLjDsjS2mv0nme75WGcLSzzTfaF85RMHJ7Z5ZcOyhEdeWyIQcFJ/rg/uje3vaSH/113b75+on/49dBey2gAJm1QoiazUvxhxVEJZGYGAAjhXT0L7plXHYFF7f/0+8vpwX+kr3Y0KYYWbv2224zzvsOmolS/ThEl+YFmTaFtJvFTllLU0txog+EddWklLRBr71D87b10tFsrbO0b+JYIB8ddX4UE6srSE3SWMvWjKA2UWeda9RS7YdkS0Hps9m4zC6e/zu/UORvfOvVn9l/W5vggFFUQCXDluQnDlsBMCHqzoIHHaik/w3h8bitmnX+V/XOaZH8bGbjw1mpJqmGp7y8mCWxuBilIzHBYNt3xauSd0ltENxGtpMJi+Y0d+Ci7thUFx3p1jx897PBfO505ghCb8jLZJTzh9SX3ZTaKi5vy6tddHshwWDJhfZd/fR2kk/cid4+5N3Upa5+fnTvi9Vb31WHv/derZ0BTwoCy+DRXtIHTEwclReNnDL+8RtPuslZir79O1/ddIX6Gcpqmq7ysMk4OTjO51GmvcnHXFQlGjXmnaTpxmtKgs9x91KbELV0ThIkDOEsRpCzNX9pfDz96je4Pui3k4K2Wk4vb9L1oxjnRTzbO7ne7ri2o2fZTDIMebfS8Rbr6Y0n2lsV71cmhixLfrj62sOf+XvvfMb+ASuJGiILXu0d06fFAwUAqCTJIbLLd/+5J9vHdP3j8pv/++NvPhjDL+7uqj0oui66pemLQpM1m3SunMa8j2k5mSqkeEmK+pynbZIoa3qT6sRyf3F86Vrgiws8eBbGyVv/yo3EIV2efqjWRTl6IvObN3duXhylC4wFrZYrF5dPt+tg+uQwFbA3DmPK0Vc3nZGQlDujzxz9Bn73a5PHn7vHGCBG0qkgqwDwqd7BSCQoQB4JDMhfXvTb73zp71//j/6+lVh984+WyuU2a3dPruMmL+EwmMYrZyzYyo7SVJQiJm8gqTGE3uXM3mrlUEJ9WWVN4j7uzCvUT8/J/Ge5l/d26Fn1Z87xbLmPF2mab3/osSefBoPRPtyRxB0wZaqbuvF4mp13PcR8xnKYLs5xpzs8/pu//Pj19z/+YneMjkQYlACjqE/0gRANB7aQhTmqX3rl5GD/Tx7vfOfXEjNW25+6RY0hGMFIrxg34uO+TXNPITadKlOT2E5aZzE3pG1ClAT00VlVJtw8uKi3o80Y9D0HyYqVr6tU3361/Mr8nX6cJDzW68XFQkSPm/U0Hm9bd3Da+9FpjOKLg11bQgjnGvkay95eQVM3vn3/Wvu3zuuD5Oi/vIcmBwATKEaF8ZP5hgyIRAJoRQjMn1ju+B6OTv/jzOkoX7mjENvElia7uXLiLwtKD7Nij822kBuj1NY+CTYDHYKHxEOwIFZZ7SXUDtJ6ddq0BcbYp2WZau3YwLGBG1lCbtK31enqVETxo+2y9Tqk4XtxFc5pFdnnk2vX5mqx7Kn1UylS63I/6fPxNO9/c/n45+Tkc1PqDKpWBasF6dPzVQyAgEQcgYH/5DgsO/wY/i9Ze92ge1WEtYnkdqO++bFHt0xJX791/dUbn71+I22DUBI1+oRULiZIYSAa1qr3GrM4CROTzuD2TCc6TfN8Z17mMsqoKpA5DSzWernoHx8t/fzccLD2rrF1WIEEW/W2qHlxKrXLbRxpu0PTSRF31Q76v3Xw3l/o6bMT3QGYmKjhiM+n6SlEEBEBVHLnF/oUL5+mvxJ4X7LwY20S+l6U0uksZNM+NpuOrTZ2fqOYqj4zJpPSKOdz3xhnwHObsSEPPoqZYTbbt5w1U9tTke1OJ3pm981OZpj1WDBcUtYxXMb7127f2K59e+JcOZ+hOiqpsiF4ulxI6/IdGEt6sdVFm6e4GyfkfqU9/SPbvTuTREAUexKUl/JT7QGFgUAw/ephM3+i6+r3cuO4/lx1rc7dhDIVOBu5sbrca4QSB0Y2zHnXZszNKuTVrHpQaNnsqeta2dbtVuMqp/7O2Xo9oW3e9cXOptHBZDSp82Iil+N5G/TO0cPZeIsHTxYzp26+n0hX7EPmjUqP54piytL4tk/3ghTUJ4Y473yWjabv2OVv8E9//vu3qgVChOGs4yf6AMGbKCyKQev8jy0n78nT7K+VMbPu5i6FvOXVTmcxwPis4HWTWuhQxQ4JO+PwWJoA67ZK+298sa+PquTa4StF6fINtCXL7uiwhySdh93FdJRVSdMqp89A3/dKl7y9nrfmcAOJMeTl1nYMz6rJeJV2RW47b01dHFN9q428r1tgV7S2Kiuc6NLj6vnbX3vU3dycKMXIOgp+Oj6MnhiIDUP7y2816533Lo/XmElDb0quhQQJTKtB9k/D9Xbsjfgk5VVWbNeLzgAA53Q+e237tLz2Ubi37v00mU4T24tWkY2LM8W5Sztp1XbWYYLzylykrttf2gVWZcQuT8PkJDE3s9XdurzMu+lcLUunOWnHm+uSFxOXzhVK60Vd6J3N2fiMww/2H37xV25PqgokoIjpPxkfISBgDcyC+Z//cNR1671/z8JozW+F203oQRNmnQ7A2X7dXp9nDQHX+TRsF3XPq9UshdhmK/nyr/g2V+kBdJiYdapZ90naTaL1W1OhwYRNt9Ihg1XUByCTvnAj2QnjyhYd+nEIuuY0bsp2cj3gtB6HoOTOw8ROM5VgLxKpTDY7tUzf3z+JtH1g/8zz5WtnipGJxZtP6onExEgekTh+1ddKm+K3+rgz28xHcwVAhr2tC8cqNeM5iA6paslw3a8guFXVrHcmVmFh+y//biIwHrXXuzN3GOt2XFA1qzeTRUe5snlksaYunTNUCwedmXnturEZPzVNEg/PXPBJMDGRqUr9al4rCQa/4GHU08b2xtlk6bN12bDbvPJhaj7Y+3s/8zcP7n3HehlODn4STxWiAoMqMv3I3lt9+179XT2Kj+ObSb4l0nXIElsnNnPB+WW3jU3Q2tURgq5g8tpBdqIojYr9zdceSaHP+t6euy36SYB+3Ptk2YxKFg4+ddbMnNKUFZke5zGu9OgAXHdg5qNds1/uXU/iyNTjPccya5XolAmU2bIrkYoEe4aGa3VhNioLW/Vxw9c/KooOLGOkoD6xR5iiIAiY2eefXxaP4vcqmU/rN/dK9p12WZarkAu4LGXOIY8TF88vTeiwHRW41rpfLREpmOd/7LXlWxdWtcncpF3aTUPV4yy7vh81xj5QVxyRqN50FDDbdJRVp02V26nZzyayUQdqZzaWbG8PirHepjoJ3ovJBR2ojLZ+A902hNCemfHiFlH3+PSbf6R487AAUYjx03oVKhEVohLs7u4lMD3d+wOVbvvJW0iiYmAwI9FeW+kC65rNpO/bfG/t077zbTemUoUDQgmN6X7sa5MT1bL6zJktO3WWZ4Tbqbt5XvgOt9PV4tBHmQj21diNNaxtGbZ1mk5EidlCBv1+4UyplQMZeQOFwwZToyKxa2OMHlzRZt+BL9jN6tajQB/Q5PDtz56QboxhoU/0jkcIRFEg+ank+gpn31jHondfjNaa6NGYWZIoCVwBl30s5eL5alyugarQez1pFv5V485KIgrVtQkj68k5TOpTUmN0KnUgSjTuJ/uj6/fQFsb5Biamzz2oeaeL0i8/6hKdjQqgMReZUaogMZAStBY1dSK1b56vt11kFy/xJNyblddfKfe0OuPf+HJu73ivIyN/un40IykUxNlnp19v32l+U+F68/kaxCTptExu5LGNBrbb1lfS1UfrUI68Fo6xmFpTzFbnqpjUAbbJFp3/IrpYRZVL72oc9etk65ftolsZXkmzM9HXbTZNqRmvMI6arPFNCjvbpa6t2ykizdOcu5o2tubKSmsT3PRsVe9Dzxu/YnEf7+3uGJsfZgTx2WVVqsySIvTJy/qNJbKFkIxg+fXtr6Vk4Jcy26aSjLPk3khjH1pXTiapWclzLLKsSnyUdAyOyJrdEmuDWTbl2qkk7k+6nW9Wi0m9zGgTU5WldN12aaS5H9Uq7csD2LTTWmuIpWdb+GnVNef7eioGcJOUqHFCcNCbikTlLpfa0FjVZpOeUde+PZqU57nuZjJu9AfPy/E7NwwCs4mf6gNCkEgR9RcT/ZPTDy9cgJ8a39+qLlWznHwQ0hF4WTQQPVkFFEon3sg5RdKrMYcInuI6i2oxUp4hjU3arrOuymcnY+y1kky84Cq52HGQrdcFF+uxr0tft4lS2KR+rCS6UZ8ocInbXcdQ97lUNN/6UASMEA7Sc/0o6cOD5MYs3E6OAhGQpB9/+zOPDw+PnI4sn8ZTjKhUQIiv7bVQPz5H94XXbBwBjyYcL3SnbZuYLDgII8FMEKWeqoitIZd1uaRuk0jgkd1wyDY22b/kaUiKxqqzfNYsXl05BYhhovR+0x9c7G55z+0/nzdNhCxfQr6FaUpnZOqEmajCc6GkaCkibZRP+kBGFBf4cS7xwa2DUB6q4z7pksM1Qr96+97ilZOyJhLWn+bbGIFA0muYLWdHPc/eQp5YLmXbuGaTTNVEVTFgtFvIICTeZiFka0KUmAJF1fW5NVADB7jhqm2flZNFX82XhbRSrP04RpPUYVLLvFuPVmyqTB9cpiSb1EOS6bHp6rgx19cqqjZblJiryvZGJHN+0oomp8WW8BDUW6Xa3atOFw6end8nM66Pi6q8Zp0WieqT+SaIwkow962qH50iFiXpGcKmDe0CU1Q2LIMCjmJyZuOEtknWjUF0A7ZD08XCT9d+st1LcLm30Kkvzw+fzEi86WW0yk5mfRYgrPcvmSgqNn41CrtrMeLNaNcZWk49l+7jcfj9S3f4+k5iKa2JR9EHvdSqgk0srvW7+TaYqfXPFm2rzi/6xXzL7cUbX/sbfOs9oPBpvZcVR6SAEm/MsD7DrN0jnKuzsLnM872UaYdOqQ8ep0p1ZfS8ak1SlVin3eQUM+eiWo/78WJdbser+Yk9s90ITvV2lhe1CVWK12uKbaG7J9M6ma8hX5YQJIt6W0Lki72QmctVcTnV8p9UPlldL7UrNlY1UnKV9Knw0cZnp3fzPC0aH+oQXOoObh892DkCe3r5wc74xkchwqf5HKFSqBQTffD8vUrOoynQwio8egAHpSbcVSvgyxWMMgkWm8uzrjWsu27iVXHdeHHhNBVXlbrCM7chVhF8Exp7lp7bqpvHybLOFVcbN5MpbyajbLKZoNqucc9Yowvuqydn2NAlfbtJE/fmtVSVAbAv9GJdtuiJrC83pz9YAW+4jEDtKAeM13/U3unreLbyel5ipE/3G5ERwGmD+Lkvvvv4JOheEszON0c/ahipVGvp9cOUu7TTI3XZsE0yUJjUm0yEkrTxJ1El25RGrebKbsTNn+7quktkrY5vyaVajOtnh5nV1enh+V6U1JGtKrgzicqYmNWVD6xEae+OvLU/+wuOtykKJAvqedEGbnZCus27/tHunpKtQD/yI0ub3trZM3ab8CO/8ma6FYSX/AGDJsaQCO433M36LYGT9oaICW4rnJp3MN2W3ivO0Bdbjbtb3WVVN+ZYwAqpvbhVoKv3Nsa2iuAJUOsnEVQyWQiMydErWz6bdLOLUVMVlPBsc3i5ovmZLs6gXSqssxAb2Pos/MTP9QnUFJMWkto/W+FoPXqCVoXI3Uk+RYB+amHcRXVKo22xyU+31z9jDjfs6RM9ihopIni4dtA3WW+z8baVTtpdTNsuRqLqm2GCZYVexaZTpwlkW4iqSvLm2J2D1lM36nSfGMlM08hSNrlEgFXfnT3RlPQhxPMKO1Gba76aJ7AxtFPn+0WfxB7bRkOfm0Rc+Th1X/rqhtqVFeVU3xXrxsYz8cF0SdW0PTzsfISdg+luLMjGaFgpV5+d7dd56OnT9YMMgITGjGbJk03fo312SRWFjLLYnJ+fVW9fuzneycdtqpC0KTfNJQHFFHkpZ9CROfwJXJvknKYmTkKdjB4uirZlJNKTY/AFk1LYvuGC5w4fNp46MDZvL3TfL7rzauW3bYjr7PmT5Rd+iUqfjtFXG59SjCSZajWseDkvmyq056ywbsp0Qr5iXwgozFbbn9zObaJeOi8mw+VK/7n5WXkWklG8/K2fsU8KzUq3J4rlcGoxV1sXvWYe1a6fXeg8FvGiXdm1Sddnu+Odi+00ebqaNsnInF8Iw+EqFIzrmdGXVoci0qmfbJ+Pvf64yCahc93IXsTpRReSNi/OjseZe0qzX3T5Im2Sda4yX5WbnfOkSRovaSoYxi2HzV7XmwAxXW+XKmzAdAq6x59xGaHDT/QBI1CMKOlXXZPubtHP7r33w92T3QjtuB9/DAdji4kVW3WKEjRjv1ltC6ZRBW2bW6rMVBc+LNYHMN8xI3v+djg9LpdoqXYzN1tMVxPpVShpJfPWF0Qp9WDpcmyfPk6yvjdV1NcfTU+D+ydZbaxxksYP4nXVZN1hEwq33QmbQ1cuSaxxml3X221Vmb6rCCjN6x/+14K4aOJL/k0BUVTX79wxx6oZZXp6450/9uXq+RT04fKzCpHKNkJZBV/2FkdijxULVDd6nzYjb51wcanVLVVmjp1L7zr/+3fnIVn5WTN5Om6x7/NTSqupO9rlsjHOlcR+fLxd5eGyHTmMUo3ePjY/e6Ojsk0Cjt9Z6s1hV9U66/qd01VmfND24Yy26djXQNRwEp42FTWzzl5+nr/2qPBOv3yegjEQH04vK+WDM5L02sLEX7jZxbVNoyfBKza1D6YeBd9N3N6qqS2buzWX5zsYxq3/IOTLg6MET4p+dby/2HmsYyzKepenVQqNXI7dhUyXo2tvx92tbtqwrp5VN9OuLnOUkPThvQva+amAMQS0tZxPe15zdSKY5+vpMktZO5c5akqJ0FRWYjh/NtftRulWsn/Q1YaU1Pqlu/VIpk+b11er2GnDxWEcRQJ9HuYn+Z7tRhdIreikm4SggyqVDmtJTinLTvNKVuV2uVMt2985ODvUs6o/dMCbH+AmH3Wvv9Hny/ly7KTZ94939Tl35EXr8/XmXfNRdlgYn7E7WV4s9hZ/KhZV0ecxmAb8Zpzw0uYX2KJgq7JgABa3+nqZpI7I9xaygGd2tt/gx8nZ7cOTtB3pl46HALAZ48lYIpY+x7Pe9h1QdtK/6taSdO1OW9S+fi0SrUK37/eXY1mRb21XWYubx/5DUXG3ml/cPTqK88lBlrtVSd3i7EtpzZK66WXB7Y3j4vS6tLYq1Xc/WqvUHm3SzELWPLuc3wo/WZhN4SUW1fT76XJaJ5BvFtI24ebTmbK6Uvros5WXuqtMpfXxe27/QYd4ouToR/47/4GJPfaf5guCbFj6LHtStNJci3a8idGkvinaD/JDEq7Or7lmq1ejnpTGC2rENnvbOuOjEh9tN6hDCrrO/d4mhNkNVUh5+VruntR+mcXO6XHc6aO6nPdmPb6M19IH9p6/rCqp+m3RNtnc9unn9jPnU7cZb4qL35+N26jjMsPs2RcfH+89VPu7utmG370hhNVO2HRH9OPf/6HW+bWm/FBv/+qNGbOJL+kDUgHQyHH7PCOHTTcO2zR4402K+CxzrqEnuumP42gM3ulxl7RzXjreVDv9D4XDREUeb7HXhqrChtECnydJXYxn/FtbbXdfc1MYLXN9SfB0x19bHqvXb5ytnvAyeeCwsFvaU9dgvhmXXSf6fP47X/2deciPk8lpZt96+t5sEhq/qjqaXoZxtObEbrc0WTzNAzaxAsOzGw4429hPz+8gk4hf6buPv4lIyXQjfHZHha0GN/a+l+AxUXO+hUFzMeLYPTs4GrVVt3ug/t5Ofuvs4TzlCmJOVCt7eedxp4oxWYqnwVzaWdV9/ok3k0VnVJN3F88wHtzinfYg7tWzRQLRdUW6vJztWXFqFKPcuPdoPQ4ROM2X58ud0ajAix4LKzNZZxcaqtHEvFZt/0DH0YM7qV8efPb/logzn9avo2hnOKnXz8prH9W7dJ7m2fNXeswg1SezQx2wTVRroeiNYs3tLm2fd3O7Gj0u877ORmeqZadHnDavHT/Qt5+k2d0ni/Ri3+wfj1ejMP9cmZXLpdXQFHprNueT67UzkuCzVTs+kh1riSb7owKIbeinZnqWhcVtG56pTRUv3qLJ2YN1UTz1M5eMk51sgyG0zz3efJh19rTYBnWjcKPGfJrPGQc6EDhRZxc1rrbTTvR57xSIfaZo1HplFVhNMT3PrU8n62kRqqf60e0b5eUriye8ZS6LM0mb9LdgWsINZdVBvq30im+9fr8oDjpXHn/uMrZmslZ0d3//hyc/fny06R4dQZOV1TpCePWe7akepc6uy27V2V/+975x/XB0ftr+Vz42ti2//PgSvvSYJzv3pYW5IoOeZ82rDwwf+E6aksd9Ia1+cZg8ghCIerr5ysG3im5qZO88vZSk8nebmxUtVRqp1+LHNU8MZwlm4E1+/Vtfva6a2x8X1VMdffcwTbhY25LP91wmekbl7zRo+L6qN2sfi5sL3Sd9/vrFpJO78996SPz0fKSxSEJitkX/ePEL+7U5S2bbvCkmR8nfDp+dtBcH3fR4cnadW7V3it3drs5Gje0AfMxMcXH3Y8vxQlcHHWd9Gl/Ud0RB0JGQeP0ET25+R4k7aPXkdKXN1EL0O1owBnYG21FkX1BjDRntqi9c2xbTup7f2Vufa3/rtLWLooXEnpgdUppntUrrN9Nlh5DEUNm+TASeg4ynl7s/8w+WdTxspEh3bG+WT61efDu7CXkSgVRuiuJyBxve2RQPbi73WBGayHqK1egsiY4tSszZ7L197YENO901aVXD/YvjIRhRMQmwoqOYFjtOpWewPplnfZyH8Znq5kgKtrs+p7IuKg82bYKqXGZkkvWXd+5djnYP+KgVxbKc2zsrr55nLrHxfjJS8UFnKROAkZsk63E+6peb9czuvMrNQ69/JEOZbEcX8w/C7tnv/vKo6yZlk56OxzZXsR9xI6/ESXdtYajesbcT5yDrWnWBWZHMa8cASIU9uvlj6/yj3gatX/TaiCaAJIrmR+tayqDSvuDR9NE9zJxrXgmpG1/sQUkEGlKbtWpelUXrk/kj2HY3z7KgTf8Zr0/U2Z0nN5LNvDV+8plbl+NFatPNgdfUkXG4HmfbepWSvraW4sePSisjHne9t/UsL0+epM/+4KeFtCdVwhubBTc+10ksTHdjdkncTzSHduKZDh8lHFElz6N3B9jbi9nt+jJvEqf8lT0xZREtDPxc2+0yZhtJF93hdtoeIMAuEyR+B9YT5VSwkCpFq1FdGujW2aq5LvnO0mwOu/UoU3erL29+wL3Rzf1rHW3zfEvTxR4UZVjmcLM2krHi0k0w2N3sC0vhLjPcJH0yHl3/Ln7wyiu+Vl2S1km4/6DE6cal2N6arEVVZhKD3fFk/KZw5SSZt54um9ZA32bLN/8unjfav6jHUwC2FMC7b9Qc76o6sTHEEZvnHJO9UUcA4M2sa8LKEhlO1ITz4AytTtejPL11bvprKDstClxz8XC3WPpid8m2HFVZpvcxDyG/pvY2ut5EaPPgJCkCQDGf7RYQ80mftClPfm7e/voSM5tlYSRzc3M0tpIk/s7cVaGtd0gE6eC6gySO9vfu3AxAnlyZQKKLbhEgY/UiPxUQjsEiUBVSuvSmi90qH6mDnzyr+yIppNk0GaI1Me0cN22AmAuMGzvWuSmn9azdqZcoe0mGx6G5vbefZGU+IvKXwZGyeoTclhgsZdclhE02PaxBjcLBobHXDuYsu1QE59yBXfzqhQSvMsh1aW+Ni70dc6OQdfTdWJspJAeTXjdB7c1vjrqN5h0VmS/rues6s/Tqk/NvKIxCLMiudaAzypsJp6WZuP3zOPbkhJ1K09a4JunLaNmq7axDYri53kfgMGm6g0qdabpAvrEZ31z5mK5QUVEXjhp9Ml/bh7OkznoK80VmuZ0LNcUarp/Uya2TXm8lEeGvfNB9tPlTO6rjfJPQiEcyHoW0gm6rSiI1vZYnncaCD2YjU0uyMDYZXbZZpf8oJucKhT7ZP1VRiSArMdOq3aFwebB2paaQuuyBmmkJhompaMms8r6QyTpR3vkspMk0wpYWKfKFL1vqwpSoVPrmQ1kaxSWFSQDUs67Y7mdNSoozSJU7PLZ1kqaVrrOSARLOGlOlYfnVX+ue/M1fnhO2KujEbDIZb8jEDkpsDvZNO94mNm+nXHTt0hkUnTqVO9x5Nx5UjRbT0ovxUcSiNGq/XV0TGavgq0llexJ1uEfYXrz3/QfH26gzz12zWB9lDp0uvKIYmx4Xqlt6p59HSeaU0R3d3obRrLBQ6zsu4ZxPdNR+JdBONfl8oquJm2hu8qjROj+Zx5Hv5pzTzt4sPPrPlsGRFTLAEF1R6PLOJJ2/fq8T7hML2ThX3cnTDcUxj1S5rVDtm+/RD0CCe6Hfhh49EVi9/4O7J2QaLlt/7WI8aqdxR7U4O2h8KK0jmvjex3G2xcli1NqObVBVU1MsG8f1Ibl6Wtq8E/2Fc6jU9RVdzprC4pwFrVPBLOeXZWZC2bg63VmkMVg7Wvt2fFIGLJJav/bbefLx3/jT+xiUqG7ubK1wUs932BAWrY4BLdrerKs67xOAra8FOd2aVzmmvcQX53uN0owShSK/O3dNRoB9XqDqKD3c3dmflFlx42BkIyBMEvDnJ+d9laPubeqhIVTBe6Gz3F3iwe6cZNJCWnCZLXoHfd+LqT3QdrJxXbrcTf3pfH0svbv0dTnvVjI1+7RfUFQN6vs5b8cn/+73HPrgKfo+02wzIRWCl1Eykiz23rnTzmjVUxpnSyD/VvfLz90z2xt+MT4B0TgdgYk/WpfVZOlprfReqhVYYjuJHt3IxRKIsz5fuLhEmkWf1yiYL2vIoMYLXKkdvxn341hAk4OJVLJLMNUect3Z0JiZ5vmG6MYpl2433yqsMd1yn9VpVuXLqpn26S/9ukBRfR1+BEFNVwnRNnV6HFlLJ9typVVdZSkW1AH0Pj6vOz2N5ud/b6S2vXb6k3yOxBEjQFTfp2nYf5BUMMp13u3iRW3yCBFJjXvtAaFsJxvVNckIPPviMmE1W1TMcnD+9C6gU7knBbOY9pO4kWy3to12XlNJfupzWc6q+L1sZEePx1qfQ7rNL8fr9CxvpjPNAcybk+cr15aj9+c55LEuvTFV0ltIO+HUgXr6iFK4efgUFBZnpY/ONon57h1/dJ4qgk/0jggNF9Zp8/GXbz5tbBoSMtbax31vHGKyBryNHkIakzTmjR8HN+vr1I+3uye9YHQT11OCqgwNIufhkiV3/QgeHxYYCunmHaVbHbZJz+v7605XqsX2aBelM10TTNZXOr9x5Cf+/mtbCMlmty7dZZ6ux2CL2nivew26Ds1y94G788PX7z4uFj61HXUT2Lt9KBePrAHxn97HQIkEoMVfPMrwZtufSeQcd6roP3qwOD9/sOjbVZklmlMAO8mnoFSMVraBLlhaZWO3UTZBfZgaUF29mOjjBgrV39GX1XN0sAHMSLdj3ZxmXVXUca6fhOux8brp4zIsMgrr82J3L/M1JaO4a/xKYOMPHK/6xKVmk5MKaDFpdxY/zB8/mI4s+pV1utkd7/3shzvfAed6/uS8pSApJcyK2uc8nVyHdHwZAFab8Hu+PVl6k5nCboOWEAzpmKTaRjf3XGwCmr70PSyhn+z5G43ycHakMg9fZoBi2uTpeBQNZll3nGLSnJzry2p2lleL6jpA6fs+78uowzmbaYp4oo1KWZdB9lIDVlVAybYxlz6uzy+xg7awdHP5BFcPHmLAVlUY4pv/69+bncEsaIMv8lMSJo4oilVa5fcf3fhuKOEHN1vgR2rf5HHscoImTSBhCLqzgEVnAhbOpQB9KHndJL76/MWBm8WQ97W1crDY82qd5+3s8u46ltixAlVzlrKpfHKW+tR12ufO1aPtbO3YxmnS7awaixx7a6jFoJN1gh3nRT1tjyuG4z2XXRLNbj4we0G1DI/6M8LX+d/48M5fV+urQ2IAABRJCQIbEIo0vpb8XJmOzPNHF7pav04EuUqVa9vnvg9aE2gjwEmfY1DEFMGce5cn/az2tvBJqp3Je9kdN3ltUp0S9sZE16YlXxo0TXfiq9C7ds07KgEezXB8qWd5HJtaL0N0VZCIrkvGBlDbpOi1g+12JdHxGfdTMri388H3q22AS/depm/fnLr180cEyn9y3lIwaoGoA6ueqloOk+nycrQ6rwJfC1Y747BGqaebLJcAMSWToLcRpEkt5G2Q5XQbq1dHcezcD15Li9X51AYeN6NRk3VikzpRDaZ9nIaq7JilN56SRntO26Rrfdit4kEm9agJ+anPFjv6fKrx0iSdjtsiqQHsSlUZbEeXB20mQc+ON7+fFghP4ODZ3fBL79z+T3tNIOFT/QYMKnoiJvsHlZ6ff+Vv52wffg1ubUO9mggqtsejTIo+1XodOiVaR70olCOstdUywfNbhdyvH3x/enLrDhVahefjN6vLWUfdaFOezyhtxG9Jn/qwJ0lKqg2ibCCzLLdlc1OHhbLHKXxYSQ92OvWIKSxLUHnC4GyfhrJl29rzjGJc+dGePzpnv5nc2+xPF0vzsQoIIOETfQ0CUQkiMBxEuL968zdFaNUepNAEvXEI5A+L1FwEvNllnlVEIplGLJrWinFTR3fG7b2j9y9j6D8sJ4sbcDTKKktdwgfLxJoFbCkBcbmdXkKbragdY2+aUaeKOEuTNnlebEdptQjphS+WpYvksE8EOlhjlkTOiqrOuU8rkxZ1kuwrc/DByh63337Dfuado2bdpz0R4ifndyIDeQKWJDx+Pkp+eudHuy2qH+pajXaKa1OKdtdCGvny/NJ6MhrZOx1Riy5sOc+z+Q0K+T/428d5VqzGJ2gunptkdxLi9ILqon60aKJJfXQJ201h0sar7JJNozkRzHfV6odPRsqE086aOozX2KPXcZKmsNVRAnvq+mtR61Qv0WGyOzKmj9nEOhTzluTu2tttFogCfDI+Q09JxECKY/WYzh7+hW9yNM8ak6XBxGYXMq1s13NbrFMWJTYAdRyD4ciCI9f19OHZSRHO7cOdhX5w+3yvmGZnmG/vwmXb7T8za1NKW7aFJ65rre255fW41rtbVXWXm8a2JdXRNemmdOMMN7ql88xti/UjnuQ7IQV/c7t1GhLs0rHpO+PRUav9W+HnNvD+wzyA6m385H6WMFAUYpRO6nfufD3+/ONfxj4x34xNLHbKeT5JktySqb1bXbZWe5cknfVJmumypPTynbe//fX3L22XqIWO76139m/fHG3PZ+M023YxL5tXiok63yZV3sQQrM78Vpdmz5dheVIly6ZmV21W1SXH5sFu0kt1nkZXaDXXq+gXT5+QV3mWxFQpA9vFyWaz7WO/9RXNb37YPYZfCw7IK29e1KuEAQV1FARA/iHsfeEb4Sf+Di3Hj47nytpMShLiTjzIer6APh875wvPvfYuy9Hfpj84YxPKbHSaQ/uz92/SxPKMoVdr5QpZpA9TTCiEHHTaE5d21GEFy3EHfVIutrjbjhomN2n9d++c7Kuakgf3ex9TaQU6P7/cXDd9EuxybJbkjVAkpmeqEvrs6r91tLpstIOoSIVP7tMqBvKiREBYvp7earc//nf/6X899f73/kS7mSQAxEmlHTQKNjLdnM7uqL7XCWGfNSDT5kdfPXr2pG7X/eT6wc4oF4tIbVonKcTQXMCZxgu1X+egMduoZO3a/SUV8Dyp9Ma3oU1XZYQuqdf2YJqud9qqd6fXjW5jUSyzJd86f3CtKKbH+RPOJFEhmKq/bM4v4TXafXqGvwdSOKUdKrq6X4+agQnZQNQh7f+tty7V6j37fz6K+foX93bUjvJoy74N58tVZiYrBeWtaZMIIEJvWPfTFtM2eFFNknYzRhM6O3IQWYtcLltXVtLrbOIWZlaPdGDlbbBVXXWzPmHTwq/fupXwZKFWb11S7DCmxievKVKhz09Pm4ejA90e7sDZhSxOkhqaTLJVrM758GeeHcL25EEP3kJAgfiiXuWBAVCCFy89/Nv1oXQ/89Gf9Ho5/vv1hqvFghlL3PZBTZMm7xLwm0QpUJHKTm2oacgnYTLFNNX7pFAaay/9iCVZLeIZN9Eh2GqR3Ld+mvlVffRsC3obSNdJjNFd/rFpYe2HPzzeucDYZ9G8o9tuiUK8i2MY3a1+/1gfndONnWR0t5iV1FTT16vjovzzp7Z+tlyGLlDsMQy9PK968yFK1GiQKOoHx2577ekX5l8KmeVv6eayS1D1dVCyzcTYJo1KFVBDfP7hw6dpLHsecUuF4jxX4hz7MOpiwquoLq1/iCeuTWS8Ajx+7mFZp9ttV8Seu03/0J76dR/j9tXYcXrtM86EzVR2XPZRkRADQAWTuUqvj85bc/ykv5kn49n+ThHb+M5pWf2J77iwajvEbGiPGKO60tcIiMAqSBSOKvT/shsdp3n9l5K4uXnya2bSOmvRBSdJidhEDzS1vdo892Fzft6JUezSddzGgH6yRUiEJiMJmVOprqLzvNr6xhSa+3jB1dIYHfwquB3zpZ8s2t3uwRv7Kyroxl2egpo1u3E+vrgMeSy0QhWv75bje+PnPqtOtocpjk0K/fXffpxWfwWC46i7VkVCoqDgk/O9EhEUCYEiIkT/4f+x2NvGg+//JYDjW5e//jzHVUMYTCwU9ahTXYSWltvNadXIyVmMQaUhiUktEta7nZxH704pDWXvLJTu4O7urHq70s6opHXbGlKMS7OYSl19K7V5cv/9c22s7TpJb4wmsy5FErBLbELufR33p8Xs2vzxmtqjxRh76Pt0LZb/yfcfo2XvvHMcfWQShE/0tQYEZIAYFAjq5G89BKNXe93PsWzL8998XsV1jYDzMWonQNmU6dhvlk6F4PoHJ7HqxKc0N7FXZymXonyhWrdMxzK1E7eW/mC6fTdp2o9sp4g8LXJEWBCaQJtR3KfWz3auv3rrEKcjE/oezTSsMG4d9M+Pjsb7lI7unF4mvG0SYxc9f2zCXznbGITo64ajkkTD0Hj+xfiACAKhmEjArq//6p1RkDL7ylvJps6aX9lEWbUaUOktmxSK1Kx4+S5ZzDpP61Vl2RgIbYRRM2u8CZXt4pizdcX2lZFR2Rg+P6ZuerF8O2zrPlxOVt3FNhEVpjfncV9Zjbxjlx99vHZ2hKx5hy2jWK8v+rNHD+vDaTa6tj1KlfbhSVU9zPm/+506EPuq77sGAnhHQ6NR+pRiwRiCDiACIO5b/9v5oVG2+uO57hYT/r8vt/3C9VHCRiLMS7o8bo9mlkwL9akGDzZE0taO443GtLXOTR6D+OhZ969eEwyeJm+Vqxs76nhz0rajV3gd2iXZqpjszH2SwXS+rTbbdlXH3vaSQsq4zDVH6HBTPb1Us6Q4PPvw4vnp84tHJzb9K283AEH6vumcXPWoEoQX95mEIgCx4qAjCgJp+qu3vjLfyuzd/96/+yGdYfjVP2KnnfRUqzTRk9L3yWWRozJ5V0i7m7BOQmQOCi/o4brc3b8sRTd+3U/z1EyyjUzCOKvLB6ev/+R/PJ8BnB7gUX8rdiOdx2S0PU1TyPQze/r6xY5eR+5vU++xSrzKbT05TTI3oqQ8eW9/c1EF1rf/3K+KKAxdF/rGDT2WYWiXSC961ehh/zTK0KjPqX/j6f2be27/3T//1ZojzH6zeRrrot5YtkWimq3UxpToJR/n8+uZ1VsSjCli8U4AOV9T0ksSBNzq2VZRmqcZXPTm9R/5J/76dqoaFcgf5r/Rz5R0UczhvXt7mVsnbXSu9tpS6AIkPokYfa7tgavDctNjf2v57jqF9Ef/m78BjNz3zm27CMyMEUFY1It8gYUjgyCJ0sBahCEe/U8WtBvK/P2f+K9CcnN9/h3/vPDNJM3UCNvObHKCmkyui/3bOtUhj13coIpPrV+5bmtWBdodpben2yet2SeXTuY5bUd0l88K696gIuT7W6ijE3+ybPruMjWyj30enI3+tCYwbcte51kCsgtdQP9ELT8sAMyf/eJfIw8xdK5rfR8lUXTVt1ro6kAfkgy4CFYytB4UVub+v9q/c8LVfHXzW+vv71f2a4n4HaRZQXDplzLq9I5AYkoLW0tFh88aY6h4xlua7MwNRpM85/M+tTIxNjZMsWu19BdPD+6CGXXHBi4yc3izPdsu5/LZJq0+tscHcS99lp+//9NSZXeS5Nwjt2vCgEt1unnckoj5yx9+61pAlo5du+lYGIFBe6Bg4ov+VQhKRLFiEhAbBUQwyg//8r+2Zz+Ag/iDG+Hn3pXu679wsdpjji7vyDXptihyoyXjzYXHWQqPN66IPaqkhrDKdDAQxgtrziZ6uxPFBorleBXLvL/Y02Vui4+ytIwNn2xDkPXTgiGlsStD4/tz00E2tq65DF6Dxqgr+bA67sm09/8bv/1kz2GIPXeuCzx0kOYghBrwE76MCAioKCKALEoCsFDy0b+8Mz+k+qh7/BPrp121/Ntn87chib52up9hujvXbtlujp5uFuzaOigbgRfOKUmrvsPekZ2MZa6a0GRk097m6WS65mRHe96sw2uQaj5MXTzehoPVZWF12yWsVR6Tu8rmE+ifXbbgES1drh+vn3TA/ov/1H90mcfo28bVTd32AowAnlEjR5YX9R1EEAEZOior9qgZIUT9e7/6T6zMd2MGX/+Ru1/faHgf3ljtcFdKL5AmSb9ubT9ZOZCwzrfSb67VkHUA/aqQRCsXwk6CXZt5DjEJM7a8CSpFr8z0UT27eauv50WfddPNgxucvj+TdOuKyx01e5hHpsRXXXbJ8y0drWX7cIspqj9++G8eBGQXuPeu7wWQVRAChAioGV/0t1Qy9BdDYhCkiAZYMajg/9Q/82h99jCJ3Wt7/4eqzTf5j6ezCUl5gmEv3YSFTaXDxXS/3ulrenaHvaZWPz7g64dJr/tEbOdXPSdpytGoqBbbNH7sDqflSSXjg/GmGLuTs/D+4nOHToniS73njfdrUyY2q1pq1k+p3Ip6foEkyf4vP/neKED07ILrgxsaWmKQxEc1AKOu6gdXXW5JrvpBIgMGIM/F32n+29PNvU2dvPf8L/2H74v1v7b7xii5vljumSQ6eXxHlHLt6DLtUfrVJBPHyEU/6alL+6w3rVXTzjPbpnSS99p0NGmKPm+0Tx5dP4DWlOfJ/XRDO+QktH4fUNun7s0gtRjln47M930LjpS//rX7f8dnHQb2PrSxH2gxDIDgWEdk4z9puKEjDh37MF51t8WhgySY5iv/ffvsWXeK/tbO3/19mwfc3PtM7trX9CyG5fuT3FeLg1c5t671jy+vz9201UtKrs1HwQYC9jm1tehR61VSB9xWqlpOS133/Uyj7GacPm/46CHu3ErgdNG9lrB9six/ZDEKsMZH9vnHJtGO/c4bP/XhNyYtcgwh9r6PMCwdYUQmAGIVlLxo2Gl4uAGEPKBjgAeaAzJpGv8L144euU2T5De/9+sEo+RCT/b1mwWMVV9/6GNXvs7TxHXg36XwBScaF3GvvC2GmZXDpOCqy22nK1f7bBPHp8d3QHOj15kJs7A/3p7E9OMPrR4txtceFztus165vVdRcWxPH22TrLeh/MrNze/XpaPoI/s+9jJQl4SE4Qr1hUKf9CfXPLScvwKEMCKy6KEVNqf8z3/56PxytSnrL6z+ZtUptb+M8SfulmCwV5dME4axaRu1OK4OD2JG7bosJ7u59xa6ts/NDCsl5DaNt1IXFX20sxfBlU/bkU043u5c67ff+Mxju3/9cv3cubxPz3G821LbrjUpSg8+P3v3/PHNliQEjn3s48DlwcEowAGENJB4BnuENQgA44vbdF5HUEPnYjb0o/9MWHx47mg+s3//m5mnvcvi9JWfKiXT3hEEM8nPW6hOXZjdbQXdZi8t7vQpQ4NLF4tst83X1jzvOgUxq7rjWZakZtWsO/WZixHlvZO2Xfg31XffYbQ2kqbaUehKi5NdKnb92bIB5SkGjj64wCAUkbVEkgEcA6JYiPFq/SCSDBt0wCSKBRCRKV7x15J2Z/cv3Tl6r/O+vDX99q+yGa20F/3ze2R1okPMKWzq7olWiZ31ZVjoOd+ZSsgCnMaNGLUzgRBw26zFWofmB9M9pjRb9rOvH9xgkJjKD/xX6eFvLV7tWtvaLMQW9eTgYDdPm9PLo9nc/I4BCZHZuxAZBTHSAO4AigMTRYCRrvrDIpK8YB1dYapQiEGUACCi8Tb70z978mjVrtObzfj/ushKJg90960s2DRPNa+r/mmjElUaZbbbHateS1D3xNVzExttr48Uy/qcF1mm2X0834s09qtR/OHJ3f1o+nWb3Durfz1TpG06w5QLW+xCDuvVUxJwb26vX/46SOTgQ4hXLXxVAMSoRADUgIZCRhn0juCA2EK5wkcwCaB60dkfe3T8f7Jfk4QfQ8Tif/7X3l4XMure+Mbxl641TZfnYjSUwUlSOG7WO+M4LysVLDXOtgB6zffG0oe8L1YjDq5IO5O5cVDZvacfPr7jsqo5+5atrN59bZbsheNb7TiKM3X1/NnknA9f2T84+X5rAwcfgwDrgMDKawZUAiqSIA8QKHzBk1AwQA/gqgk+DjwAgMHZDZ77p/5iffRBh9Dfv/XxrxwVxTx/2Kr7d+dKZQlsA18iJCasNzt7OrnFlS9LXV9sQTbNHtwu21CcBXd5cU2vsRx1RaDCT77/vXv5ZXyykiqd5G+8nkPQ2IpM63SVPX54Op+Mrs33jt9/u1qqUYw+RgAhHviDAwJq6DwuKAO06lN7kJi1yGDmAEq6GlgQRjRBw/2/+MriydvjoxHceO3bv9on06a8CNPPXEuNzjoQ5z3V0EV9A3duLjZik2m/vlTN810p7+oQW2zgcvlg0h1cT5NorQ9P/Xzx8F3OMxrPP3dNtqB0HLWMUT17/NS+vmuy29vvP3wIlYmsTPSDVxuaHLACHuhIhHxFh2H8xJ6hRYXIgKADEUBWIEIgURGLiQDx8Bd/cvwPttn6VC/u3vzg2804GW0v4Yv3p76ImcRt7CWMtDJ8nzYbl5qDsFpidXRLdgsd6kitWi2WVTcvR3lIpX1eQXdE1lSvfX46ryBomUmrtunR5Ufm+m6yV9bPPny49Ep5VsgC8gJohi/62V5h71RQrIbywWAPXVF9GAcMHjIRRmLCSFd8L1GMSt/9c198pzleXVxrjm+89vY3fKGyRX33C/OxswKuUURRCipm5sLViRzm5+dUPf5cTPbWznbEAZ82hRtvLdab7mKlO1tM891rn1l7hVg0wpg9f3K+uPYZt7+7OX3/o/NZjQIsaMS9CJAiQJGYRHRQIqKDGkhnAx1OX4kbkAFUJYQgFGhQpyoMTE0gQBREPfqFP714sF5hy8vVF+6898OHOMrOzWduzCg13Pgk0VF0Nua2ddFmtvfN08sv9ybFHqOWdXKx6fp1VyehN3qfzGw3m8MoxAxFah9OF8+SuTm8u5x9ePzRZW9NRxEZEZ0CFQUFCBmFSeBFBirDtBtohHw13+iKgTXQQnEA/w3gO2IkZtSRQHNEI1/48zcfPLj18eqyrOjuQffwvVUVYbR//wbzSWr3YxZVUNRz2qsEWgl978pUh66vCUf8Bx/TCPxk3e7nkzHdTVU117EeXSSpP/7dHcOvutt7i/p3m4+0brMeRLEKrFhFEsXyosF4BBlgH1cYUy38gi73Qu8QD3A2AQQ2ElGGDtOsBAiiAgARzaA5+7M/vfx2eVm3wdVpYXYnHzxcRNuOrxUOx7NZmYLr04DkKPcGLz/AwzMYFbY3ff/4A5tOz3kM9/1YbsxHbq0jU6KPPu7tFg939CiUZx9+vGFJHEnQEkVHFEFWgCyIkRAgvgDcoSAjDUjB4b52/FS/DXfoGAEGaJkAKCZhUBEBQQC0UBSNKrzxz+68e7JuHunURrcqvnBw8YMPzzLsjInlmMaTgxmDxGyxW0daPA+VsVkV6+0iNQfncFfXo/l9vqblMkg2r9bH1cfdK7PKHEwodn/wuHJlqzwoFmaKKioA5KEdYlAiOrLGASfzIl4S4wDQQHhhjwBGBYxXHLWBtYg4gHQRGVAQ1JCsE/L0a3+mvvh7K2NtDun2gm/dOvzo3bOlrggQlFazyVhtRaOvL1d5b4u2dylqe5NHm9vrSfnq6JxSgbbCJ/6Ziq+oVMF47/lH5+dnRkeRSAQRKCCKKJSAOMiWKwYIYhw4NAJAzDSwSEng5XiKQ3v1AUyowhVgE0EGYiCCKFbCSliMKHrjz375X32W5FRYm0h74pdfe0UfLU7q5abxQSnLENNacyym6FwHOxPJ5f5mVu9Pb8qyNtMVPH/cbGFa5O3Y5tea5cl7a94mqgftATmJnkRFGigDAxmQAqvhLD8KMgwQTgB84cOJReil+DN8eZSBIzNMUOABN6leiG/FogBBmexLH1tMdEoja9emkot+9+7t/WZ1fh6W7JraM8YUqIBJsScHnY9ZjmpCwVT7R2Zd/u4iS25dlqqY5Nnl9p3TU8xrMSEqVgEZkQewng5qIOhoHvgKEIkCgY6CIBSu6jkDjlUAP8l/8Mq385UfucI+MaCYyCgqXpkoJopm09t0TonW1lpjlOlpk8ry5LWDNzPvNtLrpnBdeTK9FXRXWd31E3QyJy9hZf/+OfLPPxvHSe731PrR5vHj1LNSMSqBqEWcBlSOtNfAyEIRESMgDjoMBFEwoOIhPYMhyDAga4n6RTwdpMCA/CNAuCI6wxWYMhKIyFBnBBCjgkwzsjqhVFvQihJGLd2i6bS+uz9PEpe42PYJNoZ46qYrnPpWheob5/N449ZluX1lt98sz54/6SqXA8YoAlFzRATFgiKiI6E3wXDEq72coSMnDCWOq+DyAhktCKyQX+wHqwEvCzRAZwUFBwpjJKGoRXlUwIAQtciAQaQ8VQmlKqEEFCqFCaAYRcFtN5kJO+P5nOeBpx03K/e4O+t73X7ldw/vCx28ukrb5cfvX6yg6IuFYcJgRGT4qhQUi6Ag8oCXvgJHoqBioeFIgaiBgiVIMkweGGLslT/QACIDhQpEDcNKwoADzxIZBwjwJ7oJEFWCBaWUowUrBsAIUiIIqdJiLuKWV1ldZg2asDAzgumoHp1lU3yF4qNHD2tfowGHjCoMgR0QrqBLV+BB1kwRUFgNsCYEAIgKrlb3QC0XAcUIKsCAYfpEH9BAnQHGQVAgCAEDQQQlGBEGZDgBAwWFAgKkLJaYKwsGrIAGIS1gMgEiQGgTTShBL1Lps73TW+Haxa3m5uLd713UneioOhAFCnogNJ7iFbIXmBgQCCUo8gj4SeSUAUgZdCTREUTFgW8OcahVC6tP5pvmgfiJYSAeIQ9E3BcU7gE3Q8iCOFBDKCIgKmVTnaAFC2AEUIuoBBkMqiKb9RSl7ous6Pd4SpK0x8/e/yCyET8Am69YjQARZYB3AKInAaJAMNBXCDwSy4DNvcIxKxEQzXFg3hJEEhS8gjPqT9CAMCCymAkEEICJGFCQghIBViKa5YqvqvhFHZ8SnWhMBBIBMizKMCAHu/v5nRkUbQCwJvbb7emj5uNN9HkTNQQi4SFBAVBRBjACgiAGJFaRWBSyEArTUGYjYEKvgJEiaYfktfZXfeuGARQldKVHUQsM9VIEiDiQ5gd3D1e44ytgvSDxsM5EhIZJD0ZZA5IDkBHWCQGAt5Ob0WmK5bZpcL103aUoxRhFkSPQISqKGj2IiiqQEmG6wnWJGviRAIQSkSRccbQFlAACAw5kMGEjIldQ7itG7JU9pKKg6DDwmTASRtFXbCYBVhCSiAOyafA1goKE/AJqT4ozAqBMRKWIFJpNHW0QVEFnjqQxOiJSR6I9ILIaMN4MKDQwvonF9IYR2EbBCBQVeUDba/RqqLUBDV5rgMrxFSwXQRQAiygmUUP+Q4N7vGrrAAIYdRx45y+Yz4ARX6DmKRIT8dWC/IR2DZAKSGoQDPTetQFpqCINHEwRAqGoh4UTESkSg0IeQEV8hV5nGmIcQKSh4oQiBCiDbx7KHMAMAzEeWQSZWOFAiB7sIUGISoRYNF9deBxCK6tIJEwREURUJB0GGc5XGZPmF49sEEwGgFKO0UlEUFf5FhCAMIh1SpDi8CV1RIykIogiTyCshm8ddCAZfDOQiGJGpivgLigGYmBFwkxAkQS0J+GBTn9lj0ImwEBCIvSikgpCjIOQMFFkQDkPCORBfwyqVQZV9Cn1YMCKsQgNpCpWrIMKmlldIeRQmEQF4wckHDGyiUPVhogRIwkCD7R3JS+oXsPeB1BkUMQUBWiItlc7CKyj0LC/zUAgngRBiK7qCi+Y9yigguDAJyaKSAjASgkDD9pVAwEQ4BBtRUQCM6ACjBIFNSqhoIUoCgszEKMCBAhDokKkkIAAJQUgJhW1YATSIBpxAJkhRwESUiAspCgyE6HYQYOCiCBSNPhJ/eCKZXalQkEGUu0L/ivx4AUG2iUNikENbGlARqBIcEW3vdKIEVFwIHPLAD/WEQWp5C3C8AXgqjQhgNEEIOKoKRBQUAwiww04wau6gKhIGMxwkEXFTxQ1kCAGACSGFzxkJAFREJWIDIMogBRJgOILMK0QXlXsXyRSeLWdhwKIMtC/kQEHcKRccRJ1AKBh8wVK1P1WIVM0kYRZAULUEaNGYVLUEzKTaGcoIggEG3QAEoRICMgEEUjkqtAzuMWhjgMACJH45XoVDsqIBRGAaShiw2DcEK0QVAQVQK4YKIjy8o4EYJSBezeU/Qe+54BZQ+ArcuLAtUMQBBJWTJGEgmIdVUAgGZ6WJ1Je8YD+lQEkqwAwpB6vYtUgshULIUocyIf4hwB0g9vVUYivSg4UEJkYBYf5d7V7BAPRZWD3Igsig2I2ckV8jySgGAVY9PDYhu8wCChWwsNmGdsIIMCgmRGFhCKQqACiyOuARMICCBgVBsVIAkzxijQJFAbQcSBAvqLH/sP2vGSZIA7R40WYQVE8JER8Fd5QWPFVbBAVAFkzCsmAfR9ww4hXaHvAIZfnYRtw+K2QqKCQgSgg60giTMQgQy94ESVBQ7zSY8hAMFgwMLphSCeuijisw3++PX/ItP/n/3x11QYG6BMKMYmAjooZRQViisMuBQ6kbYxIKMiCQopBGFQkHUAEUQemoVbBiFdRVBCEgRCiwojK60DAxgNGLUJDnonxKnEdbP0vZM//Z69P1+JQiuEXgn9QJzBU0QRAMZsIwAiiQIYFjkPYFBUVxCvAoYCAcZqHIM8ICEyAABiutqjkRdSjfwT2/OEhlP+cwYUrHPB/wf+B//C/4gsl+odn0T9ie/6xv+j/v8yB/wcDd61Gt+kYHwAAAABJRU5ErkJggg==;rotation=-90;" vertex="1" parent="1">
          <mxGeometry x="554.51" y="40.71000000000001" width="100" height="83.57" as="geometry" />
        </mxCell>
        <mxCell id="JT29bU-KKxfSDwlyNfCX-79" value="" style="group;" vertex="1" connectable="0" parent="1">
          <mxGeometry x="91.51" y="163.5" width="471" height="65" as="geometry" />
        </mxCell>
        <mxCell id="JT29bU-KKxfSDwlyNfCX-42" value="" style="shape=cube;whiteSpace=wrap;html=1;boundedLbl=1;backgroundOutline=1;darkOpacity=0.05;darkOpacity2=0.1;rotation=0;fillColor=#008a00;strokeColor=#005700;fontColor=#ffffff;" vertex="1" parent="JT29bU-KKxfSDwlyNfCX-79">
          <mxGeometry x="40.41054020140921" width="30.30790515105691" height="65" as="geometry" />
        </mxCell>
        <mxCell id="JT29bU-KKxfSDwlyNfCX-44" value="" style="shape=cube;whiteSpace=wrap;html=1;boundedLbl=1;backgroundOutline=1;darkOpacity=0.05;darkOpacity2=0.1;rotation=0;fillColor=#ffcd28;strokeColor=#d79b00;gradientColor=#ffa500;" vertex="1" parent="JT29bU-KKxfSDwlyNfCX-79">
          <mxGeometry x="101.02635050352303" width="30.30790515105691" height="65" as="geometry" />
        </mxCell>
        <mxCell id="JT29bU-KKxfSDwlyNfCX-41" value="" style="edgeStyle=orthogonalEdgeStyle;rounded=0;orthogonalLoop=1;jettySize=auto;html=1;" edge="1" parent="JT29bU-KKxfSDwlyNfCX-79" source="JT29bU-KKxfSDwlyNfCX-42" target="JT29bU-KKxfSDwlyNfCX-44">
          <mxGeometry relative="1" as="geometry" />
        </mxCell>
        <mxCell id="JT29bU-KKxfSDwlyNfCX-45" value="" style="group" vertex="1" connectable="0" parent="JT29bU-KKxfSDwlyNfCX-79">
          <mxGeometry x="161.64216080563685" width="60.61581030211382" height="65" as="geometry" />
        </mxCell>
        <mxCell id="JT29bU-KKxfSDwlyNfCX-46" value="" style="shape=cube;whiteSpace=wrap;html=1;boundedLbl=1;backgroundOutline=1;darkOpacity=0.05;darkOpacity2=0.1;fillColor=#1ba1e2;strokeColor=#006EAF;fontColor=#ffffff;" vertex="1" parent="JT29bU-KKxfSDwlyNfCX-45">
          <mxGeometry width="50.51317525176152" height="65" as="geometry" />
        </mxCell>
        <mxCell id="JT29bU-KKxfSDwlyNfCX-47" value="&lt;font style=&quot;font-size: 26px&quot;&gt;B&lt;/font&gt;" style="text;html=1;strokeColor=none;fillColor=none;align=center;verticalAlign=middle;whiteSpace=wrap;rounded=0;" vertex="1" parent="JT29bU-KKxfSDwlyNfCX-45">
          <mxGeometry x="15.153952575528455" y="32.5" width="45.461857726585365" height="17.0625" as="geometry" />
        </mxCell>
        <mxCell id="JT29bU-KKxfSDwlyNfCX-43" value="" style="edgeStyle=orthogonalEdgeStyle;rounded=0;orthogonalLoop=1;jettySize=auto;html=1;" edge="1" parent="JT29bU-KKxfSDwlyNfCX-79" source="JT29bU-KKxfSDwlyNfCX-44" target="JT29bU-KKxfSDwlyNfCX-46">
          <mxGeometry relative="1" as="geometry" />
        </mxCell>
        <mxCell id="JT29bU-KKxfSDwlyNfCX-48" value="" style="group" vertex="1" connectable="0" parent="JT29bU-KKxfSDwlyNfCX-79">
          <mxGeometry x="242.4632412084553" width="55.56449277693767" height="65" as="geometry" />
        </mxCell>
        <mxCell id="JT29bU-KKxfSDwlyNfCX-49" value="" style="shape=cube;whiteSpace=wrap;html=1;boundedLbl=1;backgroundOutline=1;darkOpacity=0.05;darkOpacity2=0.1;fillColor=#1ba1e2;strokeColor=#006EAF;fontColor=#ffffff;" vertex="1" parent="JT29bU-KKxfSDwlyNfCX-48">
          <mxGeometry width="50.51317525176152" height="65" as="geometry" />
        </mxCell>
        <mxCell id="JT29bU-KKxfSDwlyNfCX-50" value="&lt;font style=&quot;font-size: 26px&quot;&gt;B&lt;/font&gt;" style="text;html=1;strokeColor=none;fillColor=none;align=center;verticalAlign=middle;whiteSpace=wrap;rounded=0;" vertex="1" parent="JT29bU-KKxfSDwlyNfCX-48">
          <mxGeometry x="15.153952575528455" y="33.3125" width="40.41054020140921" height="16.25" as="geometry" />
        </mxCell>
        <mxCell id="JT29bU-KKxfSDwlyNfCX-51" value="" style="endArrow=classic;html=1;exitX=0.75;exitY=0;exitDx=0;exitDy=0;" edge="1" parent="JT29bU-KKxfSDwlyNfCX-79">
          <mxGeometry width="50" height="50" relative="1" as="geometry">
            <mxPoint x="211.90277018113954" y="32.5" as="sourcePoint" />
            <mxPoint x="243.47350471349054" y="32.5" as="targetPoint" />
          </mxGeometry>
        </mxCell>
        <mxCell id="JT29bU-KKxfSDwlyNfCX-52" value="" style="group" vertex="1" connectable="0" parent="JT29bU-KKxfSDwlyNfCX-79">
          <mxGeometry x="324.54715099256777" width="55.56449277693767" height="65" as="geometry" />
        </mxCell>
        <mxCell id="JT29bU-KKxfSDwlyNfCX-53" value="" style="shape=cube;whiteSpace=wrap;html=1;boundedLbl=1;backgroundOutline=1;darkOpacity=0.05;darkOpacity2=0.1;fillColor=#1ba1e2;strokeColor=#006EAF;fontColor=#ffffff;" vertex="1" parent="JT29bU-KKxfSDwlyNfCX-52">
          <mxGeometry width="50.51317525176152" height="65" as="geometry" />
        </mxCell>
        <mxCell id="JT29bU-KKxfSDwlyNfCX-54" value="&lt;font style=&quot;font-size: 26px&quot;&gt;B&lt;/font&gt;" style="text;html=1;strokeColor=none;fillColor=none;align=center;verticalAlign=middle;whiteSpace=wrap;rounded=0;" vertex="1" parent="JT29bU-KKxfSDwlyNfCX-52">
          <mxGeometry x="15.153952575528455" y="33.3125" width="40.41054020140921" height="16.25" as="geometry" />
        </mxCell>
        <mxCell id="JT29bU-KKxfSDwlyNfCX-55" value="" style="endArrow=classic;html=1;exitX=0.75;exitY=0;exitDx=0;exitDy=0;" edge="1" parent="JT29bU-KKxfSDwlyNfCX-79">
          <mxGeometry width="50" height="50" relative="1" as="geometry">
            <mxPoint x="293.98667996525205" y="32.5" as="sourcePoint" />
            <mxPoint x="325.55741449760296" y="32.5" as="targetPoint" />
          </mxGeometry>
        </mxCell>
        <mxCell id="JT29bU-KKxfSDwlyNfCX-56" value="" style="shape=cube;whiteSpace=wrap;html=1;boundedLbl=1;backgroundOutline=1;darkOpacity=0.05;darkOpacity2=0.1;rotation=0;fillColor=#008a00;strokeColor=#005700;fontColor=#ffffff;" vertex="1" parent="JT29bU-KKxfSDwlyNfCX-79">
          <mxGeometry x="404.10540201409214" width="30.30790515105691" height="65" as="geometry" />
        </mxCell>
        <mxCell id="JT29bU-KKxfSDwlyNfCX-57" value="" style="endArrow=classic;html=1;entryX=0.067;entryY=0.488;entryDx=0;entryDy=0;entryPerimeter=0;" edge="1" parent="JT29bU-KKxfSDwlyNfCX-79" target="JT29bU-KKxfSDwlyNfCX-56">
          <mxGeometry width="50" height="50" relative="1" as="geometry">
            <mxPoint x="373.79749686303524" y="31.687499999999996" as="sourcePoint" />
            <mxPoint x="191.95006595669375" y="105.62499999999999" as="targetPoint" />
          </mxGeometry>
        </mxCell>
        <mxCell id="JT29bU-KKxfSDwlyNfCX-58" value="" style="endArrow=classic;html=1;entryX=-0.067;entryY=0.513;entryDx=0;entryDy=0;entryPerimeter=0;" edge="1" parent="JT29bU-KKxfSDwlyNfCX-79">
          <mxGeometry width="50" height="50" relative="1" as="geometry">
            <mxPoint y="32.5" as="sourcePoint" />
            <mxPoint x="41.410701071393866" y="32.53249999999997" as="targetPoint" />
          </mxGeometry>
        </mxCell>
        <mxCell id="JT29bU-KKxfSDwlyNfCX-59" value="" style="endArrow=classic;html=1;entryX=0.5;entryY=0;entryDx=0;entryDy=0;" edge="1" parent="JT29bU-KKxfSDwlyNfCX-79" source="JT29bU-KKxfSDwlyNfCX-56">
          <mxGeometry width="50" height="50" relative="1" as="geometry">
            <mxPoint x="404.10540201409214" y="146.25" as="sourcePoint" />
            <mxPoint x="471.0000000000001" y="31.91906249999997" as="targetPoint" />
          </mxGeometry>
        </mxCell>
        <mxCell id="JT29bU-KKxfSDwlyNfCX-81" value="" style="group" vertex="1" connectable="0" parent="1">
          <mxGeometry x="93.51" y="252.5" width="469.21500000000015" height="45" as="geometry" />
        </mxCell>
        <mxCell id="JT29bU-KKxfSDwlyNfCX-61" value="" style="shape=cube;whiteSpace=wrap;html=1;boundedLbl=1;backgroundOutline=1;darkOpacity=0.05;darkOpacity2=0.1;rotation=0;fillColor=#008a00;strokeColor=#005700;fontColor=#ffffff;" vertex="1" parent="JT29bU-KKxfSDwlyNfCX-81">
          <mxGeometry x="40.257391975805156" width="30.193043981853865" height="45" as="geometry" />
        </mxCell>
        <mxCell id="JT29bU-KKxfSDwlyNfCX-63" value="" style="shape=cube;whiteSpace=wrap;html=1;boundedLbl=1;backgroundOutline=1;darkOpacity=0.05;darkOpacity2=0.1;rotation=0;fillColor=#ffcd28;strokeColor=#d79b00;gradientColor=#ffa500;" vertex="1" parent="JT29bU-KKxfSDwlyNfCX-81">
          <mxGeometry x="100.6434799395129" width="30.193043981853865" height="45" as="geometry" />
        </mxCell>
        <mxCell id="JT29bU-KKxfSDwlyNfCX-60" value="" style="edgeStyle=orthogonalEdgeStyle;rounded=0;orthogonalLoop=1;jettySize=auto;html=1;" edge="1" parent="JT29bU-KKxfSDwlyNfCX-81" source="JT29bU-KKxfSDwlyNfCX-61" target="JT29bU-KKxfSDwlyNfCX-63">
          <mxGeometry relative="1" as="geometry" />
        </mxCell>
        <mxCell id="JT29bU-KKxfSDwlyNfCX-64" value="" style="group" vertex="1" connectable="0" parent="JT29bU-KKxfSDwlyNfCX-81">
          <mxGeometry x="161.02956790322062" width="60.38608796370773" height="45" as="geometry" />
        </mxCell>
        <mxCell id="JT29bU-KKxfSDwlyNfCX-65" value="" style="shape=cube;whiteSpace=wrap;html=1;boundedLbl=1;backgroundOutline=1;darkOpacity=0.05;darkOpacity2=0.1;fillColor=#1ba1e2;strokeColor=#006EAF;fontColor=#ffffff;" vertex="1" parent="JT29bU-KKxfSDwlyNfCX-64">
          <mxGeometry width="50.32173996975645" height="45" as="geometry" />
        </mxCell>
        <mxCell id="JT29bU-KKxfSDwlyNfCX-66" value="&lt;font style=&quot;font-size: 26px&quot;&gt;B&lt;/font&gt;" style="text;html=1;strokeColor=none;fillColor=none;align=center;verticalAlign=middle;whiteSpace=wrap;rounded=0;" vertex="1" parent="JT29bU-KKxfSDwlyNfCX-64">
          <mxGeometry x="14.090087191531804" y="28.5" width="45.2895659727808" height="11.8125" as="geometry" />
        </mxCell>
        <mxCell id="JT29bU-KKxfSDwlyNfCX-62" value="" style="edgeStyle=orthogonalEdgeStyle;rounded=0;orthogonalLoop=1;jettySize=auto;html=1;" edge="1" parent="JT29bU-KKxfSDwlyNfCX-81" source="JT29bU-KKxfSDwlyNfCX-63" target="JT29bU-KKxfSDwlyNfCX-65">
          <mxGeometry relative="1" as="geometry" />
        </mxCell>
        <mxCell id="JT29bU-KKxfSDwlyNfCX-67" value="" style="group" vertex="1" connectable="0" parent="JT29bU-KKxfSDwlyNfCX-81">
          <mxGeometry x="241.54435185483092" width="55.35391396673209" height="45" as="geometry" />
        </mxCell>
        <mxCell id="JT29bU-KKxfSDwlyNfCX-68" value="" style="shape=cube;whiteSpace=wrap;html=1;boundedLbl=1;backgroundOutline=1;darkOpacity=0.05;darkOpacity2=0.1;fillColor=#1ba1e2;strokeColor=#006EAF;fontColor=#ffffff;" vertex="1" parent="JT29bU-KKxfSDwlyNfCX-67">
          <mxGeometry width="50.32173996975645" height="45" as="geometry" />
        </mxCell>
        <mxCell id="JT29bU-KKxfSDwlyNfCX-69" value="&lt;font style=&quot;font-size: 26px&quot;&gt;B&lt;/font&gt;" style="text;html=1;strokeColor=none;fillColor=none;align=center;verticalAlign=middle;whiteSpace=wrap;rounded=0;" vertex="1" parent="JT29bU-KKxfSDwlyNfCX-67">
          <mxGeometry x="16.10295679032206" y="28.0625" width="40.257391975805156" height="11.25" as="geometry" />
        </mxCell>
        <mxCell id="JT29bU-KKxfSDwlyNfCX-70" value="" style="endArrow=classic;html=1;exitX=0.75;exitY=0;exitDx=0;exitDy=0;" edge="1" parent="JT29bU-KKxfSDwlyNfCX-81">
          <mxGeometry width="50" height="50" relative="1" as="geometry">
            <mxPoint x="211.0996991731283" y="22.5" as="sourcePoint" />
            <mxPoint x="242.55078665422607" y="22.5" as="targetPoint" />
          </mxGeometry>
        </mxCell>
        <mxCell id="JT29bU-KKxfSDwlyNfCX-71" value="" style="group" vertex="1" connectable="0" parent="JT29bU-KKxfSDwlyNfCX-81">
          <mxGeometry x="323.31717930568516" width="55.35391396673209" height="45" as="geometry" />
        </mxCell>
        <mxCell id="JT29bU-KKxfSDwlyNfCX-72" value="" style="shape=cube;whiteSpace=wrap;html=1;boundedLbl=1;backgroundOutline=1;darkOpacity=0.05;darkOpacity2=0.1;fillColor=#1ba1e2;strokeColor=#006EAF;fontColor=#ffffff;" vertex="1" parent="JT29bU-KKxfSDwlyNfCX-71">
          <mxGeometry width="50.32173996975645" height="45" as="geometry" />
        </mxCell>
        <mxCell id="JT29bU-KKxfSDwlyNfCX-73" value="&lt;font style=&quot;font-size: 26px&quot;&gt;B&lt;/font&gt;" style="text;html=1;strokeColor=none;fillColor=none;align=center;verticalAlign=middle;whiteSpace=wrap;rounded=0;" vertex="1" parent="JT29bU-KKxfSDwlyNfCX-71">
          <mxGeometry x="17.10939158971719" y="28.0625" width="40.257391975805156" height="11.25" as="geometry" />
        </mxCell>
        <mxCell id="JT29bU-KKxfSDwlyNfCX-74" value="" style="endArrow=classic;html=1;exitX=0.75;exitY=0;exitDx=0;exitDy=0;" edge="1" parent="JT29bU-KKxfSDwlyNfCX-81">
          <mxGeometry width="50" height="50" relative="1" as="geometry">
            <mxPoint x="292.87252662398254" y="22.5" as="sourcePoint" />
            <mxPoint x="324.32361410508025" y="22.5" as="targetPoint" />
          </mxGeometry>
        </mxCell>
        <mxCell id="JT29bU-KKxfSDwlyNfCX-75" value="" style="shape=cube;whiteSpace=wrap;html=1;boundedLbl=1;backgroundOutline=1;darkOpacity=0.05;darkOpacity2=0.1;rotation=0;fillColor=#008a00;strokeColor=#005700;fontColor=#ffffff;" vertex="1" parent="JT29bU-KKxfSDwlyNfCX-81">
          <mxGeometry x="402.5739197580516" width="30.193043981853865" height="45" as="geometry" />
        </mxCell>
        <mxCell id="JT29bU-KKxfSDwlyNfCX-76" value="" style="endArrow=classic;html=1;entryX=0.067;entryY=0.488;entryDx=0;entryDy=0;entryPerimeter=0;" edge="1" parent="JT29bU-KKxfSDwlyNfCX-81" target="JT29bU-KKxfSDwlyNfCX-75">
          <mxGeometry width="50" height="50" relative="1" as="geometry">
            <mxPoint x="372.38087577619774" y="21.9375" as="sourcePoint" />
            <mxPoint x="191.22261188507449" y="73.125" as="targetPoint" />
          </mxGeometry>
        </mxCell>
        <mxCell id="JT29bU-KKxfSDwlyNfCX-77" value="" style="endArrow=classic;html=1;entryX=-0.067;entryY=0.513;entryDx=0;entryDy=0;entryPerimeter=0;" edge="1" parent="JT29bU-KKxfSDwlyNfCX-81">
          <mxGeometry width="50" height="50" relative="1" as="geometry">
            <mxPoint y="22.5" as="sourcePoint" />
            <mxPoint x="41.25376242720611" y="22.52249999999998" as="targetPoint" />
          </mxGeometry>
        </mxCell>
        <mxCell id="JT29bU-KKxfSDwlyNfCX-78" value="" style="endArrow=classic;html=1;entryX=0.5;entryY=0;entryDx=0;entryDy=0;" edge="1" parent="JT29bU-KKxfSDwlyNfCX-81" source="JT29bU-KKxfSDwlyNfCX-75">
          <mxGeometry width="50" height="50" relative="1" as="geometry">
            <mxPoint x="402.5739197580516" y="101.25" as="sourcePoint" />
            <mxPoint x="469.2150000000002" y="22.097812499999982" as="targetPoint" />
          </mxGeometry>
        </mxCell>
        <mxCell id="JT29bU-KKxfSDwlyNfCX-82" value="" style="group" vertex="1" connectable="0" parent="1">
          <mxGeometry x="91.51" y="42.5" width="430" height="80" as="geometry" />
        </mxCell>
        <mxCell id="JT29bU-KKxfSDwlyNfCX-1" value="" style="shape=cube;whiteSpace=wrap;html=1;boundedLbl=1;backgroundOutline=1;darkOpacity=0.05;darkOpacity2=0.1;rotation=0;fillColor=#008a00;strokeColor=#005700;fontColor=#ffffff;" vertex="1" parent="JT29bU-KKxfSDwlyNfCX-82">
          <mxGeometry x="40" width="30" height="80" as="geometry" />
        </mxCell>
        <mxCell id="JT29bU-KKxfSDwlyNfCX-2" value="" style="shape=cube;whiteSpace=wrap;html=1;boundedLbl=1;backgroundOutline=1;darkOpacity=0.05;darkOpacity2=0.1;rotation=0;fillColor=#ffcd28;strokeColor=#d79b00;gradientColor=#ffa500;" vertex="1" parent="JT29bU-KKxfSDwlyNfCX-82">
          <mxGeometry x="100" width="30" height="80" as="geometry" />
        </mxCell>
        <mxCell id="JT29bU-KKxfSDwlyNfCX-6" value="" style="edgeStyle=orthogonalEdgeStyle;rounded=0;orthogonalLoop=1;jettySize=auto;html=1;" edge="1" parent="JT29bU-KKxfSDwlyNfCX-82" source="JT29bU-KKxfSDwlyNfCX-1" target="JT29bU-KKxfSDwlyNfCX-2">
          <mxGeometry relative="1" as="geometry" />
        </mxCell>
        <mxCell id="JT29bU-KKxfSDwlyNfCX-11" value="" style="group" vertex="1" connectable="0" parent="JT29bU-KKxfSDwlyNfCX-82">
          <mxGeometry x="160" width="60" height="80" as="geometry" />
        </mxCell>
        <mxCell id="JT29bU-KKxfSDwlyNfCX-7" value="" style="shape=cube;whiteSpace=wrap;html=1;boundedLbl=1;backgroundOutline=1;darkOpacity=0.05;darkOpacity2=0.1;fillColor=#1ba1e2;strokeColor=#006EAF;fontColor=#ffffff;" vertex="1" parent="JT29bU-KKxfSDwlyNfCX-11">
          <mxGeometry width="50" height="80" as="geometry" />
        </mxCell>
        <mxCell id="JT29bU-KKxfSDwlyNfCX-10" value="&lt;font style=&quot;font-size: 26px&quot;&gt;B&lt;/font&gt;" style="text;html=1;strokeColor=none;fillColor=none;align=center;verticalAlign=middle;whiteSpace=wrap;rounded=0;" vertex="1" parent="JT29bU-KKxfSDwlyNfCX-11">
          <mxGeometry x="15" y="40" width="45" height="21" as="geometry" />
        </mxCell>
        <mxCell id="JT29bU-KKxfSDwlyNfCX-9" value="" style="edgeStyle=orthogonalEdgeStyle;rounded=0;orthogonalLoop=1;jettySize=auto;html=1;" edge="1" parent="JT29bU-KKxfSDwlyNfCX-82" source="JT29bU-KKxfSDwlyNfCX-2" target="JT29bU-KKxfSDwlyNfCX-7">
          <mxGeometry relative="1" as="geometry" />
        </mxCell>
        <mxCell id="JT29bU-KKxfSDwlyNfCX-12" value="" style="group" vertex="1" connectable="0" parent="JT29bU-KKxfSDwlyNfCX-82">
          <mxGeometry x="240" width="55" height="80" as="geometry" />
        </mxCell>
        <mxCell id="JT29bU-KKxfSDwlyNfCX-13" value="" style="shape=cube;whiteSpace=wrap;html=1;boundedLbl=1;backgroundOutline=1;darkOpacity=0.05;darkOpacity2=0.1;fillColor=#1ba1e2;strokeColor=#006EAF;fontColor=#ffffff;" vertex="1" parent="JT29bU-KKxfSDwlyNfCX-12">
          <mxGeometry width="50" height="80" as="geometry" />
        </mxCell>
        <mxCell id="JT29bU-KKxfSDwlyNfCX-14" value="&lt;font style=&quot;font-size: 26px&quot;&gt;B&lt;/font&gt;" style="text;html=1;strokeColor=none;fillColor=none;align=center;verticalAlign=middle;whiteSpace=wrap;rounded=0;" vertex="1" parent="JT29bU-KKxfSDwlyNfCX-12">
          <mxGeometry x="15" y="41" width="40" height="20" as="geometry" />
        </mxCell>
        <mxCell id="JT29bU-KKxfSDwlyNfCX-20" value="" style="endArrow=classic;html=1;exitX=0.75;exitY=0;exitDx=0;exitDy=0;" edge="1" parent="JT29bU-KKxfSDwlyNfCX-82">
          <mxGeometry width="50" height="50" relative="1" as="geometry">
            <mxPoint x="209.75" y="40" as="sourcePoint" />
            <mxPoint x="241" y="40" as="targetPoint" />
          </mxGeometry>
        </mxCell>
        <mxCell id="JT29bU-KKxfSDwlyNfCX-21" value="" style="group" vertex="1" connectable="0" parent="JT29bU-KKxfSDwlyNfCX-82">
          <mxGeometry x="321.25" width="55" height="80" as="geometry" />
        </mxCell>
        <mxCell id="JT29bU-KKxfSDwlyNfCX-22" value="" style="shape=cube;whiteSpace=wrap;html=1;boundedLbl=1;backgroundOutline=1;darkOpacity=0.05;darkOpacity2=0.1;fillColor=#1ba1e2;strokeColor=#006EAF;fontColor=#ffffff;" vertex="1" parent="JT29bU-KKxfSDwlyNfCX-21">
          <mxGeometry width="50" height="80" as="geometry" />
        </mxCell>
        <mxCell id="JT29bU-KKxfSDwlyNfCX-23" value="&lt;font style=&quot;font-size: 26px&quot;&gt;B&lt;/font&gt;" style="text;html=1;strokeColor=none;fillColor=none;align=center;verticalAlign=middle;whiteSpace=wrap;rounded=0;" vertex="1" parent="JT29bU-KKxfSDwlyNfCX-21">
          <mxGeometry x="15" y="41" width="40" height="20" as="geometry" />
        </mxCell>
        <mxCell id="JT29bU-KKxfSDwlyNfCX-24" value="" style="endArrow=classic;html=1;exitX=0.75;exitY=0;exitDx=0;exitDy=0;" edge="1" parent="JT29bU-KKxfSDwlyNfCX-82">
          <mxGeometry width="50" height="50" relative="1" as="geometry">
            <mxPoint x="291" y="40" as="sourcePoint" />
            <mxPoint x="322.25" y="40" as="targetPoint" />
          </mxGeometry>
        </mxCell>
        <mxCell id="JT29bU-KKxfSDwlyNfCX-25" value="" style="shape=cube;whiteSpace=wrap;html=1;boundedLbl=1;backgroundOutline=1;darkOpacity=0.05;darkOpacity2=0.1;rotation=0;fillColor=#008a00;strokeColor=#005700;fontColor=#ffffff;" vertex="1" parent="JT29bU-KKxfSDwlyNfCX-82">
          <mxGeometry x="400" width="30" height="80" as="geometry" />
        </mxCell>
        <mxCell id="JT29bU-KKxfSDwlyNfCX-27" value="" style="endArrow=classic;html=1;entryX=0.067;entryY=0.488;entryDx=0;entryDy=0;entryPerimeter=0;" edge="1" parent="JT29bU-KKxfSDwlyNfCX-82" target="JT29bU-KKxfSDwlyNfCX-25">
          <mxGeometry width="50" height="50" relative="1" as="geometry">
            <mxPoint x="370" y="39" as="sourcePoint" />
            <mxPoint x="190" y="130" as="targetPoint" />
          </mxGeometry>
        </mxCell>
        <mxCell id="JT29bU-KKxfSDwlyNfCX-31" value="" style="endArrow=classic;html=1;entryX=-0.067;entryY=0.513;entryDx=0;entryDy=0;entryPerimeter=0;" edge="1" parent="JT29bU-KKxfSDwlyNfCX-82">
          <mxGeometry width="50" height="50" relative="1" as="geometry">
            <mxPoint y="40" as="sourcePoint" />
            <mxPoint x="40.98999999999978" y="40.039999999999964" as="targetPoint" />
          </mxGeometry>
        </mxCell>
        <mxCell id="JT29bU-KKxfSDwlyNfCX-35" value="" style="endArrow=classic;html=1;entryX=0.5;entryY=0;entryDx=0;entryDy=0;" edge="1" parent="JT29bU-KKxfSDwlyNfCX-82" source="JT29bU-KKxfSDwlyNfCX-25" target="JT29bU-KKxfSDwlyNfCX-34">
          <mxGeometry width="50" height="50" relative="1" as="geometry">
            <mxPoint x="400" y="180" as="sourcePoint" />
            <mxPoint x="467" y="36" as="targetPoint" />
          </mxGeometry>
        </mxCell>
        <mxCell id="JT29bU-KKxfSDwlyNfCX-86" value="" style="edgeStyle=orthogonalEdgeStyle;rounded=0;orthogonalLoop=1;jettySize=auto;html=1;" edge="1" parent="1" source="JT29bU-KKxfSDwlyNfCX-83" target="JT29bU-KKxfSDwlyNfCX-85">
          <mxGeometry relative="1" as="geometry" />
        </mxCell>
        <mxCell id="JT29bU-KKxfSDwlyNfCX-83" value="" style="shape=image;verticalLabelPosition=bottom;labelBackgroundColor=#ffffff;verticalAlign=top;aspect=fixed;imageAspect=0;image=data:image/png,iVBORw0KGgoAAAANSUhEUgAAAM8AAACtCAAAAAAy1nTSAABZ7ElEQVR42t39Z6yuW5Lfh1XVCk98444nh5v6dvftNKmnhxM5HNHmmKRJkyZNW5AAG4IhW7QEEY6wAVvSF0OAAAWDchJsmZRliZRMUpSGk9jDmekwPdPd93bffPLZeb/xiStU+cOzz71nCMuWYZMf/H7bZ7/n3W89a62qf9Vaq36o4ZMXAQGLImYgigLEyIgMCEgCQhKRQABYkJhEEAQBBUGAUQBAAAQAAQAFX3wqwvCbfzwvfNkeEhm+nyACAJMQAzEJK0YQIAEQFB2HtyFEJEEmVowiKEoEiQUpogBGhMFkAGQAZASUf9SG0cs/MCgiIkBEZBBCEkBGYRVffDEAAA+AgkLMCMxCjIwCKCigJKJgECQBEoOAKIAgSChaExIpQsB/POODOuLVkxdBgGEOoQAiACMwIdMws5CJ6eo9xASRGFlFRCBgIYhEQfHwEIQiXQ0uACMCCohiCpoRmARQQABQBPn/p/YoQRQQQFGRRBSreLUMBEFACRMjCgGDIKgowypCjEqAEURFwgiAKCgkgoIQEYAYAAWQAYWQKSqMOBgqJATAKMRAgCwIwIDINMxM+f/KHiAGJQworCNSQIoEGEkJCyAMIwKCgihCjICMiCLGCwqQABOJCAkMbx8eOwqiIANQRBTCSJFQUJRXgMyomEQAQUgogiAgDLMABVVAlACIwsR4Zd6Vz/l/7w+GDwEAUTxMC0RGwWGWMAJJJAAhIUYARmIUFQBVQEEAVgIi6mpKCgAM60ciISsWQgB54RwQUJCVDAuTWECGqY5MyKIiCVIkRlEigAgRBdkEAK2i0wEE5f+lPSRqeKCAIkCMACAUEYa/MUw+QQGkiILEAKJAmBh0RBAhEQABIbxyEEBMgoyColhUFCUCJC9GGIgYGEiG6cZIjJGAFSMgsigWAkbtCXlYWggRVSRGYtFxeAwIAoqH6SEv+zdEFEFgFgYEEQZkFEJCJEEOADw8cokoIFEBETMiCDEwgmEARCKFMcIwnkAijIKAjMSkBAREkAgABRQ4EKWQGBlAgEQYRCAgAcchTEQADxgFNGpQgkifjDILIIgi1FoEQQRQ20/HZ4iVJACsIlxNNxBEABQmxcAIEAkpAg7PlAFIBJEBVNB85TiEBEEAhUAEdBAkYBjGFq9mgGJRDEDCiCggxIAAKgx/gQGJQYSQdUCKhEwsSlgJCDFGhcAgOgAhU1AoAoBRA8un4yMyRB0AEoUogkIIg58RBC+AgEDAUVBEWIIAAeMwxJGGwRNBQgHRKCQAqITMi1mMQINNigBFokBEAAEWYBRkjIPcYFAQQaFWjF4pTzI4GKFhxoNCEcWJJxUF2QALEqABQvXS+lEqAFEEAQIh4avVMrgoFQF5CCEkgqxFECPCMAg4aCNBERLEQfeIAYgiCjAKAaBQBARWIoIKIgKACFFEFFaMCKIjCjKIDiYiowCrq2UIoFgFFQl4cP8gBBiRFUYaApgIAuiX/QGQXPkeURGIEVBo8JOCJCDIxAigWEWUwRS6WlIohBCRAsIQeTQGHhGJF2zzEDyooASQEUTx4BoBCCNGNbhftpEpIIGIAKioWQiZGJCRICphYiCJigCECQRECRM5QhAhwIBC+JI9WgCjisPsF2ISxSAoFGkYJ6Fh5l/FoKtgBDi4kswJB82kgmmyZE43rs/ygy7La1wdP3v/ojfomBiEGFkDiAyaSYkAk2BUrCGiqEgMGBEBhwdIwEpkWFEEiCwEAVlHDYEQWExQkWSIwP+QPYKihAFIVBhUDwoDCTIpRmDRAT+VDCAIgEBQhMTBpO2kJ1RjuvWZa9m1WV+vauzX2z2XjEfp977zTswCS9AMwAQweF1iYkREigxEkXXQEEAzsCITGCNQ1J7AGHCewOuIJGgigyDrqLzGyEMUQBQSftmeIVgQCwAygRATD8sDKRCgCCsRFKQIohgAAVArk+UBaz2u+sZO7x68tW/6zaX9gC8PWuMF+0ks+tHN0aPf/KBTadDQgmJh0hyBBBUP8kkUm8gkQyhSETBhACLPrAJY6NUQ4ZACMUUFgKKYEUUAKCqUiCq+HE+VwBAIh7kZh6VPjADCSINPZYokStgwA4KJuclsQuDW5bQa3/vS4ex4dXbaGWU2xTLhg+dFWN35wvrbanu9uPn4m8u14pYEEJmFBp8qBMQCJBFNQBQe/DcpT6IEI4moAGqQRIAMClkFFVUAJGAUJVFRZBMAQV62B5CRlQziWlBAFAgyDYoMAeMQdjQzoIAinUspeZJQlJhNr9/J9JOTLUrhq2mKrx3PZHebLqZ5jBuiH1yu96cl1aE5uli1HE1g8orBBBHRAioCMCELqCgmqmENIwsOChxAVEQBBYHQKwDWIgQMgMBgvBo+4mX/RgKAyAKCCEIiQBhJkOEqjQAUjMSoWEispVQlFgpKNEcsxzO3KsfmaSD3+Z2aStcix8hEwXpOFLjtycrtqSQxE1x8fPa4B0Bgp4Z1L0iBNEctCMqDAGJUEUENihFJBWDiYeUrCgyD933xjJlUIGD6w/5gcNaATICsw6DpQYPIkF8O0QAjEpMZq0QZbROdkYhOc9qCF3V9PIF0LehM8JkV16ORNs2i8LaQI33qL3aqsiwTtXp0ciQYLTPyIO4QBSIOfx/lhZwHYB2Y8CrvEiKmGDWIDsMqFsUAICQo8LI/UKyEUWj4IBQhBryS6RpkeCKAUQNFIfQ3tDUpmSTNfWowQRc83jqYbbcd4CqG5iIGAoUp8cimCZld6ddk5WILx1B0Z6/dkbo6+mDjKPGBBJmBkKKSq2hAkaKWwduCEoFhzgvJELgVI0YEJPJIDALEQi+ND2oenDAMKQoAgBDrcOXYGQEQBIWQAmcKijLR1iQ2LdBA0vbV7uFufu6qxfb4IjS1N14xAjMWY2vmu1Qmsyn27Khvo3rt9z7qaHZ/VDz66OmlV1pHcaQ9gQzzbFAgAKA8igJWEQQASQRIgkJGYASgSINAYEIWzfiyHsWgBFkNQmeYXhTpajyvfgaCyFppnX32M//JlAqdprkhoiez0y/s8PJs83Rx0RcBUuRgwGeJctL1QfXJIV2vx8UboyJWzu0Xj5pNdRnae8lu5z48PgsajHhABhVBiBGMR2QUUZGijopfpDIIUQEolsERYyARGygqEgzwsj3EV/E+khBGoSHPBgVBAQzRCZE4YTX96i995v3/2W2dmcImVqqLm+OD8AfPV8fi0kJZ9BBsMhslZPIAWb9dn276nkaJjpP9u7umCbZcgmxhc+wcvz7B5sPVWcWjLgoyKAa4qoABiQAr1iwYSZQAshIRoAjEiPCi8qCi8krwpfVDBBjhKhsVigoGtcY6IokIsmZCimz17Kf/S9dPni++tc1yazXGmGfXqh98sNrYMs6vHWa6Wy1u7mQQBFGLCHIb+9Ztzk/C3Ci2N1/fdU7ZGDe2LR/3l01hrr0W/uDJY+hJOUFg66+KMUxyVekThEgAxAQAERUIYqCIopAFgJWKgi+Nj4aoBBkVw5CV4NXnXaW1ooWAwVDyU3/65sXZSbu6WGdolB1lk/TBd48q0rx7eHdigw64DLupMBIBqz6BqESgC2Hz8UXbjkdI17JXJs5ybalO17Tcnnq1p64HeXx8HhpE7SWSAoigIoEIsAJWAhSRBCOiANOgqAEZEAEjMZCKn9qjBDEiiuhIAiogMgkIEkQhEgVeRQUqu/tPffHo3J2suqT/2CRqf+dw8/Z3Kp85unnnRiocEDE4ylIliSS+tY5sRyBiumyz2oyWq4tlcvOM4ceuT7SPyJGWutrEduHNwW6RLjZnT5pGFDn0CgE52gCfJiKAIoSMgRCHrEjxEGMQ4WV/QELEAEA81NBwqDIBK6bh3RATNfqnf7JbrR/bNfYBn/bFL8jD7z3qDURKv7i757wSRdSoLo5Ix1EO5WXvLY5bYIjsCVztP7p3/uQsS4t1ff327RmJyNpb55PVhvwy8YeTbL97evHeOdsYmZARAFSkgAisIwzVQCGMSlBExaEgNijsl+0BABJAQUYgZiRGii8KnCBGYgL3/0e7z6r63Umr1GJPvXtn8s77F2bfLbW5vn9HiVhvJXKUHg1Y6A4naVhVnMyNs9L3IXCdQ3X2gHfPL6pkrsvuR0cm8RqyU2g67Da5443lkOzc3T393oOT/MbaOx8lsMKIjKwZCCMrRBYcBAyYCAIMCuQP6QMkHGqgQ22BGAWHNIiihkgMSv/ov2Ce9fp9cL6B0UFy8d3v98muXq/NjXF6rdSenEECD2YRRiFCkh4e8OUF28nUJVF7advYimw+anY22pysV0lnR2/szHe9s2YL25RHiz7YuGhdM7q3O3vv26V3rnc+cpQhmR9SXxBEQAYBRFYAEV/Il5fKbyBAQkxXPhsjARLzUKw0XpP96r/0dPEuf7ZXQAcalr/7oE5Lo57q8h7EURI8KOvBKOUjbRPVbu7geTLZdW2iQIsRE0ejNQU/p2nmgnpz021PV81Cpj8/1YFQlVOvDyqlH9tURk9+57UdmoEiUrr3AaPIlUAh4oBCrFAEWETAAIioaOIf8tdArIbNkcgqgpiAQkNJWkxfRPvz/+Nn3+MGqrh+Jcnf+fbDAqyYxifjOxVMpmXUbWOnOuu0k/wHdj8+n8zN9aluOigMEwaXRPIrX+MPJ9Y/GpsRVlK7j6s+v/Mj6Yh5JE6JlW3ZtbqJS1mD6WP0rve9izGyDJsWjNpTpOH5I6MIMqqIJjDCy+V4VoDCFKOOjMTeQARizYGUN+34C//ixxfVbGVivL335N9/gNMU+8WrUe/e3BaTQlwKanTc3W4VEHSjp1OYqi45m2orOquK1oOTsRNg7dcpJrfr+ghSp8Y/JuHR0+evfaGot/tuFLa6JBpTLOj5Ts8QPCnlTe+D9zzUkhF6zSRAKEKigiAQBSVOkaiX/TUQeRJQwIJCAEwiSkQBAqL9sX/l8bPF1kzevSPF7/62zzHYtgGzs1+gu51nLMZn2+Lj+azKbEvu919VY9+m5ewgGvGJqqtIqoxx2YXlb38ZxyeqU/35Zy5qP5qMvr6hg8PXprA4IM+GQtrUOoVqueYYfQwxOBd7F6MXAQBGJgYaQo9cpdE8eOZPxwcFIBICQUBEYSQcCuKceCPlV/75R6d9p5pvfL6o/p1z5dKo273R3ri/6MyoUJpjn0pR3V2sSxDd6nHYAUu9C06DWEQnDHlQTUy7NSQnEXvYpl9c1dk++Qc//v3H7vFy9sq2uRGc9KVLVJ625l53sg7oUSkip1QIygkLkHUREEREATELDNs8wAAvzbchh4/IgzrXHAXBOhVQkNSX/7nmZNXHPv/Ctcd/o9KSjqYHu1Pqcpy+J1ppFqUIuAjF8agljZmibtLoXrWAPYVZBaFPW0uqDUldliHNz/GeJ9WmlzsOH/3cd3+YSvXo+uYPRlXuZytIkr2Mi9GNyVGThqCUMU73PSkfo0gPKDoSo0gwIKJZgBUggLy8foAj6jBs4xALalatETSc8p/+C+7RdpN4Ujd/+zdQ0vwr+0VKLVnx4/3TDDlpSsmUrwS3l7uGlSwOLSuJGKqZEdNxD1AXae8S8OfXV0mItPvxnivmB7OLO231ja/8zH94dHf0HLN3jJokm1WT+FiQ2r2d3j4GCkTKeK29J0eRGQQYbIugPauoAuKQzr1c31GAABhBCURFLEKsGaMCE6Z//r/+tHrWxfjg1t3f/A3bzH7ivg0ELsFsyXT+4f1sHBI7VpYvKlgnKs9W+GhnFlW7LLPyNksKy65xukiyVR2b3/pSxQZ6vp/HzXbKGA28c/Indn//dxKUvaLIMlHN2bNNGloJuszvTWItMQrH3oeuj9FzZImaIQkRBVUcUiEWoJfHRwSJESUScSRGNgHRIFP2L71RXXTSZB8fvvEf/B609/6o0RZRSiw73SCqVckWUKVodn2XM856HVoCIjLYatI6eF31IelS1xg413e/WfDWvbHXgEzbnSpb7e43q4/u/7lFtWuhqMEz2b3bRuHm8nS7WvPO6+IpIpJ22nhvQh9ZmLgjYNIASDoykyD/IX9AFAWECAVJNIooEfLJ/b9479l5ftTr9s71f//b2r/6i0YbnUOj0bQBvZ8c32zHzhVQkrl25FMzfkrmUFOHau4Eq1xUvlViw07ag4NqZ1uoXm6MKpX23c76ZqfqWeOfdu1rh5Lz2vii363ifqLXZfVaWJ4kq6/f3y3riIgUSBnPunUmRFIRAD0yQBy2XyX+IX8QAIxHEUEmiQRsRMrZP3uz+gCX7mg23/+3n1r+3E8mosfpRmXEPihp9K568Gad+3YSdSqvnFnTUYucsUINRa+NFt/0PVPhS1ahr+/Uirf7psvTVHe4l9hz69a1rceHFTZZqT1CrO9NrDvsXv1we2P2KMKDJzeuJV4iaat7HZCFNQQBFFYBEQUAGXR8WV4jAHHACIqFAGxQDAnd/B8evNfvL7cX12fZv34a+LWfSmNhfC+io4R+o1Tm9k5OyBXbbCxh5O+v1IrYZcC52fqEitS26bIXLuq9iE7Funyi23jdacFEdKpalvWeTT67XYuOB1lc9rSu7Bwg7dX4zuaD7M2Hgfij53eveRUjU9pDg7ClOGy9RGIxgRgJGZhecm8CbBE0MhCpJGDQ7N/6X5pnTfP4tIV75Qdi05s/qyjFpu5U7GsHrnQdZuW9Va1cUNjZlrtMuJmhJcM1ZVwk1MPKA49k15KUajs9Wa1XzaFsbbrWmk+2J1a1fJ+m48salfFOmsfqkIheeQ3a/MYf+dKzz2un76r3PxYiZQxkOBsbw4pSYGAB0kyBBEQQ6aXxEUQXIQ77RY40qPHn/hfZ+nLTNrR8Df7GB5KHP5JYr71vu20bDG7T4FMMrbo3Yms6b6BQBFWjXBqp9iAO7RisNFXTRqMSD7LWST9P8aAuS9Pys+W567EzW4aOxhsKZ5C0qrtjrI05xIPJbFbufuXoc3vSO3j07Q1pFlE3KYyRPPcIworAQzRACPhS/AmKEcWEYQ8YIwll/s3/Qeyj08ukeqX4Ny8m2+1P7po48g10KQRhTV2w1mfKQNm4XFTuKgW+leBXs2hUW7Y6S2KyiEom5SipyVmKBc+WlKxQgm77iK4wkLx3G0pvpkc3/PO7Ny/nlG6dwjElPnQadDF75enKnLf4rfFfWp0Xzfm92XtlHUVFG0QEMRCgV0Ki6Q9t1kNAJBKFTKL7+BP/K9n2zremvRf+td5s4IuHCRvvQdzm3HvnvASlE4WsE6OCJ2d1TJO0pXobE8DeYVqkGXttdL4TnO7qBVIo1lzsNGwy7EMEW7dNB3WyGnfF+EnZdOWt6RTHVExrzMcTU5P+3N3kzq3Jwai9Nvnfff/z19+YvVf8XMLCUdggIRBCiIYxXJUNB3VNBKKGuhtrSd34rf9pFfBpbJqTz7/7wzfWrnvdskfM09wq4E0jpmt76VODSrFvmDT6xDiJOaZ7pilDorNJVnFd6mTvVhvCpvZer7MLjDsjS2mv0nme75WGcLSzzTfaF85RMHJ7Z5ZcOyhEdeWyIQcFJ/rg/uje3vaSH/113b75+on/49dBey2gAJm1QoiazUvxhxVEJZGYGAAjhXT0L7plXHYFF7f/0+8vpwX+kr3Y0KYYWbv2224zzvsOmolS/ThEl+YFmTaFtJvFTllLU0txog+EddWklLRBr71D87b10tFsrbO0b+JYIB8ddX4UE6srSE3SWMvWjKA2UWeda9RS7YdkS0Hps9m4zC6e/zu/UORvfOvVn9l/W5vggFFUQCXDluQnDlsBMCHqzoIHHaik/w3h8bitmnX+V/XOaZH8bGbjw1mpJqmGp7y8mCWxuBilIzHBYNt3xauSd0ltENxGtpMJi+Y0d+Ci7thUFx3p1jx897PBfO505ghCb8jLZJTzh9SX3ZTaKi5vy6tddHshwWDJhfZd/fR2kk/cid4+5N3Upa5+fnTvi9Vb31WHv/derZ0BTwoCy+DRXtIHTEwclReNnDL+8RtPuslZir79O1/ddIX6Gcpqmq7ysMk4OTjO51GmvcnHXFQlGjXmnaTpxmtKgs9x91KbELV0ThIkDOEsRpCzNX9pfDz96je4Pui3k4K2Wk4vb9L1oxjnRTzbO7ne7ri2o2fZTDIMebfS8Rbr6Y0n2lsV71cmhixLfrj62sOf+XvvfMb+ASuJGiILXu0d06fFAwUAqCTJIbLLd/+5J9vHdP3j8pv/++NvPhjDL+7uqj0oui66pemLQpM1m3SunMa8j2k5mSqkeEmK+pynbZIoa3qT6sRyf3F86Vrgiws8eBbGyVv/yo3EIV2efqjWRTl6IvObN3duXhylC4wFrZYrF5dPt+tg+uQwFbA3DmPK0Vc3nZGQlDujzxz9Bn73a5PHn7vHGCBG0qkgqwDwqd7BSCQoQB4JDMhfXvTb73zp71//j/6+lVh984+WyuU2a3dPruMmL+EwmMYrZyzYyo7SVJQiJm8gqTGE3uXM3mrlUEJ9WWVN4j7uzCvUT8/J/Ge5l/d26Fn1Z87xbLmPF2mab3/osSefBoPRPtyRxB0wZaqbuvF4mp13PcR8xnKYLs5xpzs8/pu//Pj19z/+YneMjkQYlACjqE/0gRANB7aQhTmqX3rl5GD/Tx7vfOfXEjNW25+6RY0hGMFIrxg34uO+TXNPITadKlOT2E5aZzE3pG1ClAT00VlVJtw8uKi3o80Y9D0HyYqVr6tU3361/Mr8nX6cJDzW68XFQkSPm/U0Hm9bd3Da+9FpjOKLg11bQgjnGvkay95eQVM3vn3/Wvu3zuuD5Oi/vIcmBwATKEaF8ZP5hgyIRAJoRQjMn1ju+B6OTv/jzOkoX7mjENvElia7uXLiLwtKD7Nij822kBuj1NY+CTYDHYKHxEOwIFZZ7SXUDtJ6ddq0BcbYp2WZau3YwLGBG1lCbtK31enqVETxo+2y9Tqk4XtxFc5pFdnnk2vX5mqx7Kn1UylS63I/6fPxNO9/c/n45+Tkc1PqDKpWBasF6dPzVQyAgEQcgYH/5DgsO/wY/i9Ze92ge1WEtYnkdqO++bFHt0xJX791/dUbn71+I22DUBI1+oRULiZIYSAa1qr3GrM4CROTzuD2TCc6TfN8Z17mMsqoKpA5DSzWernoHx8t/fzccLD2rrF1WIEEW/W2qHlxKrXLbRxpu0PTSRF31Q76v3Xw3l/o6bMT3QGYmKjhiM+n6SlEEBEBVHLnF/oUL5+mvxJ4X7LwY20S+l6U0uksZNM+NpuOrTZ2fqOYqj4zJpPSKOdz3xhnwHObsSEPPoqZYTbbt5w1U9tTke1OJ3pm981OZpj1WDBcUtYxXMb7127f2K59e+JcOZ+hOiqpsiF4ulxI6/IdGEt6sdVFm6e4GyfkfqU9/SPbvTuTREAUexKUl/JT7QGFgUAw/ephM3+i6+r3cuO4/lx1rc7dhDIVOBu5sbrca4QSB0Y2zHnXZszNKuTVrHpQaNnsqeta2dbtVuMqp/7O2Xo9oW3e9cXOptHBZDSp82Iil+N5G/TO0cPZeIsHTxYzp26+n0hX7EPmjUqP54piytL4tk/3ghTUJ4Y473yWjabv2OVv8E9//vu3qgVChOGs4yf6AMGbKCyKQev8jy0n78nT7K+VMbPu5i6FvOXVTmcxwPis4HWTWuhQxQ4JO+PwWJoA67ZK+298sa+PquTa4StF6fINtCXL7uiwhySdh93FdJRVSdMqp89A3/dKl7y9nrfmcAOJMeTl1nYMz6rJeJV2RW47b01dHFN9q428r1tgV7S2Kiuc6NLj6vnbX3vU3dycKMXIOgp+Oj6MnhiIDUP7y2816533Lo/XmElDb0quhQQJTKtB9k/D9Xbsjfgk5VVWbNeLzgAA53Q+e237tLz2Ubi37v00mU4T24tWkY2LM8W5Sztp1XbWYYLzylykrttf2gVWZcQuT8PkJDE3s9XdurzMu+lcLUunOWnHm+uSFxOXzhVK60Vd6J3N2fiMww/2H37xV25PqgokoIjpPxkfISBgDcyC+Z//cNR1671/z8JozW+F203oQRNmnQ7A2X7dXp9nDQHX+TRsF3XPq9UshdhmK/nyr/g2V+kBdJiYdapZ90naTaL1W1OhwYRNt9Ihg1XUByCTvnAj2QnjyhYd+nEIuuY0bsp2cj3gtB6HoOTOw8ROM5VgLxKpTDY7tUzf3z+JtH1g/8zz5WtnipGJxZtP6onExEgekTh+1ddKm+K3+rgz28xHcwVAhr2tC8cqNeM5iA6paslw3a8guFXVrHcmVmFh+y//biIwHrXXuzN3GOt2XFA1qzeTRUe5snlksaYunTNUCwedmXnturEZPzVNEg/PXPBJMDGRqUr9al4rCQa/4GHU08b2xtlk6bN12bDbvPJhaj7Y+3s/8zcP7n3HehlODn4STxWiAoMqMv3I3lt9+179XT2Kj+ObSb4l0nXIElsnNnPB+WW3jU3Q2tURgq5g8tpBdqIojYr9zdceSaHP+t6euy36SYB+3Ptk2YxKFg4+ddbMnNKUFZke5zGu9OgAXHdg5qNds1/uXU/iyNTjPccya5XolAmU2bIrkYoEe4aGa3VhNioLW/Vxw9c/KooOLGOkoD6xR5iiIAiY2eefXxaP4vcqmU/rN/dK9p12WZarkAu4LGXOIY8TF88vTeiwHRW41rpfLREpmOd/7LXlWxdWtcncpF3aTUPV4yy7vh81xj5QVxyRqN50FDDbdJRVp02V26nZzyayUQdqZzaWbG8PirHepjoJ3ovJBR2ojLZ+A902hNCemfHiFlH3+PSbf6R487AAUYjx03oVKhEVohLs7u4lMD3d+wOVbvvJW0iiYmAwI9FeW+kC65rNpO/bfG/t077zbTemUoUDQgmN6X7sa5MT1bL6zJktO3WWZ4Tbqbt5XvgOt9PV4tBHmQj21diNNaxtGbZ1mk5EidlCBv1+4UyplQMZeQOFwwZToyKxa2OMHlzRZt+BL9jN6tajQB/Q5PDtz56QboxhoU/0jkcIRFEg+ank+gpn31jHondfjNaa6NGYWZIoCVwBl30s5eL5alyugarQez1pFv5V485KIgrVtQkj68k5TOpTUmN0KnUgSjTuJ/uj6/fQFsb5Biamzz2oeaeL0i8/6hKdjQqgMReZUaogMZAStBY1dSK1b56vt11kFy/xJNyblddfKfe0OuPf+HJu73ivIyN/un40IykUxNlnp19v32l+U+F68/kaxCTptExu5LGNBrbb1lfS1UfrUI68Fo6xmFpTzFbnqpjUAbbJFp3/IrpYRZVL72oc9etk65ftolsZXkmzM9HXbTZNqRmvMI6arPFNCjvbpa6t2ykizdOcu5o2tubKSmsT3PRsVe9Dzxu/YnEf7+3uGJsfZgTx2WVVqsySIvTJy/qNJbKFkIxg+fXtr6Vk4Jcy26aSjLPk3khjH1pXTiapWclzLLKsSnyUdAyOyJrdEmuDWTbl2qkk7k+6nW9Wi0m9zGgTU5WldN12aaS5H9Uq7csD2LTTWmuIpWdb+GnVNef7eioGcJOUqHFCcNCbikTlLpfa0FjVZpOeUde+PZqU57nuZjJu9AfPy/E7NwwCs4mf6gNCkEgR9RcT/ZPTDy9cgJ8a39+qLlWznHwQ0hF4WTQQPVkFFEon3sg5RdKrMYcInuI6i2oxUp4hjU3arrOuymcnY+y1kky84Cq52HGQrdcFF+uxr0tft4lS2KR+rCS6UZ8ocInbXcdQ97lUNN/6UASMEA7Sc/0o6cOD5MYs3E6OAhGQpB9/+zOPDw+PnI4sn8ZTjKhUQIiv7bVQPz5H94XXbBwBjyYcL3SnbZuYLDgII8FMEKWeqoitIZd1uaRuk0jgkd1wyDY22b/kaUiKxqqzfNYsXl05BYhhovR+0x9c7G55z+0/nzdNhCxfQr6FaUpnZOqEmajCc6GkaCkibZRP+kBGFBf4cS7xwa2DUB6q4z7pksM1Qr96+97ilZOyJhLWn+bbGIFA0muYLWdHPc/eQp5YLmXbuGaTTNVEVTFgtFvIICTeZiFka0KUmAJF1fW5NVADB7jhqm2flZNFX82XhbRSrP04RpPUYVLLvFuPVmyqTB9cpiSb1EOS6bHp6rgx19cqqjZblJiryvZGJHN+0oomp8WW8BDUW6Xa3atOFw6end8nM66Pi6q8Zp0WieqT+SaIwkow962qH50iFiXpGcKmDe0CU1Q2LIMCjmJyZuOEtknWjUF0A7ZD08XCT9d+st1LcLm30Kkvzw+fzEi86WW0yk5mfRYgrPcvmSgqNn41CrtrMeLNaNcZWk49l+7jcfj9S3f4+k5iKa2JR9EHvdSqgk0srvW7+TaYqfXPFm2rzi/6xXzL7cUbX/sbfOs9oPBpvZcVR6SAEm/MsD7DrN0jnKuzsLnM872UaYdOqQ8ep0p1ZfS8ak1SlVin3eQUM+eiWo/78WJdbser+Yk9s90ITvV2lhe1CVWK12uKbaG7J9M6ma8hX5YQJIt6W0Lki72QmctVcTnV8p9UPlldL7UrNlY1UnKV9Knw0cZnp3fzPC0aH+oQXOoObh892DkCe3r5wc74xkchwqf5HKFSqBQTffD8vUrOoynQwio8egAHpSbcVSvgyxWMMgkWm8uzrjWsu27iVXHdeHHhNBVXlbrCM7chVhF8Exp7lp7bqpvHybLOFVcbN5MpbyajbLKZoNqucc9Yowvuqydn2NAlfbtJE/fmtVSVAbAv9GJdtuiJrC83pz9YAW+4jEDtKAeM13/U3unreLbyel5ipE/3G5ERwGmD+Lkvvvv4JOheEszON0c/ahipVGvp9cOUu7TTI3XZsE0yUJjUm0yEkrTxJ1El25RGrebKbsTNn+7quktkrY5vyaVajOtnh5nV1enh+V6U1JGtKrgzicqYmNWVD6xEae+OvLU/+wuOtykKJAvqedEGbnZCus27/tHunpKtQD/yI0ub3trZM3ab8CO/8ma6FYSX/AGDJsaQCO433M36LYGT9oaICW4rnJp3MN2W3ivO0Bdbjbtb3WVVN+ZYwAqpvbhVoKv3Nsa2iuAJUOsnEVQyWQiMydErWz6bdLOLUVMVlPBsc3i5ovmZLs6gXSqssxAb2Pos/MTP9QnUFJMWkto/W+FoPXqCVoXI3Uk+RYB+amHcRXVKo22xyU+31z9jDjfs6RM9ihopIni4dtA3WW+z8baVTtpdTNsuRqLqm2GCZYVexaZTpwlkW4iqSvLm2J2D1lM36nSfGMlM08hSNrlEgFXfnT3RlPQhxPMKO1Gba76aJ7AxtFPn+0WfxB7bRkOfm0Rc+Th1X/rqhtqVFeVU3xXrxsYz8cF0SdW0PTzsfISdg+luLMjGaFgpV5+d7dd56OnT9YMMgITGjGbJk03fo312SRWFjLLYnJ+fVW9fuzneycdtqpC0KTfNJQHFFHkpZ9CROfwJXJvknKYmTkKdjB4uirZlJNKTY/AFk1LYvuGC5w4fNp46MDZvL3TfL7rzauW3bYjr7PmT5Rd+iUqfjtFXG59SjCSZajWseDkvmyq056ywbsp0Qr5iXwgozFbbn9zObaJeOi8mw+VK/7n5WXkWklG8/K2fsU8KzUq3J4rlcGoxV1sXvWYe1a6fXeg8FvGiXdm1Sddnu+Odi+00ebqaNsnInF8Iw+EqFIzrmdGXVoci0qmfbJ+Pvf64yCahc93IXsTpRReSNi/OjseZe0qzX3T5Im2Sda4yX5WbnfOkSRovaSoYxi2HzV7XmwAxXW+XKmzAdAq6x59xGaHDT/QBI1CMKOlXXZPubtHP7r33w92T3QjtuB9/DAdji4kVW3WKEjRjv1ltC6ZRBW2bW6rMVBc+LNYHMN8xI3v+djg9LpdoqXYzN1tMVxPpVShpJfPWF0Qp9WDpcmyfPk6yvjdV1NcfTU+D+ydZbaxxksYP4nXVZN1hEwq33QmbQ1cuSaxxml3X221Vmb6rCCjN6x/+14K4aOJL/k0BUVTX79wxx6oZZXp6450/9uXq+RT04fKzCpHKNkJZBV/2FkdijxULVDd6nzYjb51wcanVLVVmjp1L7zr/+3fnIVn5WTN5Om6x7/NTSqupO9rlsjHOlcR+fLxd5eGyHTmMUo3ePjY/e6Ojsk0Cjt9Z6s1hV9U66/qd01VmfND24Yy26djXQNRwEp42FTWzzl5+nr/2qPBOv3yegjEQH04vK+WDM5L02sLEX7jZxbVNoyfBKza1D6YeBd9N3N6qqS2buzWX5zsYxq3/IOTLg6MET4p+dby/2HmsYyzKepenVQqNXI7dhUyXo2tvx92tbtqwrp5VN9OuLnOUkPThvQva+amAMQS0tZxPe15zdSKY5+vpMktZO5c5akqJ0FRWYjh/NtftRulWsn/Q1YaU1Pqlu/VIpk+b11er2GnDxWEcRQJ9HuYn+Z7tRhdIreikm4SggyqVDmtJTinLTvNKVuV2uVMt2985ODvUs6o/dMCbH+AmH3Wvv9Hny/ly7KTZ94939Tl35EXr8/XmXfNRdlgYn7E7WV4s9hZ/KhZV0ecxmAb8Zpzw0uYX2KJgq7JgABa3+nqZpI7I9xaygGd2tt/gx8nZ7cOTtB3pl46HALAZ48lYIpY+x7Pe9h1QdtK/6taSdO1OW9S+fi0SrUK37/eXY1mRb21XWYubx/5DUXG3ml/cPTqK88lBlrtVSd3i7EtpzZK66WXB7Y3j4vS6tLYq1Xc/WqvUHm3SzELWPLuc3wo/WZhN4SUW1fT76XJaJ5BvFtI24ebTmbK6Uvros5WXuqtMpfXxe27/QYd4ouToR/47/4GJPfaf5guCbFj6LHtStNJci3a8idGkvinaD/JDEq7Or7lmq1ejnpTGC2rENnvbOuOjEh9tN6hDCrrO/d4mhNkNVUh5+VruntR+mcXO6XHc6aO6nPdmPb6M19IH9p6/rCqp+m3RNtnc9unn9jPnU7cZb4qL35+N26jjMsPs2RcfH+89VPu7utmG370hhNVO2HRH9OPf/6HW+bWm/FBv/+qNGbOJL+kDUgHQyHH7PCOHTTcO2zR4402K+CxzrqEnuumP42gM3ulxl7RzXjreVDv9D4XDREUeb7HXhqrChtECnydJXYxn/FtbbXdfc1MYLXN9SfB0x19bHqvXb5ytnvAyeeCwsFvaU9dgvhmXXSf6fP47X/2deciPk8lpZt96+t5sEhq/qjqaXoZxtObEbrc0WTzNAzaxAsOzGw4429hPz+8gk4hf6buPv4lIyXQjfHZHha0GN/a+l+AxUXO+hUFzMeLYPTs4GrVVt3ug/t5Ofuvs4TzlCmJOVCt7eedxp4oxWYqnwVzaWdV9/ok3k0VnVJN3F88wHtzinfYg7tWzRQLRdUW6vJztWXFqFKPcuPdoPQ4ROM2X58ud0ajAix4LKzNZZxcaqtHEvFZt/0DH0YM7qV8efPb/logzn9avo2hnOKnXz8prH9W7dJ7m2fNXeswg1SezQx2wTVRroeiNYs3tLm2fd3O7Gj0u877ORmeqZadHnDavHT/Qt5+k2d0ni/Ri3+wfj1ejMP9cmZXLpdXQFHprNueT67UzkuCzVTs+kh1riSb7owKIbeinZnqWhcVtG56pTRUv3qLJ2YN1UTz1M5eMk51sgyG0zz3efJh19rTYBnWjcKPGfJrPGQc6EDhRZxc1rrbTTvR57xSIfaZo1HplFVhNMT3PrU8n62kRqqf60e0b5eUriye8ZS6LM0mb9LdgWsINZdVBvq30im+9fr8oDjpXHn/uMrZmslZ0d3//hyc/fny06R4dQZOV1TpCePWe7akepc6uy27V2V/+975x/XB0ftr+Vz42ti2//PgSvvSYJzv3pYW5IoOeZ82rDwwf+E6aksd9Ia1+cZg8ghCIerr5ysG3im5qZO88vZSk8nebmxUtVRqp1+LHNU8MZwlm4E1+/Vtfva6a2x8X1VMdffcwTbhY25LP91wmekbl7zRo+L6qN2sfi5sL3Sd9/vrFpJO78996SPz0fKSxSEJitkX/ePEL+7U5S2bbvCkmR8nfDp+dtBcH3fR4cnadW7V3it3drs5Gje0AfMxMcXH3Y8vxQlcHHWd9Gl/Ud0RB0JGQeP0ET25+R4k7aPXkdKXN1EL0O1owBnYG21FkX1BjDRntqi9c2xbTup7f2Vufa3/rtLWLooXEnpgdUppntUrrN9Nlh5DEUNm+TASeg4ynl7s/8w+WdTxspEh3bG+WT61efDu7CXkSgVRuiuJyBxve2RQPbi73WBGayHqK1egsiY4tSszZ7L197YENO901aVXD/YvjIRhRMQmwoqOYFjtOpWewPplnfZyH8Znq5kgKtrs+p7IuKg82bYKqXGZkkvWXd+5djnYP+KgVxbKc2zsrr55nLrHxfjJS8UFnKROAkZsk63E+6peb9czuvMrNQ69/JEOZbEcX8w/C7tnv/vKo6yZlk56OxzZXsR9xI6/ESXdtYajesbcT5yDrWnWBWZHMa8cASIU9uvlj6/yj3gatX/TaiCaAJIrmR+tayqDSvuDR9NE9zJxrXgmpG1/sQUkEGlKbtWpelUXrk/kj2HY3z7KgTf8Zr0/U2Z0nN5LNvDV+8plbl+NFatPNgdfUkXG4HmfbepWSvraW4sePSisjHne9t/UsL0+epM/+4KeFtCdVwhubBTc+10ksTHdjdkncTzSHduKZDh8lHFElz6N3B9jbi9nt+jJvEqf8lT0xZREtDPxc2+0yZhtJF93hdtoeIMAuEyR+B9YT5VSwkCpFq1FdGujW2aq5LvnO0mwOu/UoU3erL29+wL3Rzf1rHW3zfEvTxR4UZVjmcLM2krHi0k0w2N3sC0vhLjPcJH0yHl3/Ln7wyiu+Vl2S1km4/6DE6cal2N6arEVVZhKD3fFk/KZw5SSZt54um9ZA32bLN/8unjfav6jHUwC2FMC7b9Qc76o6sTHEEZvnHJO9UUcA4M2sa8LKEhlO1ITz4AytTtejPL11bvprKDstClxz8XC3WPpid8m2HFVZpvcxDyG/pvY2ut5EaPPgJCkCQDGf7RYQ80mftClPfm7e/voSM5tlYSRzc3M0tpIk/s7cVaGtd0gE6eC6gySO9vfu3AxAnlyZQKKLbhEgY/UiPxUQjsEiUBVSuvSmi90qH6mDnzyr+yIppNk0GaI1Me0cN22AmAuMGzvWuSmn9azdqZcoe0mGx6G5vbefZGU+IvKXwZGyeoTclhgsZdclhE02PaxBjcLBobHXDuYsu1QE59yBXfzqhQSvMsh1aW+Ni70dc6OQdfTdWJspJAeTXjdB7c1vjrqN5h0VmS/rues6s/Tqk/NvKIxCLMiudaAzypsJp6WZuP3zOPbkhJ1K09a4JunLaNmq7axDYri53kfgMGm6g0qdabpAvrEZ31z5mK5QUVEXjhp9Ml/bh7OkznoK80VmuZ0LNcUarp/Uya2TXm8lEeGvfNB9tPlTO6rjfJPQiEcyHoW0gm6rSiI1vZYnncaCD2YjU0uyMDYZXbZZpf8oJucKhT7ZP1VRiSArMdOq3aFwebB2paaQuuyBmmkJhompaMms8r6QyTpR3vkspMk0wpYWKfKFL1vqwpSoVPrmQ1kaxSWFSQDUs67Y7mdNSoozSJU7PLZ1kqaVrrOSARLOGlOlYfnVX+ue/M1fnhO2KujEbDIZb8jEDkpsDvZNO94mNm+nXHTt0hkUnTqVO9x5Nx5UjRbT0ovxUcSiNGq/XV0TGavgq0llexJ1uEfYXrz3/QfH26gzz12zWB9lDp0uvKIYmx4Xqlt6p59HSeaU0R3d3obRrLBQ6zsu4ZxPdNR+JdBONfl8oquJm2hu8qjROj+Zx5Hv5pzTzt4sPPrPlsGRFTLAEF1R6PLOJJ2/fq8T7hML2ThX3cnTDcUxj1S5rVDtm+/RD0CCe6Hfhh49EVi9/4O7J2QaLlt/7WI8aqdxR7U4O2h8KK0jmvjex3G2xcli1NqObVBVU1MsG8f1Ibl6Wtq8E/2Fc6jU9RVdzprC4pwFrVPBLOeXZWZC2bg63VmkMVg7Wvt2fFIGLJJav/bbefLx3/jT+xiUqG7ubK1wUs932BAWrY4BLdrerKs67xOAra8FOd2aVzmmvcQX53uN0owShSK/O3dNRoB9XqDqKD3c3dmflFlx42BkIyBMEvDnJ+d9laPubeqhIVTBe6Gz3F3iwe6cZNJCWnCZLXoHfd+LqT3QdrJxXbrcTf3pfH0svbv0dTnvVjI1+7RfUFQN6vs5b8cn/+73HPrgKfo+02wzIRWCl1Eykiz23rnTzmjVUxpnSyD/VvfLz90z2xt+MT4B0TgdgYk/WpfVZOlprfReqhVYYjuJHt3IxRKIsz5fuLhEmkWf1yiYL2vIoMYLXKkdvxn341hAk4OJVLJLMNUect3Z0JiZ5vmG6MYpl2433yqsMd1yn9VpVuXLqpn26S/9ukBRfR1+BEFNVwnRNnV6HFlLJ9typVVdZSkW1AH0Pj6vOz2N5ud/b6S2vXb6k3yOxBEjQFTfp2nYf5BUMMp13u3iRW3yCBFJjXvtAaFsJxvVNckIPPviMmE1W1TMcnD+9C6gU7knBbOY9pO4kWy3to12XlNJfupzWc6q+L1sZEePx1qfQ7rNL8fr9CxvpjPNAcybk+cr15aj9+c55LEuvTFV0ltIO+HUgXr6iFK4efgUFBZnpY/ONon57h1/dJ4qgk/0jggNF9Zp8/GXbz5tbBoSMtbax31vHGKyBryNHkIakzTmjR8HN+vr1I+3uye9YHQT11OCqgwNIufhkiV3/QgeHxYYCunmHaVbHbZJz+v7605XqsX2aBelM10TTNZXOr9x5Cf+/mtbCMlmty7dZZ6ux2CL2nivew26Ds1y94G788PX7z4uFj61HXUT2Lt9KBePrAHxn97HQIkEoMVfPMrwZtufSeQcd6roP3qwOD9/sOjbVZklmlMAO8mnoFSMVraBLlhaZWO3UTZBfZgaUF29mOjjBgrV39GX1XN0sAHMSLdj3ZxmXVXUca6fhOux8brp4zIsMgrr82J3L/M1JaO4a/xKYOMPHK/6xKVmk5MKaDFpdxY/zB8/mI4s+pV1utkd7/3shzvfAed6/uS8pSApJcyK2uc8nVyHdHwZAFab8Hu+PVl6k5nCboOWEAzpmKTaRjf3XGwCmr70PSyhn+z5G43ycHakMg9fZoBi2uTpeBQNZll3nGLSnJzry2p2lleL6jpA6fs+78uowzmbaYp4oo1KWZdB9lIDVlVAybYxlz6uzy+xg7awdHP5BFcPHmLAVlUY4pv/69+bncEsaIMv8lMSJo4oilVa5fcf3fhuKOEHN1vgR2rf5HHscoImTSBhCLqzgEVnAhbOpQB9KHndJL76/MWBm8WQ97W1crDY82qd5+3s8u46ltixAlVzlrKpfHKW+tR12ufO1aPtbO3YxmnS7awaixx7a6jFoJN1gh3nRT1tjyuG4z2XXRLNbj4we0G1DI/6M8LX+d/48M5fV+urQ2IAABRJCQIbEIo0vpb8XJmOzPNHF7pav04EuUqVa9vnvg9aE2gjwEmfY1DEFMGce5cn/az2tvBJqp3Je9kdN3ltUp0S9sZE16YlXxo0TXfiq9C7ds07KgEezXB8qWd5HJtaL0N0VZCIrkvGBlDbpOi1g+12JdHxGfdTMri388H3q22AS/depm/fnLr180cEyn9y3lIwaoGoA6ueqloOk+nycrQ6rwJfC1Y747BGqaebLJcAMSWToLcRpEkt5G2Q5XQbq1dHcezcD15Li9X51AYeN6NRk3VikzpRDaZ9nIaq7JilN56SRntO26Rrfdit4kEm9agJ+anPFjv6fKrx0iSdjtsiqQHsSlUZbEeXB20mQc+ON7+fFghP4ODZ3fBL79z+T3tNIOFT/QYMKnoiJvsHlZ6ff+Vv52wffg1ubUO9mggqtsejTIo+1XodOiVaR70olCOstdUywfNbhdyvH3x/enLrDhVahefjN6vLWUfdaFOezyhtxG9Jn/qwJ0lKqg2ibCCzLLdlc1OHhbLHKXxYSQ92OvWIKSxLUHnC4GyfhrJl29rzjGJc+dGePzpnv5nc2+xPF0vzsQoIIOETfQ0CUQkiMBxEuL968zdFaNUepNAEvXEI5A+L1FwEvNllnlVEIplGLJrWinFTR3fG7b2j9y9j6D8sJ4sbcDTKKktdwgfLxJoFbCkBcbmdXkKbragdY2+aUaeKOEuTNnlebEdptQjphS+WpYvksE8EOlhjlkTOiqrOuU8rkxZ1kuwrc/DByh63337Dfuado2bdpz0R4ifndyIDeQKWJDx+Pkp+eudHuy2qH+pajXaKa1OKdtdCGvny/NJ6MhrZOx1Riy5sOc+z+Q0K+T/428d5VqzGJ2gunptkdxLi9ILqon60aKJJfXQJ201h0sar7JJNozkRzHfV6odPRsqE086aOozX2KPXcZKmsNVRAnvq+mtR61Qv0WGyOzKmj9nEOhTzluTu2tttFogCfDI+Q09JxECKY/WYzh7+hW9yNM8ak6XBxGYXMq1s13NbrFMWJTYAdRyD4ciCI9f19OHZSRHO7cOdhX5w+3yvmGZnmG/vwmXb7T8za1NKW7aFJ65rre255fW41rtbVXWXm8a2JdXRNemmdOMMN7ql88xti/UjnuQ7IQV/c7t1GhLs0rHpO+PRUav9W+HnNvD+wzyA6m385H6WMFAUYpRO6nfufD3+/ONfxj4x34xNLHbKeT5JktySqb1bXbZWe5cknfVJmumypPTynbe//fX3L22XqIWO76139m/fHG3PZ+M023YxL5tXiok63yZV3sQQrM78Vpdmz5dheVIly6ZmV21W1SXH5sFu0kt1nkZXaDXXq+gXT5+QV3mWxFQpA9vFyWaz7WO/9RXNb37YPYZfCw7IK29e1KuEAQV1FARA/iHsfeEb4Sf+Di3Hj47nytpMShLiTjzIer6APh875wvPvfYuy9Hfpj84YxPKbHSaQ/uz92/SxPKMoVdr5QpZpA9TTCiEHHTaE5d21GEFy3EHfVIutrjbjhomN2n9d++c7Kuakgf3ex9TaQU6P7/cXDd9EuxybJbkjVAkpmeqEvrs6r91tLpstIOoSIVP7tMqBvKiREBYvp7earc//nf/6X899f73/kS7mSQAxEmlHTQKNjLdnM7uqL7XCWGfNSDT5kdfPXr2pG7X/eT6wc4oF4tIbVonKcTQXMCZxgu1X+egMduoZO3a/SUV8Dyp9Ma3oU1XZYQuqdf2YJqud9qqd6fXjW5jUSyzJd86f3CtKKbH+RPOJFEhmKq/bM4v4TXafXqGvwdSOKUdKrq6X4+agQnZQNQh7f+tty7V6j37fz6K+foX93bUjvJoy74N58tVZiYrBeWtaZMIIEJvWPfTFtM2eFFNknYzRhM6O3IQWYtcLltXVtLrbOIWZlaPdGDlbbBVXXWzPmHTwq/fupXwZKFWb11S7DCmxievKVKhz09Pm4ejA90e7sDZhSxOkhqaTLJVrM758GeeHcL25EEP3kJAgfiiXuWBAVCCFy89/Nv1oXQ/89Gf9Ho5/vv1hqvFghlL3PZBTZMm7xLwm0QpUJHKTm2oacgnYTLFNNX7pFAaay/9iCVZLeIZN9Eh2GqR3Ld+mvlVffRsC3obSNdJjNFd/rFpYe2HPzzeucDYZ9G8o9tuiUK8i2MY3a1+/1gfndONnWR0t5iV1FTT16vjovzzp7Z+tlyGLlDsMQy9PK968yFK1GiQKOoHx2577ekX5l8KmeVv6eayS1D1dVCyzcTYJo1KFVBDfP7hw6dpLHsecUuF4jxX4hz7MOpiwquoLq1/iCeuTWS8Ajx+7mFZp9ttV8Seu03/0J76dR/j9tXYcXrtM86EzVR2XPZRkRADQAWTuUqvj85bc/ykv5kn49n+ThHb+M5pWf2J77iwajvEbGiPGKO60tcIiMAqSBSOKvT/shsdp3n9l5K4uXnya2bSOmvRBSdJidhEDzS1vdo892Fzft6JUezSddzGgH6yRUiEJiMJmVOprqLzvNr6xhSa+3jB1dIYHfwquB3zpZ8s2t3uwRv7Kyroxl2egpo1u3E+vrgMeSy0QhWv75bje+PnPqtOtocpjk0K/fXffpxWfwWC46i7VkVCoqDgk/O9EhEUCYEiIkT/4f+x2NvGg+//JYDjW5e//jzHVUMYTCwU9ahTXYSWltvNadXIyVmMQaUhiUktEta7nZxH704pDWXvLJTu4O7urHq70s6opHXbGlKMS7OYSl19K7V5cv/9c22s7TpJb4wmsy5FErBLbELufR33p8Xs2vzxmtqjxRh76Pt0LZb/yfcfo2XvvHMcfWQShE/0tQYEZIAYFAjq5G89BKNXe93PsWzL8998XsV1jYDzMWonQNmU6dhvlk6F4PoHJ7HqxKc0N7FXZymXonyhWrdMxzK1E7eW/mC6fTdp2o9sp4g8LXJEWBCaQJtR3KfWz3auv3rrEKcjE/oezTSsMG4d9M+Pjsb7lI7unF4mvG0SYxc9f2zCXznbGITo64ajkkTD0Hj+xfiACAKhmEjArq//6p1RkDL7ylvJps6aX9lEWbUaUOktmxSK1Kx4+S5ZzDpP61Vl2RgIbYRRM2u8CZXt4pizdcX2lZFR2Rg+P6ZuerF8O2zrPlxOVt3FNhEVpjfncV9Zjbxjlx99vHZ2hKx5hy2jWK8v+rNHD+vDaTa6tj1KlfbhSVU9zPm/+506EPuq77sGAnhHQ6NR+pRiwRiCDiACIO5b/9v5oVG2+uO57hYT/r8vt/3C9VHCRiLMS7o8bo9mlkwL9akGDzZE0taO443GtLXOTR6D+OhZ969eEwyeJm+Vqxs76nhz0rajV3gd2iXZqpjszH2SwXS+rTbbdlXH3vaSQsq4zDVH6HBTPb1Us6Q4PPvw4vnp84tHJzb9K283AEH6vumcXPWoEoQX95mEIgCx4qAjCgJp+qu3vjLfyuzd/96/+yGdYfjVP2KnnfRUqzTRk9L3yWWRozJ5V0i7m7BOQmQOCi/o4brc3b8sRTd+3U/z1EyyjUzCOKvLB6ev/+R/PJ8BnB7gUX8rdiOdx2S0PU1TyPQze/r6xY5eR+5vU++xSrzKbT05TTI3oqQ8eW9/c1EF1rf/3K+KKAxdF/rGDT2WYWiXSC961ehh/zTK0KjPqX/j6f2be27/3T//1ZojzH6zeRrrot5YtkWimq3UxpToJR/n8+uZ1VsSjCli8U4AOV9T0ksSBNzq2VZRmqcZXPTm9R/5J/76dqoaFcgf5r/Rz5R0UczhvXt7mVsnbXSu9tpS6AIkPokYfa7tgavDctNjf2v57jqF9Ef/m78BjNz3zm27CMyMEUFY1It8gYUjgyCJ0sBahCEe/U8WtBvK/P2f+K9CcnN9/h3/vPDNJM3UCNvObHKCmkyui/3bOtUhj13coIpPrV+5bmtWBdodpben2yet2SeXTuY5bUd0l88K696gIuT7W6ijE3+ybPruMjWyj30enI3+tCYwbcte51kCsgtdQP9ELT8sAMyf/eJfIw8xdK5rfR8lUXTVt1ro6kAfkgy4CFYytB4UVub+v9q/c8LVfHXzW+vv71f2a4n4HaRZQXDplzLq9I5AYkoLW0tFh88aY6h4xlua7MwNRpM85/M+tTIxNjZMsWu19BdPD+6CGXXHBi4yc3izPdsu5/LZJq0+tscHcS99lp+//9NSZXeS5Nwjt2vCgEt1unnckoj5yx9+61pAlo5du+lYGIFBe6Bg4ov+VQhKRLFiEhAbBUQwyg//8r+2Zz+Ag/iDG+Hn3pXu679wsdpjji7vyDXptihyoyXjzYXHWQqPN66IPaqkhrDKdDAQxgtrziZ6uxPFBorleBXLvL/Y02Vui4+ytIwNn2xDkPXTgiGlsStD4/tz00E2tq65DF6Dxqgr+bA67sm09/8bv/1kz2GIPXeuCzx0kOYghBrwE76MCAioKCKALEoCsFDy0b+8Mz+k+qh7/BPrp121/Ntn87chib52up9hujvXbtlujp5uFuzaOigbgRfOKUmrvsPekZ2MZa6a0GRk097m6WS65mRHe96sw2uQaj5MXTzehoPVZWF12yWsVR6Tu8rmE+ifXbbgES1drh+vn3TA/ov/1H90mcfo28bVTd32AowAnlEjR5YX9R1EEAEZOior9qgZIUT9e7/6T6zMd2MGX/+Ru1/faHgf3ljtcFdKL5AmSb9ubT9ZOZCwzrfSb67VkHUA/aqQRCsXwk6CXZt5DjEJM7a8CSpFr8z0UT27eauv50WfddPNgxucvj+TdOuKyx01e5hHpsRXXXbJ8y0drWX7cIspqj9++G8eBGQXuPeu7wWQVRAChAioGV/0t1Qy9BdDYhCkiAZYMajg/9Q/82h99jCJ3Wt7/4eqzTf5j6ezCUl5gmEv3YSFTaXDxXS/3ulrenaHvaZWPz7g64dJr/tEbOdXPSdpytGoqBbbNH7sDqflSSXjg/GmGLuTs/D+4nOHToniS73njfdrUyY2q1pq1k+p3Ip6foEkyf4vP/neKED07ILrgxsaWmKQxEc1AKOu6gdXXW5JrvpBIgMGIM/F32n+29PNvU2dvPf8L/2H74v1v7b7xii5vljumSQ6eXxHlHLt6DLtUfrVJBPHyEU/6alL+6w3rVXTzjPbpnSS99p0NGmKPm+0Tx5dP4DWlOfJ/XRDO+QktH4fUNun7s0gtRjln47M930LjpS//rX7f8dnHQb2PrSxH2gxDIDgWEdk4z9puKEjDh37MF51t8WhgySY5iv/ffvsWXeK/tbO3/19mwfc3PtM7trX9CyG5fuT3FeLg1c5t671jy+vz9201UtKrs1HwQYC9jm1tehR61VSB9xWqlpOS133/Uyj7GacPm/46CHu3ErgdNG9lrB9six/ZDEKsMZH9vnHJtGO/c4bP/XhNyYtcgwh9r6PMCwdYUQmAGIVlLxo2Gl4uAGEPKBjgAeaAzJpGv8L144euU2T5De/9+sEo+RCT/b1mwWMVV9/6GNXvs7TxHXg36XwBScaF3GvvC2GmZXDpOCqy22nK1f7bBPHp8d3QHOj15kJs7A/3p7E9OMPrR4txtceFztus165vVdRcWxPH22TrLeh/MrNze/XpaPoI/s+9jJQl4SE4Qr1hUKf9CfXPLScvwKEMCKy6KEVNqf8z3/56PxytSnrL6z+ZtUptb+M8SfulmCwV5dME4axaRu1OK4OD2JG7bosJ7u59xa6ts/NDCsl5DaNt1IXFX20sxfBlU/bkU043u5c67ff+Mxju3/9cv3cubxPz3G821LbrjUpSg8+P3v3/PHNliQEjn3s48DlwcEowAGENJB4BnuENQgA44vbdF5HUEPnYjb0o/9MWHx47mg+s3//m5mnvcvi9JWfKiXT3hEEM8nPW6hOXZjdbQXdZi8t7vQpQ4NLF4tst83X1jzvOgUxq7rjWZakZtWsO/WZixHlvZO2Xfg31XffYbQ2kqbaUehKi5NdKnb92bIB5SkGjj64wCAUkbVEkgEcA6JYiPFq/SCSDBt0wCSKBRCRKV7x15J2Z/cv3Tl6r/O+vDX99q+yGa20F/3ze2R1okPMKWzq7olWiZ31ZVjoOd+ZSsgCnMaNGLUzgRBw26zFWofmB9M9pjRb9rOvH9xgkJjKD/xX6eFvLV7tWtvaLMQW9eTgYDdPm9PLo9nc/I4BCZHZuxAZBTHSAO4AigMTRYCRrvrDIpK8YB1dYapQiEGUACCi8Tb70z978mjVrtObzfj/ushKJg90960s2DRPNa+r/mmjElUaZbbbHateS1D3xNVzExttr48Uy/qcF1mm2X0834s09qtR/OHJ3f1o+nWb3Durfz1TpG06w5QLW+xCDuvVUxJwb26vX/46SOTgQ4hXLXxVAMSoRADUgIZCRhn0juCA2EK5wkcwCaB60dkfe3T8f7Jfk4QfQ8Tif/7X3l4XMure+Mbxl641TZfnYjSUwUlSOG7WO+M4LysVLDXOtgB6zffG0oe8L1YjDq5IO5O5cVDZvacfPr7jsqo5+5atrN59bZbsheNb7TiKM3X1/NnknA9f2T84+X5rAwcfgwDrgMDKawZUAiqSIA8QKHzBk1AwQA/gqgk+DjwAgMHZDZ77p/5iffRBh9Dfv/XxrxwVxTx/2Kr7d+dKZQlsA18iJCasNzt7OrnFlS9LXV9sQTbNHtwu21CcBXd5cU2vsRx1RaDCT77/vXv5ZXyykiqd5G+8nkPQ2IpM63SVPX54Op+Mrs33jt9/u1qqUYw+RgAhHviDAwJq6DwuKAO06lN7kJi1yGDmAEq6GlgQRjRBw/2/+MriydvjoxHceO3bv9on06a8CNPPXEuNzjoQ5z3V0EV9A3duLjZik2m/vlTN810p7+oQW2zgcvlg0h1cT5NorQ9P/Xzx8F3OMxrPP3dNtqB0HLWMUT17/NS+vmuy29vvP3wIlYmsTPSDVxuaHLACHuhIhHxFh2H8xJ6hRYXIgKADEUBWIEIgURGLiQDx8Bd/cvwPttn6VC/u3vzg2804GW0v4Yv3p76ImcRt7CWMtDJ8nzYbl5qDsFpidXRLdgsd6kitWi2WVTcvR3lIpX1eQXdE1lSvfX46ryBomUmrtunR5Ufm+m6yV9bPPny49Ep5VsgC8gJohi/62V5h71RQrIbywWAPXVF9GAcMHjIRRmLCSFd8L1GMSt/9c198pzleXVxrjm+89vY3fKGyRX33C/OxswKuUURRCipm5sLViRzm5+dUPf5cTPbWznbEAZ82hRtvLdab7mKlO1tM891rn1l7hVg0wpg9f3K+uPYZt7+7OX3/o/NZjQIsaMS9CJAiQJGYRHRQIqKDGkhnAx1OX4kbkAFUJYQgFGhQpyoMTE0gQBREPfqFP714sF5hy8vVF+6898OHOMrOzWduzCg13Pgk0VF0Nua2ddFmtvfN08sv9ybFHqOWdXKx6fp1VyehN3qfzGw3m8MoxAxFah9OF8+SuTm8u5x9ePzRZW9NRxEZEZ0CFQUFCBmFSeBFBirDtBtohHw13+iKgTXQQnEA/w3gO2IkZtSRQHNEI1/48zcfPLj18eqyrOjuQffwvVUVYbR//wbzSWr3YxZVUNRz2qsEWgl978pUh66vCUf8Bx/TCPxk3e7nkzHdTVU117EeXSSpP/7dHcOvutt7i/p3m4+0brMeRLEKrFhFEsXyosF4BBlgH1cYUy38gi73Qu8QD3A2AQQ2ElGGDtOsBAiiAgARzaA5+7M/vfx2eVm3wdVpYXYnHzxcRNuOrxUOx7NZmYLr04DkKPcGLz/AwzMYFbY3ff/4A5tOz3kM9/1YbsxHbq0jU6KPPu7tFg939CiUZx9+vGFJHEnQEkVHFEFWgCyIkRAgvgDcoSAjDUjB4b52/FS/DXfoGAEGaJkAKCZhUBEBQQC0UBSNKrzxz+68e7JuHunURrcqvnBw8YMPzzLsjInlmMaTgxmDxGyxW0daPA+VsVkV6+0iNQfncFfXo/l9vqblMkg2r9bH1cfdK7PKHEwodn/wuHJlqzwoFmaKKioA5KEdYlAiOrLGASfzIl4S4wDQQHhhjwBGBYxXHLWBtYg4gHQRGVAQ1JCsE/L0a3+mvvh7K2NtDun2gm/dOvzo3bOlrggQlFazyVhtRaOvL1d5b4u2dylqe5NHm9vrSfnq6JxSgbbCJ/6Ziq+oVMF47/lH5+dnRkeRSAQRKCCKKJSAOMiWKwYIYhw4NAJAzDSwSEng5XiKQ3v1AUyowhVgE0EGYiCCKFbCSliMKHrjz375X32W5FRYm0h74pdfe0UfLU7q5abxQSnLENNacyym6FwHOxPJ5f5mVu9Pb8qyNtMVPH/cbGFa5O3Y5tea5cl7a94mqgftATmJnkRFGigDAxmQAqvhLD8KMgwQTgB84cOJReil+DN8eZSBIzNMUOABN6leiG/FogBBmexLH1tMdEoja9emkot+9+7t/WZ1fh6W7JraM8YUqIBJsScHnY9ZjmpCwVT7R2Zd/u4iS25dlqqY5Nnl9p3TU8xrMSEqVgEZkQewng5qIOhoHvgKEIkCgY6CIBSu6jkDjlUAP8l/8Mq385UfucI+MaCYyCgqXpkoJopm09t0TonW1lpjlOlpk8ry5LWDNzPvNtLrpnBdeTK9FXRXWd31E3QyJy9hZf/+OfLPPxvHSe731PrR5vHj1LNSMSqBqEWcBlSOtNfAyEIRESMgDjoMBFEwoOIhPYMhyDAga4n6RTwdpMCA/CNAuCI6wxWYMhKIyFBnBBCjgkwzsjqhVFvQihJGLd2i6bS+uz9PEpe42PYJNoZ46qYrnPpWheob5/N449ZluX1lt98sz54/6SqXA8YoAlFzRATFgiKiI6E3wXDEq72coSMnDCWOq+DyAhktCKyQX+wHqwEvCzRAZwUFBwpjJKGoRXlUwIAQtciAQaQ8VQmlKqEEFCqFCaAYRcFtN5kJO+P5nOeBpx03K/e4O+t73X7ldw/vCx28ukrb5cfvX6yg6IuFYcJgRGT4qhQUi6Ag8oCXvgJHoqBioeFIgaiBgiVIMkweGGLslT/QACIDhQpEDcNKwoADzxIZBwjwJ7oJEFWCBaWUowUrBsAIUiIIqdJiLuKWV1ldZg2asDAzgumoHp1lU3yF4qNHD2tfowGHjCoMgR0QrqBLV+BB1kwRUFgNsCYEAIgKrlb3QC0XAcUIKsCAYfpEH9BAnQHGQVAgCAEDQQQlGBEGZDgBAwWFAgKkLJaYKwsGrIAGIS1gMgEiQGgTTShBL1Lps73TW+Haxa3m5uLd713UneioOhAFCnogNJ7iFbIXmBgQCCUo8gj4SeSUAUgZdCTREUTFgW8OcahVC6tP5pvmgfiJYSAeIQ9E3BcU7gE3Q8iCOFBDKCIgKmVTnaAFC2AEUIuoBBkMqiKb9RSl7ous6Pd4SpK0x8/e/yCyET8Am69YjQARZYB3AKInAaJAMNBXCDwSy4DNvcIxKxEQzXFg3hJEEhS8gjPqT9CAMCCymAkEEICJGFCQghIBViKa5YqvqvhFHZ8SnWhMBBIBMizKMCAHu/v5nRkUbQCwJvbb7emj5uNN9HkTNQQi4SFBAVBRBjACgiAGJFaRWBSyEArTUGYjYEKvgJEiaYfktfZXfeuGARQldKVHUQsM9VIEiDiQ5gd3D1e44ytgvSDxsM5EhIZJD0ZZA5IDkBHWCQGAt5Ob0WmK5bZpcL103aUoxRhFkSPQISqKGj2IiiqQEmG6wnWJGviRAIQSkSRccbQFlAACAw5kMGEjIldQ7itG7JU9pKKg6DDwmTASRtFXbCYBVhCSiAOyafA1goKE/AJqT4ozAqBMRKWIFJpNHW0QVEFnjqQxOiJSR6I9ILIaMN4MKDQwvonF9IYR2EbBCBQVeUDba/RqqLUBDV5rgMrxFSwXQRQAiygmUUP+Q4N7vGrrAAIYdRx45y+Yz4ARX6DmKRIT8dWC/IR2DZAKSGoQDPTetQFpqCINHEwRAqGoh4UTESkSg0IeQEV8hV5nGmIcQKSh4oQiBCiDbx7KHMAMAzEeWQSZWOFAiB7sIUGISoRYNF9deBxCK6tIJEwREURUJB0GGc5XGZPmF49sEEwGgFKO0UlEUFf5FhCAMIh1SpDi8CV1RIykIogiTyCshm8ddCAZfDOQiGJGpivgLigGYmBFwkxAkQS0J+GBTn9lj0ImwEBCIvSikgpCjIOQMFFkQDkPCORBfwyqVQZV9Cn1YMCKsQgNpCpWrIMKmlldIeRQmEQF4wckHDGyiUPVhogRIwkCD7R3JS+oXsPeB1BkUMQUBWiItlc7CKyj0LC/zUAgngRBiK7qCi+Y9yigguDAJyaKSAjASgkDD9pVAwEQ4BBtRUQCM6ACjBIFNSqhoIUoCgszEKMCBAhDokKkkIAAJQUgJhW1YATSIBpxAJkhRwESUiAspCgyE6HYQYOCiCBSNPhJ/eCKZXalQkEGUu0L/ivx4AUG2iUNikENbGlARqBIcEW3vdKIEVFwIHPLAD/WEQWp5C3C8AXgqjQhgNEEIOKoKRBQUAwiww04wau6gKhIGMxwkEXFTxQ1kCAGACSGFzxkJAFREJWIDIMogBRJgOILMK0QXlXsXyRSeLWdhwKIMtC/kQEHcKRccRJ1AKBh8wVK1P1WIVM0kYRZAULUEaNGYVLUEzKTaGcoIggEG3QAEoRICMgEEUjkqtAzuMWhjgMACJH45XoVDsqIBRGAaShiw2DcEK0QVAQVQK4YKIjy8o4EYJSBezeU/Qe+54BZQ+ArcuLAtUMQBBJWTJGEgmIdVUAgGZ6WJ1Je8YD+lQEkqwAwpB6vYtUgshULIUocyIf4hwB0g9vVUYivSg4UEJkYBYf5d7V7BAPRZWD3Igsig2I2ckV8jySgGAVY9PDYhu8wCChWwsNmGdsIIMCgmRGFhCKQqACiyOuARMICCBgVBsVIAkzxijQJFAbQcSBAvqLH/sP2vGSZIA7R40WYQVE8JER8Fd5QWPFVbBAVAFkzCsmAfR9ww4hXaHvAIZfnYRtw+K2QqKCQgSgg60giTMQgQy94ESVBQ7zSY8hAMFgwMLphSCeuijisw3++PX/ItP/n/3x11QYG6BMKMYmAjooZRQViisMuBQ6kbYxIKMiCQopBGFQkHUAEUQemoVbBiFdRVBCEgRCiwojK60DAxgNGLUJDnonxKnEdbP0vZM//Z69P1+JQiuEXgn9QJzBU0QRAMZsIwAiiQIYFjkPYFBUVxCvAoYCAcZqHIM8ICEyAABiutqjkRdSjfwT2/OEhlP+cwYUrHPB/wf+B//C/4gsl+odn0T9ie/6xv+j/v8yB/wcDd61Gt+kYHwAAAABJRU5ErkJggg==;rotation=-90;" vertex="1" parent="1">
          <mxGeometry x="558.51" y="175.10000000000002" width="50" height="41.79" as="geometry" />
        </mxCell>
        <mxCell id="JT29bU-KKxfSDwlyNfCX-85" value="" style="shape=image;verticalLabelPosition=bottom;labelBackgroundColor=#ffffff;verticalAlign=top;aspect=fixed;imageAspect=0;image=data:image/png,iVBORw0KGgoAAAANSUhEUgAAAM8AAACtCAAAAAAy1nTSAABZ7ElEQVR42t39Z6yuW5Lfh1XVCk98444nh5v6dvftNKmnhxM5HNHmmKRJkyZNW5AAG4IhW7QEEY6wAVvSF0OAAAWDchJsmZRliZRMUpSGk9jDmekwPdPd93bffPLZeb/xiStU+cOzz71nCMuWYZMf/H7bZ7/n3W89a62qf9Vaq36o4ZMXAQGLImYgigLEyIgMCEgCQhKRQABYkJhEEAQBBUGAUQBAAAQAAQAFX3wqwvCbfzwvfNkeEhm+nyACAJMQAzEJK0YQIAEQFB2HtyFEJEEmVowiKEoEiQUpogBGhMFkAGQAZASUf9SG0cs/MCgiIkBEZBBCEkBGYRVffDEAAA+AgkLMCMxCjIwCKCigJKJgECQBEoOAKIAgSChaExIpQsB/POODOuLVkxdBgGEOoQAiACMwIdMws5CJ6eo9xASRGFlFRCBgIYhEQfHwEIQiXQ0uACMCCohiCpoRmARQQABQBPn/p/YoQRQQQFGRRBSreLUMBEFACRMjCgGDIKgowypCjEqAEURFwgiAKCgkgoIQEYAYAAWQAYWQKSqMOBgqJATAKMRAgCwIwIDINMxM+f/KHiAGJQworCNSQIoEGEkJCyAMIwKCgihCjICMiCLGCwqQABOJCAkMbx8eOwqiIANQRBTCSJFQUJRXgMyomEQAQUgogiAgDLMABVVAlACIwsR4Zd6Vz/l/7w+GDwEAUTxMC0RGwWGWMAJJJAAhIUYARmIUFQBVQEEAVgIi6mpKCgAM60ciISsWQgB54RwQUJCVDAuTWECGqY5MyKIiCVIkRlEigAgRBdkEAK2i0wEE5f+lPSRqeKCAIkCMACAUEYa/MUw+QQGkiILEAKJAmBh0RBAhEQABIbxyEEBMgoyColhUFCUCJC9GGIgYGEiG6cZIjJGAFSMgsigWAkbtCXlYWggRVSRGYtFxeAwIAoqH6SEv+zdEFEFgFgYEEQZkFEJCJEEOADw8cokoIFEBETMiCDEwgmEARCKFMcIwnkAijIKAjMSkBAREkAgABRQ4EKWQGBlAgEQYRCAgAcchTEQADxgFNGpQgkifjDILIIgi1FoEQQRQ20/HZ4iVJACsIlxNNxBEABQmxcAIEAkpAg7PlAFIBJEBVNB85TiEBEEAhUAEdBAkYBjGFq9mgGJRDEDCiCggxIAAKgx/gQGJQYSQdUCKhEwsSlgJCDFGhcAgOgAhU1AoAoBRA8un4yMyRB0AEoUogkIIg58RBC+AgEDAUVBEWIIAAeMwxJGGwRNBQgHRKCQAqITMi1mMQINNigBFokBEAAEWYBRkjIPcYFAQQaFWjF4pTzI4GKFhxoNCEcWJJxUF2QALEqABQvXS+lEqAFEEAQIh4avVMrgoFQF5CCEkgqxFECPCMAg4aCNBERLEQfeIAYgiCjAKAaBQBARWIoIKIgKACFFEFFaMCKIjCjKIDiYiowCrq2UIoFgFFQl4cP8gBBiRFUYaApgIAuiX/QGQXPkeURGIEVBo8JOCJCDIxAigWEWUwRS6WlIohBCRAsIQeTQGHhGJF2zzEDyooASQEUTx4BoBCCNGNbhftpEpIIGIAKioWQiZGJCRICphYiCJigCECQRECRM5QhAhwIBC+JI9WgCjisPsF2ISxSAoFGkYJ6Fh5l/FoKtgBDi4kswJB82kgmmyZE43rs/ygy7La1wdP3v/ojfomBiEGFkDiAyaSYkAk2BUrCGiqEgMGBEBhwdIwEpkWFEEiCwEAVlHDYEQWExQkWSIwP+QPYKihAFIVBhUDwoDCTIpRmDRAT+VDCAIgEBQhMTBpO2kJ1RjuvWZa9m1WV+vauzX2z2XjEfp977zTswCS9AMwAQweF1iYkREigxEkXXQEEAzsCITGCNQ1J7AGHCewOuIJGgigyDrqLzGyEMUQBQSftmeIVgQCwAygRATD8sDKRCgCCsRFKQIohgAAVArk+UBaz2u+sZO7x68tW/6zaX9gC8PWuMF+0ks+tHN0aPf/KBTadDQgmJh0hyBBBUP8kkUm8gkQyhSETBhACLPrAJY6NUQ4ZACMUUFgKKYEUUAKCqUiCq+HE+VwBAIh7kZh6VPjADCSINPZYokStgwA4KJuclsQuDW5bQa3/vS4ex4dXbaGWU2xTLhg+dFWN35wvrbanu9uPn4m8u14pYEEJmFBp8qBMQCJBFNQBQe/DcpT6IEI4moAGqQRIAMClkFFVUAJGAUJVFRZBMAQV62B5CRlQziWlBAFAgyDYoMAeMQdjQzoIAinUspeZJQlJhNr9/J9JOTLUrhq2mKrx3PZHebLqZ5jBuiH1yu96cl1aE5uli1HE1g8orBBBHRAioCMCELqCgmqmENIwsOChxAVEQBBYHQKwDWIgQMgMBgvBo+4mX/RgKAyAKCCEIiQBhJkOEqjQAUjMSoWEispVQlFgpKNEcsxzO3KsfmaSD3+Z2aStcix8hEwXpOFLjtycrtqSQxE1x8fPa4B0Bgp4Z1L0iBNEctCMqDAGJUEUENihFJBWDiYeUrCgyD933xjJlUIGD6w/5gcNaATICsw6DpQYPIkF8O0QAjEpMZq0QZbROdkYhOc9qCF3V9PIF0LehM8JkV16ORNs2i8LaQI33qL3aqsiwTtXp0ciQYLTPyIO4QBSIOfx/lhZwHYB2Y8CrvEiKmGDWIDsMqFsUAICQo8LI/UKyEUWj4IBQhBryS6RpkeCKAUQNFIfQ3tDUpmSTNfWowQRc83jqYbbcd4CqG5iIGAoUp8cimCZld6ddk5WILx1B0Z6/dkbo6+mDjKPGBBJmBkKKSq2hAkaKWwduCEoFhzgvJELgVI0YEJPJIDALEQi+ND2oenDAMKQoAgBDrcOXYGQEQBIWQAmcKijLR1iQ2LdBA0vbV7uFufu6qxfb4IjS1N14xAjMWY2vmu1Qmsyn27Khvo3rt9z7qaHZ/VDz66OmlV1pHcaQ9gQzzbFAgAKA8igJWEQQASQRIgkJGYASgSINAYEIWzfiyHsWgBFkNQmeYXhTpajyvfgaCyFppnX32M//JlAqdprkhoiez0y/s8PJs83Rx0RcBUuRgwGeJctL1QfXJIV2vx8UboyJWzu0Xj5pNdRnae8lu5z48PgsajHhABhVBiBGMR2QUUZGijopfpDIIUQEolsERYyARGygqEgzwsj3EV/E+khBGoSHPBgVBAQzRCZE4YTX96i995v3/2W2dmcImVqqLm+OD8AfPV8fi0kJZ9BBsMhslZPIAWb9dn276nkaJjpP9u7umCbZcgmxhc+wcvz7B5sPVWcWjLgoyKAa4qoABiQAr1iwYSZQAshIRoAjEiPCi8qCi8krwpfVDBBjhKhsVigoGtcY6IokIsmZCimz17Kf/S9dPni++tc1yazXGmGfXqh98sNrYMs6vHWa6Wy1u7mQQBFGLCHIb+9Ztzk/C3Ci2N1/fdU7ZGDe2LR/3l01hrr0W/uDJY+hJOUFg66+KMUxyVekThEgAxAQAERUIYqCIopAFgJWKgi+Nj4aoBBkVw5CV4NXnXaW1ooWAwVDyU3/65sXZSbu6WGdolB1lk/TBd48q0rx7eHdigw64DLupMBIBqz6BqESgC2Hz8UXbjkdI17JXJs5ybalO17Tcnnq1p64HeXx8HhpE7SWSAoigIoEIsAJWAhSRBCOiANOgqAEZEAEjMZCKn9qjBDEiiuhIAiogMgkIEkQhEgVeRQUqu/tPffHo3J2suqT/2CRqf+dw8/Z3Kp85unnnRiocEDE4ylIliSS+tY5sRyBiumyz2oyWq4tlcvOM4ceuT7SPyJGWutrEduHNwW6RLjZnT5pGFDn0CgE52gCfJiKAIoSMgRCHrEjxEGMQ4WV/QELEAEA81NBwqDIBK6bh3RATNfqnf7JbrR/bNfYBn/bFL8jD7z3qDURKv7i757wSRdSoLo5Ix1EO5WXvLY5bYIjsCVztP7p3/uQsS4t1ff327RmJyNpb55PVhvwy8YeTbL97evHeOdsYmZARAFSkgAisIwzVQCGMSlBExaEgNijsl+0BABJAQUYgZiRGii8KnCBGYgL3/0e7z6r63Umr1GJPvXtn8s77F2bfLbW5vn9HiVhvJXKUHg1Y6A4naVhVnMyNs9L3IXCdQ3X2gHfPL6pkrsvuR0cm8RqyU2g67Da5443lkOzc3T393oOT/MbaOx8lsMKIjKwZCCMrRBYcBAyYCAIMCuQP6QMkHGqgQ22BGAWHNIiihkgMSv/ov2Ce9fp9cL6B0UFy8d3v98muXq/NjXF6rdSenEECD2YRRiFCkh4e8OUF28nUJVF7advYimw+anY22pysV0lnR2/szHe9s2YL25RHiz7YuGhdM7q3O3vv26V3rnc+cpQhmR9SXxBEQAYBRFYAEV/Il5fKbyBAQkxXPhsjARLzUKw0XpP96r/0dPEuf7ZXQAcalr/7oE5Lo57q8h7EURI8KOvBKOUjbRPVbu7geTLZdW2iQIsRE0ejNQU/p2nmgnpz021PV81Cpj8/1YFQlVOvDyqlH9tURk9+57UdmoEiUrr3AaPIlUAh4oBCrFAEWETAAIioaOIf8tdArIbNkcgqgpiAQkNJWkxfRPvz/+Nn3+MGqrh+Jcnf+fbDAqyYxifjOxVMpmXUbWOnOuu0k/wHdj8+n8zN9aluOigMEwaXRPIrX+MPJ9Y/GpsRVlK7j6s+v/Mj6Yh5JE6JlW3ZtbqJS1mD6WP0rve9izGyDJsWjNpTpOH5I6MIMqqIJjDCy+V4VoDCFKOOjMTeQARizYGUN+34C//ixxfVbGVivL335N9/gNMU+8WrUe/e3BaTQlwKanTc3W4VEHSjp1OYqi45m2orOquK1oOTsRNg7dcpJrfr+ghSp8Y/JuHR0+evfaGot/tuFLa6JBpTLOj5Ts8QPCnlTe+D9zzUkhF6zSRAKEKigiAQBSVOkaiX/TUQeRJQwIJCAEwiSkQBAqL9sX/l8bPF1kzevSPF7/62zzHYtgGzs1+gu51nLMZn2+Lj+azKbEvu919VY9+m5ewgGvGJqqtIqoxx2YXlb38ZxyeqU/35Zy5qP5qMvr6hg8PXprA4IM+GQtrUOoVqueYYfQwxOBd7F6MXAQBGJgYaQo9cpdE8eOZPxwcFIBICQUBEYSQcCuKceCPlV/75R6d9p5pvfL6o/p1z5dKo273R3ri/6MyoUJpjn0pR3V2sSxDd6nHYAUu9C06DWEQnDHlQTUy7NSQnEXvYpl9c1dk++Qc//v3H7vFy9sq2uRGc9KVLVJ625l53sg7oUSkip1QIygkLkHUREEREATELDNs8wAAvzbchh4/IgzrXHAXBOhVQkNSX/7nmZNXHPv/Ctcd/o9KSjqYHu1Pqcpy+J1ppFqUIuAjF8agljZmibtLoXrWAPYVZBaFPW0uqDUldliHNz/GeJ9WmlzsOH/3cd3+YSvXo+uYPRlXuZytIkr2Mi9GNyVGThqCUMU73PSkfo0gPKDoSo0gwIKJZgBUggLy8foAj6jBs4xALalatETSc8p/+C+7RdpN4Ujd/+zdQ0vwr+0VKLVnx4/3TDDlpSsmUrwS3l7uGlSwOLSuJGKqZEdNxD1AXae8S8OfXV0mItPvxnivmB7OLO231ja/8zH94dHf0HLN3jJokm1WT+FiQ2r2d3j4GCkTKeK29J0eRGQQYbIugPauoAuKQzr1c31GAABhBCURFLEKsGaMCE6Z//r/+tHrWxfjg1t3f/A3bzH7ivg0ELsFsyXT+4f1sHBI7VpYvKlgnKs9W+GhnFlW7LLPyNksKy65xukiyVR2b3/pSxQZ6vp/HzXbKGA28c/Indn//dxKUvaLIMlHN2bNNGloJuszvTWItMQrH3oeuj9FzZImaIQkRBVUcUiEWoJfHRwSJESUScSRGNgHRIFP2L71RXXTSZB8fvvEf/B609/6o0RZRSiw73SCqVckWUKVodn2XM856HVoCIjLYatI6eF31IelS1xg413e/WfDWvbHXgEzbnSpb7e43q4/u/7lFtWuhqMEz2b3bRuHm8nS7WvPO6+IpIpJ22nhvQh9ZmLgjYNIASDoykyD/IX9AFAWECAVJNIooEfLJ/b9479l5ftTr9s71f//b2r/6i0YbnUOj0bQBvZ8c32zHzhVQkrl25FMzfkrmUFOHau4Eq1xUvlViw07ag4NqZ1uoXm6MKpX23c76ZqfqWeOfdu1rh5Lz2vii363ifqLXZfVaWJ4kq6/f3y3riIgUSBnPunUmRFIRAD0yQBy2XyX+IX8QAIxHEUEmiQRsRMrZP3uz+gCX7mg23/+3n1r+3E8mosfpRmXEPihp9K568Gad+3YSdSqvnFnTUYucsUINRa+NFt/0PVPhS1ahr+/Uirf7psvTVHe4l9hz69a1rceHFTZZqT1CrO9NrDvsXv1we2P2KMKDJzeuJV4iaat7HZCFNQQBFFYBEQUAGXR8WV4jAHHACIqFAGxQDAnd/B8evNfvL7cX12fZv34a+LWfSmNhfC+io4R+o1Tm9k5OyBXbbCxh5O+v1IrYZcC52fqEitS26bIXLuq9iE7Funyi23jdacFEdKpalvWeTT67XYuOB1lc9rSu7Bwg7dX4zuaD7M2Hgfij53eveRUjU9pDg7ClOGy9RGIxgRgJGZhecm8CbBE0MhCpJGDQ7N/6X5pnTfP4tIV75Qdi05s/qyjFpu5U7GsHrnQdZuW9Va1cUNjZlrtMuJmhJcM1ZVwk1MPKA49k15KUajs9Wa1XzaFsbbrWmk+2J1a1fJ+m48salfFOmsfqkIheeQ3a/MYf+dKzz2un76r3PxYiZQxkOBsbw4pSYGAB0kyBBEQQ6aXxEUQXIQ77RY40qPHn/hfZ+nLTNrR8Df7GB5KHP5JYr71vu20bDG7T4FMMrbo3Yms6b6BQBFWjXBqp9iAO7RisNFXTRqMSD7LWST9P8aAuS9Pys+W567EzW4aOxhsKZ5C0qrtjrI05xIPJbFbufuXoc3vSO3j07Q1pFlE3KYyRPPcIworAQzRACPhS/AmKEcWEYQ8YIwll/s3/Qeyj08ukeqX4Ny8m2+1P7po48g10KQRhTV2w1mfKQNm4XFTuKgW+leBXs2hUW7Y6S2KyiEom5SipyVmKBc+WlKxQgm77iK4wkLx3G0pvpkc3/PO7Ny/nlG6dwjElPnQadDF75enKnLf4rfFfWp0Xzfm92XtlHUVFG0QEMRCgV0Ki6Q9t1kNAJBKFTKL7+BP/K9n2zremvRf+td5s4IuHCRvvQdzm3HvnvASlE4WsE6OCJ2d1TJO0pXobE8DeYVqkGXttdL4TnO7qBVIo1lzsNGwy7EMEW7dNB3WyGnfF+EnZdOWt6RTHVExrzMcTU5P+3N3kzq3Jwai9Nvnfff/z19+YvVf8XMLCUdggIRBCiIYxXJUNB3VNBKKGuhtrSd34rf9pFfBpbJqTz7/7wzfWrnvdskfM09wq4E0jpmt76VODSrFvmDT6xDiJOaZ7pilDorNJVnFd6mTvVhvCpvZer7MLjDsjS2mv0nme75WGcLSzzTfaF85RMHJ7Z5ZcOyhEdeWyIQcFJ/rg/uje3vaSH/113b75+on/49dBey2gAJm1QoiazUvxhxVEJZGYGAAjhXT0L7plXHYFF7f/0+8vpwX+kr3Y0KYYWbv2224zzvsOmolS/ThEl+YFmTaFtJvFTllLU0txog+EddWklLRBr71D87b10tFsrbO0b+JYIB8ddX4UE6srSE3SWMvWjKA2UWeda9RS7YdkS0Hps9m4zC6e/zu/UORvfOvVn9l/W5vggFFUQCXDluQnDlsBMCHqzoIHHaik/w3h8bitmnX+V/XOaZH8bGbjw1mpJqmGp7y8mCWxuBilIzHBYNt3xauSd0ltENxGtpMJi+Y0d+Ci7thUFx3p1jx897PBfO505ghCb8jLZJTzh9SX3ZTaKi5vy6tddHshwWDJhfZd/fR2kk/cid4+5N3Upa5+fnTvi9Vb31WHv/derZ0BTwoCy+DRXtIHTEwclReNnDL+8RtPuslZir79O1/ddIX6Gcpqmq7ysMk4OTjO51GmvcnHXFQlGjXmnaTpxmtKgs9x91KbELV0ThIkDOEsRpCzNX9pfDz96je4Pui3k4K2Wk4vb9L1oxjnRTzbO7ne7ri2o2fZTDIMebfS8Rbr6Y0n2lsV71cmhixLfrj62sOf+XvvfMb+ASuJGiILXu0d06fFAwUAqCTJIbLLd/+5J9vHdP3j8pv/++NvPhjDL+7uqj0oui66pemLQpM1m3SunMa8j2k5mSqkeEmK+pynbZIoa3qT6sRyf3F86Vrgiws8eBbGyVv/yo3EIV2efqjWRTl6IvObN3duXhylC4wFrZYrF5dPt+tg+uQwFbA3DmPK0Vc3nZGQlDujzxz9Bn73a5PHn7vHGCBG0qkgqwDwqd7BSCQoQB4JDMhfXvTb73zp71//j/6+lVh984+WyuU2a3dPruMmL+EwmMYrZyzYyo7SVJQiJm8gqTGE3uXM3mrlUEJ9WWVN4j7uzCvUT8/J/Ge5l/d26Fn1Z87xbLmPF2mab3/osSefBoPRPtyRxB0wZaqbuvF4mp13PcR8xnKYLs5xpzs8/pu//Pj19z/+YneMjkQYlACjqE/0gRANB7aQhTmqX3rl5GD/Tx7vfOfXEjNW25+6RY0hGMFIrxg34uO+TXNPITadKlOT2E5aZzE3pG1ClAT00VlVJtw8uKi3o80Y9D0HyYqVr6tU3361/Mr8nX6cJDzW68XFQkSPm/U0Hm9bd3Da+9FpjOKLg11bQgjnGvkay95eQVM3vn3/Wvu3zuuD5Oi/vIcmBwATKEaF8ZP5hgyIRAJoRQjMn1ju+B6OTv/jzOkoX7mjENvElia7uXLiLwtKD7Nij822kBuj1NY+CTYDHYKHxEOwIFZZ7SXUDtJ6ddq0BcbYp2WZau3YwLGBG1lCbtK31enqVETxo+2y9Tqk4XtxFc5pFdnnk2vX5mqx7Kn1UylS63I/6fPxNO9/c/n45+Tkc1PqDKpWBasF6dPzVQyAgEQcgYH/5DgsO/wY/i9Ze92ge1WEtYnkdqO++bFHt0xJX791/dUbn71+I22DUBI1+oRULiZIYSAa1qr3GrM4CROTzuD2TCc6TfN8Z17mMsqoKpA5DSzWernoHx8t/fzccLD2rrF1WIEEW/W2qHlxKrXLbRxpu0PTSRF31Q76v3Xw3l/o6bMT3QGYmKjhiM+n6SlEEBEBVHLnF/oUL5+mvxJ4X7LwY20S+l6U0uksZNM+NpuOrTZ2fqOYqj4zJpPSKOdz3xhnwHObsSEPPoqZYTbbt5w1U9tTke1OJ3pm981OZpj1WDBcUtYxXMb7127f2K59e+JcOZ+hOiqpsiF4ulxI6/IdGEt6sdVFm6e4GyfkfqU9/SPbvTuTREAUexKUl/JT7QGFgUAw/ephM3+i6+r3cuO4/lx1rc7dhDIVOBu5sbrca4QSB0Y2zHnXZszNKuTVrHpQaNnsqeta2dbtVuMqp/7O2Xo9oW3e9cXOptHBZDSp82Iil+N5G/TO0cPZeIsHTxYzp26+n0hX7EPmjUqP54piytL4tk/3ghTUJ4Y473yWjabv2OVv8E9//vu3qgVChOGs4yf6AMGbKCyKQev8jy0n78nT7K+VMbPu5i6FvOXVTmcxwPis4HWTWuhQxQ4JO+PwWJoA67ZK+298sa+PquTa4StF6fINtCXL7uiwhySdh93FdJRVSdMqp89A3/dKl7y9nrfmcAOJMeTl1nYMz6rJeJV2RW47b01dHFN9q428r1tgV7S2Kiuc6NLj6vnbX3vU3dycKMXIOgp+Oj6MnhiIDUP7y2816533Lo/XmElDb0quhQQJTKtB9k/D9Xbsjfgk5VVWbNeLzgAA53Q+e237tLz2Ubi37v00mU4T24tWkY2LM8W5Sztp1XbWYYLzylykrttf2gVWZcQuT8PkJDE3s9XdurzMu+lcLUunOWnHm+uSFxOXzhVK60Vd6J3N2fiMww/2H37xV25PqgokoIjpPxkfISBgDcyC+Z//cNR1671/z8JozW+F203oQRNmnQ7A2X7dXp9nDQHX+TRsF3XPq9UshdhmK/nyr/g2V+kBdJiYdapZ90naTaL1W1OhwYRNt9Ihg1XUByCTvnAj2QnjyhYd+nEIuuY0bsp2cj3gtB6HoOTOw8ROM5VgLxKpTDY7tUzf3z+JtH1g/8zz5WtnipGJxZtP6onExEgekTh+1ddKm+K3+rgz28xHcwVAhr2tC8cqNeM5iA6paslw3a8guFXVrHcmVmFh+y//biIwHrXXuzN3GOt2XFA1qzeTRUe5snlksaYunTNUCwedmXnturEZPzVNEg/PXPBJMDGRqUr9al4rCQa/4GHU08b2xtlk6bN12bDbvPJhaj7Y+3s/8zcP7n3HehlODn4STxWiAoMqMv3I3lt9+179XT2Kj+ObSb4l0nXIElsnNnPB+WW3jU3Q2tURgq5g8tpBdqIojYr9zdceSaHP+t6euy36SYB+3Ptk2YxKFg4+ddbMnNKUFZke5zGu9OgAXHdg5qNds1/uXU/iyNTjPccya5XolAmU2bIrkYoEe4aGa3VhNioLW/Vxw9c/KooOLGOkoD6xR5iiIAiY2eefXxaP4vcqmU/rN/dK9p12WZarkAu4LGXOIY8TF88vTeiwHRW41rpfLREpmOd/7LXlWxdWtcncpF3aTUPV4yy7vh81xj5QVxyRqN50FDDbdJRVp02V26nZzyayUQdqZzaWbG8PirHepjoJ3ovJBR2ojLZ+A902hNCemfHiFlH3+PSbf6R487AAUYjx03oVKhEVohLs7u4lMD3d+wOVbvvJW0iiYmAwI9FeW+kC65rNpO/bfG/t077zbTemUoUDQgmN6X7sa5MT1bL6zJktO3WWZ4Tbqbt5XvgOt9PV4tBHmQj21diNNaxtGbZ1mk5EidlCBv1+4UyplQMZeQOFwwZToyKxa2OMHlzRZt+BL9jN6tajQB/Q5PDtz56QboxhoU/0jkcIRFEg+ank+gpn31jHondfjNaa6NGYWZIoCVwBl30s5eL5alyugarQez1pFv5V485KIgrVtQkj68k5TOpTUmN0KnUgSjTuJ/uj6/fQFsb5Biamzz2oeaeL0i8/6hKdjQqgMReZUaogMZAStBY1dSK1b56vt11kFy/xJNyblddfKfe0OuPf+HJu73ivIyN/un40IykUxNlnp19v32l+U+F68/kaxCTptExu5LGNBrbb1lfS1UfrUI68Fo6xmFpTzFbnqpjUAbbJFp3/IrpYRZVL72oc9etk65ftolsZXkmzM9HXbTZNqRmvMI6arPFNCjvbpa6t2ykizdOcu5o2tubKSmsT3PRsVe9Dzxu/YnEf7+3uGJsfZgTx2WVVqsySIvTJy/qNJbKFkIxg+fXtr6Vk4Jcy26aSjLPk3khjH1pXTiapWclzLLKsSnyUdAyOyJrdEmuDWTbl2qkk7k+6nW9Wi0m9zGgTU5WldN12aaS5H9Uq7csD2LTTWmuIpWdb+GnVNef7eioGcJOUqHFCcNCbikTlLpfa0FjVZpOeUde+PZqU57nuZjJu9AfPy/E7NwwCs4mf6gNCkEgR9RcT/ZPTDy9cgJ8a39+qLlWznHwQ0hF4WTQQPVkFFEon3sg5RdKrMYcInuI6i2oxUp4hjU3arrOuymcnY+y1kky84Cq52HGQrdcFF+uxr0tft4lS2KR+rCS6UZ8ocInbXcdQ97lUNN/6UASMEA7Sc/0o6cOD5MYs3E6OAhGQpB9/+zOPDw+PnI4sn8ZTjKhUQIiv7bVQPz5H94XXbBwBjyYcL3SnbZuYLDgII8FMEKWeqoitIZd1uaRuk0jgkd1wyDY22b/kaUiKxqqzfNYsXl05BYhhovR+0x9c7G55z+0/nzdNhCxfQr6FaUpnZOqEmajCc6GkaCkibZRP+kBGFBf4cS7xwa2DUB6q4z7pksM1Qr96+97ilZOyJhLWn+bbGIFA0muYLWdHPc/eQp5YLmXbuGaTTNVEVTFgtFvIICTeZiFka0KUmAJF1fW5NVADB7jhqm2flZNFX82XhbRSrP04RpPUYVLLvFuPVmyqTB9cpiSb1EOS6bHp6rgx19cqqjZblJiryvZGJHN+0oomp8WW8BDUW6Xa3atOFw6end8nM66Pi6q8Zp0WieqT+SaIwkow962qH50iFiXpGcKmDe0CU1Q2LIMCjmJyZuOEtknWjUF0A7ZD08XCT9d+st1LcLm30Kkvzw+fzEi86WW0yk5mfRYgrPcvmSgqNn41CrtrMeLNaNcZWk49l+7jcfj9S3f4+k5iKa2JR9EHvdSqgk0srvW7+TaYqfXPFm2rzi/6xXzL7cUbX/sbfOs9oPBpvZcVR6SAEm/MsD7DrN0jnKuzsLnM872UaYdOqQ8ep0p1ZfS8ak1SlVin3eQUM+eiWo/78WJdbser+Yk9s90ITvV2lhe1CVWK12uKbaG7J9M6ma8hX5YQJIt6W0Lki72QmctVcTnV8p9UPlldL7UrNlY1UnKV9Knw0cZnp3fzPC0aH+oQXOoObh892DkCe3r5wc74xkchwqf5HKFSqBQTffD8vUrOoynQwio8egAHpSbcVSvgyxWMMgkWm8uzrjWsu27iVXHdeHHhNBVXlbrCM7chVhF8Exp7lp7bqpvHybLOFVcbN5MpbyajbLKZoNqucc9Yowvuqydn2NAlfbtJE/fmtVSVAbAv9GJdtuiJrC83pz9YAW+4jEDtKAeM13/U3unreLbyel5ipE/3G5ERwGmD+Lkvvvv4JOheEszON0c/ahipVGvp9cOUu7TTI3XZsE0yUJjUm0yEkrTxJ1El25RGrebKbsTNn+7quktkrY5vyaVajOtnh5nV1enh+V6U1JGtKrgzicqYmNWVD6xEae+OvLU/+wuOtykKJAvqedEGbnZCus27/tHunpKtQD/yI0ub3trZM3ab8CO/8ma6FYSX/AGDJsaQCO433M36LYGT9oaICW4rnJp3MN2W3ivO0Bdbjbtb3WVVN+ZYwAqpvbhVoKv3Nsa2iuAJUOsnEVQyWQiMydErWz6bdLOLUVMVlPBsc3i5ovmZLs6gXSqssxAb2Pos/MTP9QnUFJMWkto/W+FoPXqCVoXI3Uk+RYB+amHcRXVKo22xyU+31z9jDjfs6RM9ihopIni4dtA3WW+z8baVTtpdTNsuRqLqm2GCZYVexaZTpwlkW4iqSvLm2J2D1lM36nSfGMlM08hSNrlEgFXfnT3RlPQhxPMKO1Gba76aJ7AxtFPn+0WfxB7bRkOfm0Rc+Th1X/rqhtqVFeVU3xXrxsYz8cF0SdW0PTzsfISdg+luLMjGaFgpV5+d7dd56OnT9YMMgITGjGbJk03fo312SRWFjLLYnJ+fVW9fuzneycdtqpC0KTfNJQHFFHkpZ9CROfwJXJvknKYmTkKdjB4uirZlJNKTY/AFk1LYvuGC5w4fNp46MDZvL3TfL7rzauW3bYjr7PmT5Rd+iUqfjtFXG59SjCSZajWseDkvmyq056ywbsp0Qr5iXwgozFbbn9zObaJeOi8mw+VK/7n5WXkWklG8/K2fsU8KzUq3J4rlcGoxV1sXvWYe1a6fXeg8FvGiXdm1Sddnu+Odi+00ebqaNsnInF8Iw+EqFIzrmdGXVoci0qmfbJ+Pvf64yCahc93IXsTpRReSNi/OjseZe0qzX3T5Im2Sda4yX5WbnfOkSRovaSoYxi2HzV7XmwAxXW+XKmzAdAq6x59xGaHDT/QBI1CMKOlXXZPubtHP7r33w92T3QjtuB9/DAdji4kVW3WKEjRjv1ltC6ZRBW2bW6rMVBc+LNYHMN8xI3v+djg9LpdoqXYzN1tMVxPpVShpJfPWF0Qp9WDpcmyfPk6yvjdV1NcfTU+D+ydZbaxxksYP4nXVZN1hEwq33QmbQ1cuSaxxml3X221Vmb6rCCjN6x/+14K4aOJL/k0BUVTX79wxx6oZZXp6450/9uXq+RT04fKzCpHKNkJZBV/2FkdijxULVDd6nzYjb51wcanVLVVmjp1L7zr/+3fnIVn5WTN5Om6x7/NTSqupO9rlsjHOlcR+fLxd5eGyHTmMUo3ePjY/e6Ojsk0Cjt9Z6s1hV9U66/qd01VmfND24Yy26djXQNRwEp42FTWzzl5+nr/2qPBOv3yegjEQH04vK+WDM5L02sLEX7jZxbVNoyfBKza1D6YeBd9N3N6qqS2buzWX5zsYxq3/IOTLg6MET4p+dby/2HmsYyzKepenVQqNXI7dhUyXo2tvx92tbtqwrp5VN9OuLnOUkPThvQva+amAMQS0tZxPe15zdSKY5+vpMktZO5c5akqJ0FRWYjh/NtftRulWsn/Q1YaU1Pqlu/VIpk+b11er2GnDxWEcRQJ9HuYn+Z7tRhdIreikm4SggyqVDmtJTinLTvNKVuV2uVMt2985ODvUs6o/dMCbH+AmH3Wvv9Hny/ly7KTZ94939Tl35EXr8/XmXfNRdlgYn7E7WV4s9hZ/KhZV0ecxmAb8Zpzw0uYX2KJgq7JgABa3+nqZpI7I9xaygGd2tt/gx8nZ7cOTtB3pl46HALAZ48lYIpY+x7Pe9h1QdtK/6taSdO1OW9S+fi0SrUK37/eXY1mRb21XWYubx/5DUXG3ml/cPTqK88lBlrtVSd3i7EtpzZK66WXB7Y3j4vS6tLYq1Xc/WqvUHm3SzELWPLuc3wo/WZhN4SUW1fT76XJaJ5BvFtI24ebTmbK6Uvros5WXuqtMpfXxe27/QYd4ouToR/47/4GJPfaf5guCbFj6LHtStNJci3a8idGkvinaD/JDEq7Or7lmq1ejnpTGC2rENnvbOuOjEh9tN6hDCrrO/d4mhNkNVUh5+VruntR+mcXO6XHc6aO6nPdmPb6M19IH9p6/rCqp+m3RNtnc9unn9jPnU7cZb4qL35+N26jjMsPs2RcfH+89VPu7utmG370hhNVO2HRH9OPf/6HW+bWm/FBv/+qNGbOJL+kDUgHQyHH7PCOHTTcO2zR4402K+CxzrqEnuumP42gM3ulxl7RzXjreVDv9D4XDREUeb7HXhqrChtECnydJXYxn/FtbbXdfc1MYLXN9SfB0x19bHqvXb5ytnvAyeeCwsFvaU9dgvhmXXSf6fP47X/2deciPk8lpZt96+t5sEhq/qjqaXoZxtObEbrc0WTzNAzaxAsOzGw4429hPz+8gk4hf6buPv4lIyXQjfHZHha0GN/a+l+AxUXO+hUFzMeLYPTs4GrVVt3ug/t5Ofuvs4TzlCmJOVCt7eedxp4oxWYqnwVzaWdV9/ok3k0VnVJN3F88wHtzinfYg7tWzRQLRdUW6vJztWXFqFKPcuPdoPQ4ROM2X58ud0ajAix4LKzNZZxcaqtHEvFZt/0DH0YM7qV8efPb/logzn9avo2hnOKnXz8prH9W7dJ7m2fNXeswg1SezQx2wTVRroeiNYs3tLm2fd3O7Gj0u877ORmeqZadHnDavHT/Qt5+k2d0ni/Ri3+wfj1ejMP9cmZXLpdXQFHprNueT67UzkuCzVTs+kh1riSb7owKIbeinZnqWhcVtG56pTRUv3qLJ2YN1UTz1M5eMk51sgyG0zz3efJh19rTYBnWjcKPGfJrPGQc6EDhRZxc1rrbTTvR57xSIfaZo1HplFVhNMT3PrU8n62kRqqf60e0b5eUriye8ZS6LM0mb9LdgWsINZdVBvq30im+9fr8oDjpXHn/uMrZmslZ0d3//hyc/fny06R4dQZOV1TpCePWe7akepc6uy27V2V/+975x/XB0ftr+Vz42ti2//PgSvvSYJzv3pYW5IoOeZ82rDwwf+E6aksd9Ia1+cZg8ghCIerr5ysG3im5qZO88vZSk8nebmxUtVRqp1+LHNU8MZwlm4E1+/Vtfva6a2x8X1VMdffcwTbhY25LP91wmekbl7zRo+L6qN2sfi5sL3Sd9/vrFpJO78996SPz0fKSxSEJitkX/ePEL+7U5S2bbvCkmR8nfDp+dtBcH3fR4cnadW7V3it3drs5Gje0AfMxMcXH3Y8vxQlcHHWd9Gl/Ud0RB0JGQeP0ET25+R4k7aPXkdKXN1EL0O1owBnYG21FkX1BjDRntqi9c2xbTup7f2Vufa3/rtLWLooXEnpgdUppntUrrN9Nlh5DEUNm+TASeg4ynl7s/8w+WdTxspEh3bG+WT61efDu7CXkSgVRuiuJyBxve2RQPbi73WBGayHqK1egsiY4tSszZ7L197YENO901aVXD/YvjIRhRMQmwoqOYFjtOpWewPplnfZyH8Znq5kgKtrs+p7IuKg82bYKqXGZkkvWXd+5djnYP+KgVxbKc2zsrr55nLrHxfjJS8UFnKROAkZsk63E+6peb9czuvMrNQ69/JEOZbEcX8w/C7tnv/vKo6yZlk56OxzZXsR9xI6/ESXdtYajesbcT5yDrWnWBWZHMa8cASIU9uvlj6/yj3gatX/TaiCaAJIrmR+tayqDSvuDR9NE9zJxrXgmpG1/sQUkEGlKbtWpelUXrk/kj2HY3z7KgTf8Zr0/U2Z0nN5LNvDV+8plbl+NFatPNgdfUkXG4HmfbepWSvraW4sePSisjHne9t/UsL0+epM/+4KeFtCdVwhubBTc+10ksTHdjdkncTzSHduKZDh8lHFElz6N3B9jbi9nt+jJvEqf8lT0xZREtDPxc2+0yZhtJF93hdtoeIMAuEyR+B9YT5VSwkCpFq1FdGujW2aq5LvnO0mwOu/UoU3erL29+wL3Rzf1rHW3zfEvTxR4UZVjmcLM2krHi0k0w2N3sC0vhLjPcJH0yHl3/Ln7wyiu+Vl2S1km4/6DE6cal2N6arEVVZhKD3fFk/KZw5SSZt54um9ZA32bLN/8unjfav6jHUwC2FMC7b9Qc76o6sTHEEZvnHJO9UUcA4M2sa8LKEhlO1ITz4AytTtejPL11bvprKDstClxz8XC3WPpid8m2HFVZpvcxDyG/pvY2ut5EaPPgJCkCQDGf7RYQ80mftClPfm7e/voSM5tlYSRzc3M0tpIk/s7cVaGtd0gE6eC6gySO9vfu3AxAnlyZQKKLbhEgY/UiPxUQjsEiUBVSuvSmi90qH6mDnzyr+yIppNk0GaI1Me0cN22AmAuMGzvWuSmn9azdqZcoe0mGx6G5vbefZGU+IvKXwZGyeoTclhgsZdclhE02PaxBjcLBobHXDuYsu1QE59yBXfzqhQSvMsh1aW+Ni70dc6OQdfTdWJspJAeTXjdB7c1vjrqN5h0VmS/rues6s/Tqk/NvKIxCLMiudaAzypsJp6WZuP3zOPbkhJ1K09a4JunLaNmq7axDYri53kfgMGm6g0qdabpAvrEZ31z5mK5QUVEXjhp9Ml/bh7OkznoK80VmuZ0LNcUarp/Uya2TXm8lEeGvfNB9tPlTO6rjfJPQiEcyHoW0gm6rSiI1vZYnncaCD2YjU0uyMDYZXbZZpf8oJucKhT7ZP1VRiSArMdOq3aFwebB2paaQuuyBmmkJhompaMms8r6QyTpR3vkspMk0wpYWKfKFL1vqwpSoVPrmQ1kaxSWFSQDUs67Y7mdNSoozSJU7PLZ1kqaVrrOSARLOGlOlYfnVX+ue/M1fnhO2KujEbDIZb8jEDkpsDvZNO94mNm+nXHTt0hkUnTqVO9x5Nx5UjRbT0ovxUcSiNGq/XV0TGavgq0llexJ1uEfYXrz3/QfH26gzz12zWB9lDp0uvKIYmx4Xqlt6p59HSeaU0R3d3obRrLBQ6zsu4ZxPdNR+JdBONfl8oquJm2hu8qjROj+Zx5Hv5pzTzt4sPPrPlsGRFTLAEF1R6PLOJJ2/fq8T7hML2ThX3cnTDcUxj1S5rVDtm+/RD0CCe6Hfhh49EVi9/4O7J2QaLlt/7WI8aqdxR7U4O2h8KK0jmvjex3G2xcli1NqObVBVU1MsG8f1Ibl6Wtq8E/2Fc6jU9RVdzprC4pwFrVPBLOeXZWZC2bg63VmkMVg7Wvt2fFIGLJJav/bbefLx3/jT+xiUqG7ubK1wUs932BAWrY4BLdrerKs67xOAra8FOd2aVzmmvcQX53uN0owShSK/O3dNRoB9XqDqKD3c3dmflFlx42BkIyBMEvDnJ+d9laPubeqhIVTBe6Gz3F3iwe6cZNJCWnCZLXoHfd+LqT3QdrJxXbrcTf3pfH0svbv0dTnvVjI1+7RfUFQN6vs5b8cn/+73HPrgKfo+02wzIRWCl1Eykiz23rnTzmjVUxpnSyD/VvfLz90z2xt+MT4B0TgdgYk/WpfVZOlprfReqhVYYjuJHt3IxRKIsz5fuLhEmkWf1yiYL2vIoMYLXKkdvxn341hAk4OJVLJLMNUect3Z0JiZ5vmG6MYpl2433yqsMd1yn9VpVuXLqpn26S/9ukBRfR1+BEFNVwnRNnV6HFlLJ9typVVdZSkW1AH0Pj6vOz2N5ud/b6S2vXb6k3yOxBEjQFTfp2nYf5BUMMp13u3iRW3yCBFJjXvtAaFsJxvVNckIPPviMmE1W1TMcnD+9C6gU7knBbOY9pO4kWy3to12XlNJfupzWc6q+L1sZEePx1qfQ7rNL8fr9CxvpjPNAcybk+cr15aj9+c55LEuvTFV0ltIO+HUgXr6iFK4efgUFBZnpY/ONon57h1/dJ4qgk/0jggNF9Zp8/GXbz5tbBoSMtbax31vHGKyBryNHkIakzTmjR8HN+vr1I+3uye9YHQT11OCqgwNIufhkiV3/QgeHxYYCunmHaVbHbZJz+v7605XqsX2aBelM10TTNZXOr9x5Cf+/mtbCMlmty7dZZ6ux2CL2nivew26Ds1y94G788PX7z4uFj61HXUT2Lt9KBePrAHxn97HQIkEoMVfPMrwZtufSeQcd6roP3qwOD9/sOjbVZklmlMAO8mnoFSMVraBLlhaZWO3UTZBfZgaUF29mOjjBgrV39GX1XN0sAHMSLdj3ZxmXVXUca6fhOux8brp4zIsMgrr82J3L/M1JaO4a/xKYOMPHK/6xKVmk5MKaDFpdxY/zB8/mI4s+pV1utkd7/3shzvfAed6/uS8pSApJcyK2uc8nVyHdHwZAFab8Hu+PVl6k5nCboOWEAzpmKTaRjf3XGwCmr70PSyhn+z5G43ycHakMg9fZoBi2uTpeBQNZll3nGLSnJzry2p2lleL6jpA6fs+78uowzmbaYp4oo1KWZdB9lIDVlVAybYxlz6uzy+xg7awdHP5BFcPHmLAVlUY4pv/69+bncEsaIMv8lMSJo4oilVa5fcf3fhuKOEHN1vgR2rf5HHscoImTSBhCLqzgEVnAhbOpQB9KHndJL76/MWBm8WQ97W1crDY82qd5+3s8u46ltixAlVzlrKpfHKW+tR12ufO1aPtbO3YxmnS7awaixx7a6jFoJN1gh3nRT1tjyuG4z2XXRLNbj4we0G1DI/6M8LX+d/48M5fV+urQ2IAABRJCQIbEIo0vpb8XJmOzPNHF7pav04EuUqVa9vnvg9aE2gjwEmfY1DEFMGce5cn/az2tvBJqp3Je9kdN3ltUp0S9sZE16YlXxo0TXfiq9C7ds07KgEezXB8qWd5HJtaL0N0VZCIrkvGBlDbpOi1g+12JdHxGfdTMri388H3q22AS/depm/fnLr180cEyn9y3lIwaoGoA6ueqloOk+nycrQ6rwJfC1Y747BGqaebLJcAMSWToLcRpEkt5G2Q5XQbq1dHcezcD15Li9X51AYeN6NRk3VikzpRDaZ9nIaq7JilN56SRntO26Rrfdit4kEm9agJ+anPFjv6fKrx0iSdjtsiqQHsSlUZbEeXB20mQc+ON7+fFghP4ODZ3fBL79z+T3tNIOFT/QYMKnoiJvsHlZ6ff+Vv52wffg1ubUO9mggqtsejTIo+1XodOiVaR70olCOstdUywfNbhdyvH3x/enLrDhVahefjN6vLWUfdaFOezyhtxG9Jn/qwJ0lKqg2ibCCzLLdlc1OHhbLHKXxYSQ92OvWIKSxLUHnC4GyfhrJl29rzjGJc+dGePzpnv5nc2+xPF0vzsQoIIOETfQ0CUQkiMBxEuL968zdFaNUepNAEvXEI5A+L1FwEvNllnlVEIplGLJrWinFTR3fG7b2j9y9j6D8sJ4sbcDTKKktdwgfLxJoFbCkBcbmdXkKbragdY2+aUaeKOEuTNnlebEdptQjphS+WpYvksE8EOlhjlkTOiqrOuU8rkxZ1kuwrc/DByh63337Dfuado2bdpz0R4ifndyIDeQKWJDx+Pkp+eudHuy2qH+pajXaKa1OKdtdCGvny/NJ6MhrZOx1Riy5sOc+z+Q0K+T/428d5VqzGJ2gunptkdxLi9ILqon60aKJJfXQJ201h0sar7JJNozkRzHfV6odPRsqE086aOozX2KPXcZKmsNVRAnvq+mtR61Qv0WGyOzKmj9nEOhTzluTu2tttFogCfDI+Q09JxECKY/WYzh7+hW9yNM8ak6XBxGYXMq1s13NbrFMWJTYAdRyD4ciCI9f19OHZSRHO7cOdhX5w+3yvmGZnmG/vwmXb7T8za1NKW7aFJ65rre255fW41rtbVXWXm8a2JdXRNemmdOMMN7ql88xti/UjnuQ7IQV/c7t1GhLs0rHpO+PRUav9W+HnNvD+wzyA6m385H6WMFAUYpRO6nfufD3+/ONfxj4x34xNLHbKeT5JktySqb1bXbZWe5cknfVJmumypPTynbe//fX3L22XqIWO76139m/fHG3PZ+M023YxL5tXiok63yZV3sQQrM78Vpdmz5dheVIly6ZmV21W1SXH5sFu0kt1nkZXaDXXq+gXT5+QV3mWxFQpA9vFyWaz7WO/9RXNb37YPYZfCw7IK29e1KuEAQV1FARA/iHsfeEb4Sf+Di3Hj47nytpMShLiTjzIer6APh875wvPvfYuy9Hfpj84YxPKbHSaQ/uz92/SxPKMoVdr5QpZpA9TTCiEHHTaE5d21GEFy3EHfVIutrjbjhomN2n9d++c7Kuakgf3ex9TaQU6P7/cXDd9EuxybJbkjVAkpmeqEvrs6r91tLpstIOoSIVP7tMqBvKiREBYvp7earc//nf/6X899f73/kS7mSQAxEmlHTQKNjLdnM7uqL7XCWGfNSDT5kdfPXr2pG7X/eT6wc4oF4tIbVonKcTQXMCZxgu1X+egMduoZO3a/SUV8Dyp9Ma3oU1XZYQuqdf2YJqud9qqd6fXjW5jUSyzJd86f3CtKKbH+RPOJFEhmKq/bM4v4TXafXqGvwdSOKUdKrq6X4+agQnZQNQh7f+tty7V6j37fz6K+foX93bUjvJoy74N58tVZiYrBeWtaZMIIEJvWPfTFtM2eFFNknYzRhM6O3IQWYtcLltXVtLrbOIWZlaPdGDlbbBVXXWzPmHTwq/fupXwZKFWb11S7DCmxievKVKhz09Pm4ejA90e7sDZhSxOkhqaTLJVrM758GeeHcL25EEP3kJAgfiiXuWBAVCCFy89/Nv1oXQ/89Gf9Ho5/vv1hqvFghlL3PZBTZMm7xLwm0QpUJHKTm2oacgnYTLFNNX7pFAaay/9iCVZLeIZN9Eh2GqR3Ld+mvlVffRsC3obSNdJjNFd/rFpYe2HPzzeucDYZ9G8o9tuiUK8i2MY3a1+/1gfndONnWR0t5iV1FTT16vjovzzp7Z+tlyGLlDsMQy9PK968yFK1GiQKOoHx2577ekX5l8KmeVv6eayS1D1dVCyzcTYJo1KFVBDfP7hw6dpLHsecUuF4jxX4hz7MOpiwquoLq1/iCeuTWS8Ajx+7mFZp9ttV8Seu03/0J76dR/j9tXYcXrtM86EzVR2XPZRkRADQAWTuUqvj85bc/ykv5kn49n+ThHb+M5pWf2J77iwajvEbGiPGKO60tcIiMAqSBSOKvT/shsdp3n9l5K4uXnya2bSOmvRBSdJidhEDzS1vdo892Fzft6JUezSddzGgH6yRUiEJiMJmVOprqLzvNr6xhSa+3jB1dIYHfwquB3zpZ8s2t3uwRv7Kyroxl2egpo1u3E+vrgMeSy0QhWv75bje+PnPqtOtocpjk0K/fXffpxWfwWC46i7VkVCoqDgk/O9EhEUCYEiIkT/4f+x2NvGg+//JYDjW5e//jzHVUMYTCwU9ahTXYSWltvNadXIyVmMQaUhiUktEta7nZxH704pDWXvLJTu4O7urHq70s6opHXbGlKMS7OYSl19K7V5cv/9c22s7TpJb4wmsy5FErBLbELufR33p8Xs2vzxmtqjxRh76Pt0LZb/yfcfo2XvvHMcfWQShE/0tQYEZIAYFAjq5G89BKNXe93PsWzL8998XsV1jYDzMWonQNmU6dhvlk6F4PoHJ7HqxKc0N7FXZymXonyhWrdMxzK1E7eW/mC6fTdp2o9sp4g8LXJEWBCaQJtR3KfWz3auv3rrEKcjE/oezTSsMG4d9M+Pjsb7lI7unF4mvG0SYxc9f2zCXznbGITo64ajkkTD0Hj+xfiACAKhmEjArq//6p1RkDL7ylvJps6aX9lEWbUaUOktmxSK1Kx4+S5ZzDpP61Vl2RgIbYRRM2u8CZXt4pizdcX2lZFR2Rg+P6ZuerF8O2zrPlxOVt3FNhEVpjfncV9Zjbxjlx99vHZ2hKx5hy2jWK8v+rNHD+vDaTa6tj1KlfbhSVU9zPm/+506EPuq77sGAnhHQ6NR+pRiwRiCDiACIO5b/9v5oVG2+uO57hYT/r8vt/3C9VHCRiLMS7o8bo9mlkwL9akGDzZE0taO443GtLXOTR6D+OhZ969eEwyeJm+Vqxs76nhz0rajV3gd2iXZqpjszH2SwXS+rTbbdlXH3vaSQsq4zDVH6HBTPb1Us6Q4PPvw4vnp84tHJzb9K283AEH6vumcXPWoEoQX95mEIgCx4qAjCgJp+qu3vjLfyuzd/96/+yGdYfjVP2KnnfRUqzTRk9L3yWWRozJ5V0i7m7BOQmQOCi/o4brc3b8sRTd+3U/z1EyyjUzCOKvLB6ev/+R/PJ8BnB7gUX8rdiOdx2S0PU1TyPQze/r6xY5eR+5vU++xSrzKbT05TTI3oqQ8eW9/c1EF1rf/3K+KKAxdF/rGDT2WYWiXSC961ehh/zTK0KjPqX/j6f2be27/3T//1ZojzH6zeRrrot5YtkWimq3UxpToJR/n8+uZ1VsSjCli8U4AOV9T0ksSBNzq2VZRmqcZXPTm9R/5J/76dqoaFcgf5r/Rz5R0UczhvXt7mVsnbXSu9tpS6AIkPokYfa7tgavDctNjf2v57jqF9Ef/m78BjNz3zm27CMyMEUFY1It8gYUjgyCJ0sBahCEe/U8WtBvK/P2f+K9CcnN9/h3/vPDNJM3UCNvObHKCmkyui/3bOtUhj13coIpPrV+5bmtWBdodpben2yet2SeXTuY5bUd0l88K696gIuT7W6ijE3+ybPruMjWyj30enI3+tCYwbcte51kCsgtdQP9ELT8sAMyf/eJfIw8xdK5rfR8lUXTVt1ro6kAfkgy4CFYytB4UVub+v9q/c8LVfHXzW+vv71f2a4n4HaRZQXDplzLq9I5AYkoLW0tFh88aY6h4xlua7MwNRpM85/M+tTIxNjZMsWu19BdPD+6CGXXHBi4yc3izPdsu5/LZJq0+tscHcS99lp+//9NSZXeS5Nwjt2vCgEt1unnckoj5yx9+61pAlo5du+lYGIFBe6Bg4ov+VQhKRLFiEhAbBUQwyg//8r+2Zz+Ag/iDG+Hn3pXu679wsdpjji7vyDXptihyoyXjzYXHWQqPN66IPaqkhrDKdDAQxgtrziZ6uxPFBorleBXLvL/Y02Vui4+ytIwNn2xDkPXTgiGlsStD4/tz00E2tq65DF6Dxqgr+bA67sm09/8bv/1kz2GIPXeuCzx0kOYghBrwE76MCAioKCKALEoCsFDy0b+8Mz+k+qh7/BPrp121/Ntn87chib52up9hujvXbtlujp5uFuzaOigbgRfOKUmrvsPekZ2MZa6a0GRk097m6WS65mRHe96sw2uQaj5MXTzehoPVZWF12yWsVR6Tu8rmE+ifXbbgES1drh+vn3TA/ov/1H90mcfo28bVTd32AowAnlEjR5YX9R1EEAEZOior9qgZIUT9e7/6T6zMd2MGX/+Ru1/faHgf3ljtcFdKL5AmSb9ubT9ZOZCwzrfSb67VkHUA/aqQRCsXwk6CXZt5DjEJM7a8CSpFr8z0UT27eauv50WfddPNgxucvj+TdOuKyx01e5hHpsRXXXbJ8y0drWX7cIspqj9++G8eBGQXuPeu7wWQVRAChAioGV/0t1Qy9BdDYhCkiAZYMajg/9Q/82h99jCJ3Wt7/4eqzTf5j6ezCUl5gmEv3YSFTaXDxXS/3ulrenaHvaZWPz7g64dJr/tEbOdXPSdpytGoqBbbNH7sDqflSSXjg/GmGLuTs/D+4nOHToniS73njfdrUyY2q1pq1k+p3Ip6foEkyf4vP/neKED07ILrgxsaWmKQxEc1AKOu6gdXXW5JrvpBIgMGIM/F32n+29PNvU2dvPf8L/2H74v1v7b7xii5vljumSQ6eXxHlHLt6DLtUfrVJBPHyEU/6alL+6w3rVXTzjPbpnSS99p0NGmKPm+0Tx5dP4DWlOfJ/XRDO+QktH4fUNun7s0gtRjln47M930LjpS//rX7f8dnHQb2PrSxH2gxDIDgWEdk4z9puKEjDh37MF51t8WhgySY5iv/ffvsWXeK/tbO3/19mwfc3PtM7trX9CyG5fuT3FeLg1c5t671jy+vz9201UtKrs1HwQYC9jm1tehR61VSB9xWqlpOS133/Uyj7GacPm/46CHu3ErgdNG9lrB9six/ZDEKsMZH9vnHJtGO/c4bP/XhNyYtcgwh9r6PMCwdYUQmAGIVlLxo2Gl4uAGEPKBjgAeaAzJpGv8L144euU2T5De/9+sEo+RCT/b1mwWMVV9/6GNXvs7TxHXg36XwBScaF3GvvC2GmZXDpOCqy22nK1f7bBPHp8d3QHOj15kJs7A/3p7E9OMPrR4txtceFztus165vVdRcWxPH22TrLeh/MrNze/XpaPoI/s+9jJQl4SE4Qr1hUKf9CfXPLScvwKEMCKy6KEVNqf8z3/56PxytSnrL6z+ZtUptb+M8SfulmCwV5dME4axaRu1OK4OD2JG7bosJ7u59xa6ts/NDCsl5DaNt1IXFX20sxfBlU/bkU043u5c67ff+Mxju3/9cv3cubxPz3G821LbrjUpSg8+P3v3/PHNliQEjn3s48DlwcEowAGENJB4BnuENQgA44vbdF5HUEPnYjb0o/9MWHx47mg+s3//m5mnvcvi9JWfKiXT3hEEM8nPW6hOXZjdbQXdZi8t7vQpQ4NLF4tst83X1jzvOgUxq7rjWZakZtWsO/WZixHlvZO2Xfg31XffYbQ2kqbaUehKi5NdKnb92bIB5SkGjj64wCAUkbVEkgEcA6JYiPFq/SCSDBt0wCSKBRCRKV7x15J2Z/cv3Tl6r/O+vDX99q+yGa20F/3ze2R1okPMKWzq7olWiZ31ZVjoOd+ZSsgCnMaNGLUzgRBw26zFWofmB9M9pjRb9rOvH9xgkJjKD/xX6eFvLV7tWtvaLMQW9eTgYDdPm9PLo9nc/I4BCZHZuxAZBTHSAO4AigMTRYCRrvrDIpK8YB1dYapQiEGUACCi8Tb70z978mjVrtObzfj/ushKJg90960s2DRPNa+r/mmjElUaZbbbHateS1D3xNVzExttr48Uy/qcF1mm2X0834s09qtR/OHJ3f1o+nWb3Durfz1TpG06w5QLW+xCDuvVUxJwb26vX/46SOTgQ4hXLXxVAMSoRADUgIZCRhn0juCA2EK5wkcwCaB60dkfe3T8f7Jfk4QfQ8Tif/7X3l4XMure+Mbxl641TZfnYjSUwUlSOG7WO+M4LysVLDXOtgB6zffG0oe8L1YjDq5IO5O5cVDZvacfPr7jsqo5+5atrN59bZbsheNb7TiKM3X1/NnknA9f2T84+X5rAwcfgwDrgMDKawZUAiqSIA8QKHzBk1AwQA/gqgk+DjwAgMHZDZ77p/5iffRBh9Dfv/XxrxwVxTx/2Kr7d+dKZQlsA18iJCasNzt7OrnFlS9LXV9sQTbNHtwu21CcBXd5cU2vsRx1RaDCT77/vXv5ZXyykiqd5G+8nkPQ2IpM63SVPX54Op+Mrs33jt9/u1qqUYw+RgAhHviDAwJq6DwuKAO06lN7kJi1yGDmAEq6GlgQRjRBw/2/+MriydvjoxHceO3bv9on06a8CNPPXEuNzjoQ5z3V0EV9A3duLjZik2m/vlTN810p7+oQW2zgcvlg0h1cT5NorQ9P/Xzx8F3OMxrPP3dNtqB0HLWMUT17/NS+vmuy29vvP3wIlYmsTPSDVxuaHLACHuhIhHxFh2H8xJ6hRYXIgKADEUBWIEIgURGLiQDx8Bd/cvwPttn6VC/u3vzg2804GW0v4Yv3p76ImcRt7CWMtDJ8nzYbl5qDsFpidXRLdgsd6kitWi2WVTcvR3lIpX1eQXdE1lSvfX46ryBomUmrtunR5Ufm+m6yV9bPPny49Ep5VsgC8gJohi/62V5h71RQrIbywWAPXVF9GAcMHjIRRmLCSFd8L1GMSt/9c198pzleXVxrjm+89vY3fKGyRX33C/OxswKuUURRCipm5sLViRzm5+dUPf5cTPbWznbEAZ82hRtvLdab7mKlO1tM891rn1l7hVg0wpg9f3K+uPYZt7+7OX3/o/NZjQIsaMS9CJAiQJGYRHRQIqKDGkhnAx1OX4kbkAFUJYQgFGhQpyoMTE0gQBREPfqFP714sF5hy8vVF+6898OHOMrOzWduzCg13Pgk0VF0Nua2ddFmtvfN08sv9ybFHqOWdXKx6fp1VyehN3qfzGw3m8MoxAxFah9OF8+SuTm8u5x9ePzRZW9NRxEZEZ0CFQUFCBmFSeBFBirDtBtohHw13+iKgTXQQnEA/w3gO2IkZtSRQHNEI1/48zcfPLj18eqyrOjuQffwvVUVYbR//wbzSWr3YxZVUNRz2qsEWgl978pUh66vCUf8Bx/TCPxk3e7nkzHdTVU117EeXSSpP/7dHcOvutt7i/p3m4+0brMeRLEKrFhFEsXyosF4BBlgH1cYUy38gi73Qu8QD3A2AQQ2ElGGDtOsBAiiAgARzaA5+7M/vfx2eVm3wdVpYXYnHzxcRNuOrxUOx7NZmYLr04DkKPcGLz/AwzMYFbY3ff/4A5tOz3kM9/1YbsxHbq0jU6KPPu7tFg939CiUZx9+vGFJHEnQEkVHFEFWgCyIkRAgvgDcoSAjDUjB4b52/FS/DXfoGAEGaJkAKCZhUBEBQQC0UBSNKrzxz+68e7JuHunURrcqvnBw8YMPzzLsjInlmMaTgxmDxGyxW0daPA+VsVkV6+0iNQfncFfXo/l9vqblMkg2r9bH1cfdK7PKHEwodn/wuHJlqzwoFmaKKioA5KEdYlAiOrLGASfzIl4S4wDQQHhhjwBGBYxXHLWBtYg4gHQRGVAQ1JCsE/L0a3+mvvh7K2NtDun2gm/dOvzo3bOlrggQlFazyVhtRaOvL1d5b4u2dylqe5NHm9vrSfnq6JxSgbbCJ/6Ziq+oVMF47/lH5+dnRkeRSAQRKCCKKJSAOMiWKwYIYhw4NAJAzDSwSEng5XiKQ3v1AUyowhVgE0EGYiCCKFbCSliMKHrjz375X32W5FRYm0h74pdfe0UfLU7q5abxQSnLENNacyym6FwHOxPJ5f5mVu9Pb8qyNtMVPH/cbGFa5O3Y5tea5cl7a94mqgftATmJnkRFGigDAxmQAqvhLD8KMgwQTgB84cOJReil+DN8eZSBIzNMUOABN6leiG/FogBBmexLH1tMdEoja9emkot+9+7t/WZ1fh6W7JraM8YUqIBJsScHnY9ZjmpCwVT7R2Zd/u4iS25dlqqY5Nnl9p3TU8xrMSEqVgEZkQewng5qIOhoHvgKEIkCgY6CIBSu6jkDjlUAP8l/8Mq385UfucI+MaCYyCgqXpkoJopm09t0TonW1lpjlOlpk8ry5LWDNzPvNtLrpnBdeTK9FXRXWd31E3QyJy9hZf/+OfLPPxvHSe731PrR5vHj1LNSMSqBqEWcBlSOtNfAyEIRESMgDjoMBFEwoOIhPYMhyDAga4n6RTwdpMCA/CNAuCI6wxWYMhKIyFBnBBCjgkwzsjqhVFvQihJGLd2i6bS+uz9PEpe42PYJNoZ46qYrnPpWheob5/N449ZluX1lt98sz54/6SqXA8YoAlFzRATFgiKiI6E3wXDEq72coSMnDCWOq+DyAhktCKyQX+wHqwEvCzRAZwUFBwpjJKGoRXlUwIAQtciAQaQ8VQmlKqEEFCqFCaAYRcFtN5kJO+P5nOeBpx03K/e4O+t73X7ldw/vCx28ukrb5cfvX6yg6IuFYcJgRGT4qhQUi6Ag8oCXvgJHoqBioeFIgaiBgiVIMkweGGLslT/QACIDhQpEDcNKwoADzxIZBwjwJ7oJEFWCBaWUowUrBsAIUiIIqdJiLuKWV1ldZg2asDAzgumoHp1lU3yF4qNHD2tfowGHjCoMgR0QrqBLV+BB1kwRUFgNsCYEAIgKrlb3QC0XAcUIKsCAYfpEH9BAnQHGQVAgCAEDQQQlGBEGZDgBAwWFAgKkLJaYKwsGrIAGIS1gMgEiQGgTTShBL1Lps73TW+Haxa3m5uLd713UneioOhAFCnogNJ7iFbIXmBgQCCUo8gj4SeSUAUgZdCTREUTFgW8OcahVC6tP5pvmgfiJYSAeIQ9E3BcU7gE3Q8iCOFBDKCIgKmVTnaAFC2AEUIuoBBkMqiKb9RSl7ous6Pd4SpK0x8/e/yCyET8Am69YjQARZYB3AKInAaJAMNBXCDwSy4DNvcIxKxEQzXFg3hJEEhS8gjPqT9CAMCCymAkEEICJGFCQghIBViKa5YqvqvhFHZ8SnWhMBBIBMizKMCAHu/v5nRkUbQCwJvbb7emj5uNN9HkTNQQi4SFBAVBRBjACgiAGJFaRWBSyEArTUGYjYEKvgJEiaYfktfZXfeuGARQldKVHUQsM9VIEiDiQ5gd3D1e44ytgvSDxsM5EhIZJD0ZZA5IDkBHWCQGAt5Ob0WmK5bZpcL103aUoxRhFkSPQISqKGj2IiiqQEmG6wnWJGviRAIQSkSRccbQFlAACAw5kMGEjIldQ7itG7JU9pKKg6DDwmTASRtFXbCYBVhCSiAOyafA1goKE/AJqT4ozAqBMRKWIFJpNHW0QVEFnjqQxOiJSR6I9ILIaMN4MKDQwvonF9IYR2EbBCBQVeUDba/RqqLUBDV5rgMrxFSwXQRQAiygmUUP+Q4N7vGrrAAIYdRx45y+Yz4ARX6DmKRIT8dWC/IR2DZAKSGoQDPTetQFpqCINHEwRAqGoh4UTESkSg0IeQEV8hV5nGmIcQKSh4oQiBCiDbx7KHMAMAzEeWQSZWOFAiB7sIUGISoRYNF9deBxCK6tIJEwREURUJB0GGc5XGZPmF49sEEwGgFKO0UlEUFf5FhCAMIh1SpDi8CV1RIykIogiTyCshm8ddCAZfDOQiGJGpivgLigGYmBFwkxAkQS0J+GBTn9lj0ImwEBCIvSikgpCjIOQMFFkQDkPCORBfwyqVQZV9Cn1YMCKsQgNpCpWrIMKmlldIeRQmEQF4wckHDGyiUPVhogRIwkCD7R3JS+oXsPeB1BkUMQUBWiItlc7CKyj0LC/zUAgngRBiK7qCi+Y9yigguDAJyaKSAjASgkDD9pVAwEQ4BBtRUQCM6ACjBIFNSqhoIUoCgszEKMCBAhDokKkkIAAJQUgJhW1YATSIBpxAJkhRwESUiAspCgyE6HYQYOCiCBSNPhJ/eCKZXalQkEGUu0L/ivx4AUG2iUNikENbGlARqBIcEW3vdKIEVFwIHPLAD/WEQWp5C3C8AXgqjQhgNEEIOKoKRBQUAwiww04wau6gKhIGMxwkEXFTxQ1kCAGACSGFzxkJAFREJWIDIMogBRJgOILMK0QXlXsXyRSeLWdhwKIMtC/kQEHcKRccRJ1AKBh8wVK1P1WIVM0kYRZAULUEaNGYVLUEzKTaGcoIggEG3QAEoRICMgEEUjkqtAzuMWhjgMACJH45XoVDsqIBRGAaShiw2DcEK0QVAQVQK4YKIjy8o4EYJSBezeU/Qe+54BZQ+ArcuLAtUMQBBJWTJGEgmIdVUAgGZ6WJ1Je8YD+lQEkqwAwpB6vYtUgshULIUocyIf4hwB0g9vVUYivSg4UEJkYBYf5d7V7BAPRZWD3Igsig2I2ckV8jySgGAVY9PDYhu8wCChWwsNmGdsIIMCgmRGFhCKQqACiyOuARMICCBgVBsVIAkzxijQJFAbQcSBAvqLH/sP2vGSZIA7R40WYQVE8JER8Fd5QWPFVbBAVAFkzCsmAfR9ww4hXaHvAIZfnYRtw+K2QqKCQgSgg60giTMQgQy94ESVBQ7zSY8hAMFgwMLphSCeuijisw3++PX/ItP/n/3x11QYG6BMKMYmAjooZRQViisMuBQ6kbYxIKMiCQopBGFQkHUAEUQemoVbBiFdRVBCEgRCiwojK60DAxgNGLUJDnonxKnEdbP0vZM//Z69P1+JQiuEXgn9QJzBU0QRAMZsIwAiiQIYFjkPYFBUVxCvAoYCAcZqHIM8ICEyAABiutqjkRdSjfwT2/OEhlP+cwYUrHPB/wf+B//C/4gsl+odn0T9ie/6xv+j/v8yB/wcDd61Gt+kYHwAAAABJRU5ErkJggg==;rotation=-90;" vertex="1" parent="1">
          <mxGeometry x="560.51" y="264.54999999999995" width="25" height="20.9" as="geometry" />
        </mxCell>
        <mxCell id="JT29bU-KKxfSDwlyNfCX-88" value="" style="rounded=1;whiteSpace=wrap;html=1;shadow=0;dashed=1;fillColor=none;" vertex="1" parent="1">
          <mxGeometry x="-20" y="340" width="360" height="140" as="geometry" />
        </mxCell>
        <mxCell id="JT29bU-KKxfSDwlyNfCX-89" value="" style="endArrow=classic;html=1;" edge="1" parent="1">
          <mxGeometry width="50" height="50" relative="1" as="geometry">
            <mxPoint y="410" as="sourcePoint" />
            <mxPoint x="40" y="410" as="targetPoint" />
            <Array as="points">
              <mxPoint y="410" />
            </Array>
          </mxGeometry>
        </mxCell>
        <mxCell id="JT29bU-KKxfSDwlyNfCX-90" value="" style="shape=cube;whiteSpace=wrap;html=1;boundedLbl=1;backgroundOutline=1;darkOpacity=0.05;darkOpacity2=0.1;rotation=0;fillColor=#ffcd28;strokeColor=#d79b00;gradientColor=#ffa500;" vertex="1" parent="1">
          <mxGeometry x="40.50999999999999" y="370" width="30" height="80" as="geometry" />
        </mxCell>
        <mxCell id="JT29bU-KKxfSDwlyNfCX-91" value="" style="shape=image;verticalLabelPosition=bottom;labelBackgroundColor=#ffffff;verticalAlign=top;aspect=fixed;imageAspect=0;image=data:image/png,iVBORw0KGgoAAAANSUhEUgAAABUAAABQCAYAAAD2gj5JAAALMUlEQVRYha2YS4hc1fbGf+ddp0690vXqrk53k3S0NdE2KkpAEUVMwIEOlKCicMWbiw5EnAhCRk5EJDgUxAv5Izpx5MCBkEESxEAi/qN50unW7lSnU0lXdVdV1+NUnce+g+Tsrsq9eqM3e3KqilPf/s5a3/rWOlsBAk3TNEVRGFxCCAzDkN9VVUUIAUAYhgRBgBACRVHkVVEUPM9DBVxAcAeXCqDrOncSWI0+3ElgdeiLqt4RYAkaBftOMJagUfbDMPyfgdVBlvJHVcU0zb8MrEYsgyBAURRUVSUIAjRNwzAMFEX508AS9FamqqqiaRqWZf1p4BvBE0JWTASWz+d58sknSaVSnDhxgjNnzgghhPLfACXTm1KSJZdIJHjllVfYuXMnzWaT999/n/3798NtxlgmSgghY/nUU08RBAEffvghx48f58CBA5imyZ49e24rFHrEMEpUOp0mk8lw7NgxZmZm2L17N41Gg9OnT/Puu+9y7tw5Go2GAH43FArQjsVicbih0dnZWWZnZ9m2bRuO4xCLxej1ehw6dAjTNHnnnXc4ePAg3W4XIYTyey4l4wlQLBb54YcfKJVKFItFdF0nn8/z8ssvMzk5yYkTJ3AcJ7LF/xiKoZiqqiqByuUymUyGSqWCZVkEQcCLL77IwsICb7/9Npqm/W7lDenU931GR0fZuXMn8XgcTdPYunUrvV4Pz/MoFou8/vrrLC8v4ziOJHIrsApIF9d1HV3X2blzJ7Ozs3iex9jYGHNzczQaDebm5nAch++++46HH35YktE0bQhYjUozDEOKxSKu6zIxMcHi4iLdbhdVVbEsi16vRz6fx3VdXn31VSYnJ9F1XSZpEFgd/DGVSuH7Pr1ej7vuuotsNhvFjVgshqIotFotSqUS3W6XkZERFEUhDEOEEBJYjaSkKAoTExOEYcjy8jLVapUgCIgSOTo6SrVaZceOHcRiMX788UempqYG40oYhpuPH+02NTVFGIaUSiXK5TKtVgtd15mcnKTf7xOGIclkko2NDZ599lnGxsZkaQ9Kc8j5R0ZG2NjYwDAMNE1jcXERz/NIp9Ok02m2bdsmu8P27dvJZrNDDhdtoA7uIoTg8uXL1Go1NE1DCEGr1cIwDPlZURQmJyfZ2NhgbW1N3qeqqtxAit/3fcbGxpiYmKDT6eC6LpqmoSgKjuOQTCYZGRkBwPd9Op0Ox44do1gsyvsigmpEPZFIkEgkyGQyFAoF0um0dH/Xddm9ezeZTAZFUWg0GuzYsYM9e/ZQKBQIw1AqQIofIJ/P02w2EUIQi8VIJBJomobneXz99ddomoZt2/T7fbZu3Uo8Hufxxx/HNM1biwApqfHxcRYWFlAUBdM0WV5eRtM0er0eDz30ELqu4/s+i4uLhGFIOp1GVVX27dsnGQ4xVRSF0dFRzp8/j+M49Ho9WUme52FZFqdOneLw4cM4jkO9XqdSqUhbjABlS4piOjExIRN29uxZGo1G1PTQdZ3z58/zwAMPkEwmWV5e5pdffmHLli00Gg0pKd/3N5lGFXP//fdz3333YZomsVhMjpMjIyO4rksqlZLmMzMzw9zcHNevXwduzGKRrPQoUalUipmZGSzLYvv27ZimiaZpJJNJYrEYmUxGemgikcA0TZLJJEEQ4HmeFL80FADDMEgkEgghGB8fp1qtyuFCCMEjjzxCMpnEdV08z5M6ju4fStRg7UdZXVlZIQgCVFXFMAw6nQ62bZPP54cM3bIs6vU6s7Oz0pSGst9utzEMg263SzablR4LN+aCcrks/1goFKhWq1iWRTqdZnp6msEldep5Hp7nMT8/TywWk8CR/eVyOTzPIx6PEwQBjuOwsLBALpfDtm2ZKAB9cIRcWVkhDEPK5bKsmuhJNE2j3+9jmqZslJG33mzXm9YXiTaZTJJIJORujuNg2za+78v+FYYhmqZJ6bTbbWzblvKL5DbUo8rlMrZt47quvAmg1+tRq9VkY1RVlV6vRyKR4Nq1a5JMREiN/nz+/HmOHDnCxsYGpVIJTdOo1Wr0ej1arRbff/89Qgj6/b58ElVVmZmZIZvNSpbApviXlpYwDINUKkU+n8f3farVKslkEs/zKBQK9Pt9DMMgDEO63S7r6+tks1k6nc6w+KP4qKrKo48+iqqqMvDnzp1DCEG9XqdQKNBsNun1ejJxo6OjrK+vMzc3RyKR2JRgRHlpaYmJiQn6/T6//vqrLN1kMomqqqyursqkxeNxut0uuVyOLVu2cPr0aWlIMvuKorC0tES1WuXSpUs0m01UVSWXy7G4uEgikUBRFDY2NqRGM5mMVIHrutx7772ypejRbNput/F9nzAMsSyLfr8va7vf71Mul2k0GuRyOVKpFJZlyWkmn88zOTk5nP3IDJ555hnq9TqO41CtVmm1WgC0220Adu3axerqKu12m6mpKZrNJv1+n2w2y/T0NJZlbZZptK5fv86FCxdk/y+VSti2TTqdxrZtcrkc09PTVCoVNE1jfHycq1evomka7XabVqs17PwAn3zyCVNTU3ieR7vdlq6UyWSk8NfW1jh16hRCCCzLolAoYJom6+vrslUPvZ1cvHiRffv2EQQB4+PjaJqG4zhcu3YNz/MIw5ALFy5Qq9XwfZ/V1VVSqRR33303QgjZpqX4o9g6jkO73Zb9PJVKEY/HWVlZIRaL4TgOnuchhODKlSvSF/6tTAcNtlAo8OmnnzI/P0+j0cD3fTmn1ut1bNuWzFKplGzrg16hD5QWYRjy3nvvceDAAZLJJJZl0e12qdfrxONx4vE4lmXhOA6aptHtdtE0jWvXrkmmUvyRnwohmJ+fx7ZtTNOUk3IulyORSJBKpbBtm9HRUYIgIJ/PU61WWVpawnXdzdofzP5gTX/11VfUajUURWF1dVX2MMuysCyL5eVl1tbWiMfjLC0tyY4qhBjWKdx4qWg2m6ysrFCpVOQTdDodVFWlWq0CUK/XyWQy3HPPPdi2zWBu1Ci4g4zffPNNXnvtNbrdLt1uF9d1CcMQ13VJJBIA0miivh/57BDTqO9ELXj37t0cPXoU27apVCrSFyI/HRsbo9Pp0Gg02L59u4xpNKHovu/L3uP7PoqicPbsWen6+Xxeih+gXC5LYz5z5gyjo6NcunRpiOk/olgCMuMHDx7kgw8+4Pr16+i6Ll1sfX19iO2xY8e4evUqV69eleFTgf8D/g7ged5Qr9E0jS+++IKlpSVisRitVgvXdTEMA8dxqNVqZLNZHnvsMRYWFjYr6ib4PyPgCNT3ffbv389nn33GkSNH+Pnnn3FdF9d1ZRkfP36cJ554glarRaPRGGLKIHAECDd89MqVKzz//PMoisLJkycpFoskk0kqlQoXL16kUCjw0UcfSTneCjoE3O/3EULw1ltv8dJLL5HL5Wi321y+fJlms8k333zDCy+8QLFYpNFoEIbh5thzq/hvAiOE+NzzPFRVZe/evZw8eZJDhw5x+PBhObY7jsO3336Lpmmy4uAPzkGAN4DPo7OpkZERvvzyS3766SfW1tbYtWsX+XyevXv3SiMBZBH80XoDELquC8dxRKlUEh9//LH47bffxNGjR8WDDz4oLMsSpmkKXdeFruuC2zxmekNRFGEYhrBtW8TjcfH000+LUqkkVFUVpmkKwzDkFbi9E7GbwJ8bhrGpxZt1f2t593o9tNsE/X9gOQiC5wanxOg6CBwEwW2DSuAwDJ8bHJSjTQbfG/4MqAQWQjwXHYNEPgqbIfmzoBI4CILnoj4PmwcI0QZ/db0B/Mfs/0+oEXAEalnWHQEdAr5TTCWwoijCNM07CiqB7zQowN8A8Vck9UfrNLD8L8oZK2+nvpHfAAAAAElFTkSuQmCC;" vertex="1" parent="1">
          <mxGeometry x="70" y="40.71" width="22" height="83.8" as="geometry" />
        </mxCell>
        <mxCell id="JT29bU-KKxfSDwlyNfCX-92" value="" style="shape=image;verticalLabelPosition=bottom;labelBackgroundColor=#ffffff;verticalAlign=top;aspect=fixed;imageAspect=0;image=data:image/png,iVBORw0KGgoAAAANSUhEUgAAABUAAABQCAYAAAD2gj5JAAALMUlEQVRYha2YS4hc1fbGf+ddp0690vXqrk53k3S0NdE2KkpAEUVMwIEOlKCicMWbiw5EnAhCRk5EJDgUxAv5Izpx5MCBkEESxEAi/qN50unW7lSnU0lXdVdV1+NUnce+g+Tsrsq9eqM3e3KqilPf/s5a3/rWOlsBAk3TNEVRGFxCCAzDkN9VVUUIAUAYhgRBgBACRVHkVVEUPM9DBVxAcAeXCqDrOncSWI0+3ElgdeiLqt4RYAkaBftOMJagUfbDMPyfgdVBlvJHVcU0zb8MrEYsgyBAURRUVSUIAjRNwzAMFEX508AS9FamqqqiaRqWZf1p4BvBE0JWTASWz+d58sknSaVSnDhxgjNnzgghhPLfACXTm1KSJZdIJHjllVfYuXMnzWaT999/n/3798NtxlgmSgghY/nUU08RBAEffvghx48f58CBA5imyZ49e24rFHrEMEpUOp0mk8lw7NgxZmZm2L17N41Gg9OnT/Puu+9y7tw5Go2GAH43FArQjsVicbih0dnZWWZnZ9m2bRuO4xCLxej1ehw6dAjTNHnnnXc4ePAg3W4XIYTyey4l4wlQLBb54YcfKJVKFItFdF0nn8/z8ssvMzk5yYkTJ3AcJ7LF/xiKoZiqqiqByuUymUyGSqWCZVkEQcCLL77IwsICb7/9Npqm/W7lDenU931GR0fZuXMn8XgcTdPYunUrvV4Pz/MoFou8/vrrLC8v4ziOJHIrsApIF9d1HV3X2blzJ7Ozs3iex9jYGHNzczQaDebm5nAch++++46HH35YktE0bQhYjUozDEOKxSKu6zIxMcHi4iLdbhdVVbEsi16vRz6fx3VdXn31VSYnJ9F1XSZpEFgd/DGVSuH7Pr1ej7vuuotsNhvFjVgshqIotFotSqUS3W6XkZERFEUhDEOEEBJYjaSkKAoTExOEYcjy8jLVapUgCIgSOTo6SrVaZceOHcRiMX788UempqYG40oYhpuPH+02NTVFGIaUSiXK5TKtVgtd15mcnKTf7xOGIclkko2NDZ599lnGxsZkaQ9Kc8j5R0ZG2NjYwDAMNE1jcXERz/NIp9Ok02m2bdsmu8P27dvJZrNDDhdtoA7uIoTg8uXL1Go1NE1DCEGr1cIwDPlZURQmJyfZ2NhgbW1N3qeqqtxAit/3fcbGxpiYmKDT6eC6LpqmoSgKjuOQTCYZGRkBwPd9Op0Ox44do1gsyvsigmpEPZFIkEgkyGQyFAoF0um0dH/Xddm9ezeZTAZFUWg0GuzYsYM9e/ZQKBQIw1AqQIofIJ/P02w2EUIQi8VIJBJomobneXz99ddomoZt2/T7fbZu3Uo8Hufxxx/HNM1biwApqfHxcRYWFlAUBdM0WV5eRtM0er0eDz30ELqu4/s+i4uLhGFIOp1GVVX27dsnGQ4xVRSF0dFRzp8/j+M49Ho9WUme52FZFqdOneLw4cM4jkO9XqdSqUhbjABlS4piOjExIRN29uxZGo1G1PTQdZ3z58/zwAMPkEwmWV5e5pdffmHLli00Gg0pKd/3N5lGFXP//fdz3333YZomsVhMjpMjIyO4rksqlZLmMzMzw9zcHNevXwduzGKRrPQoUalUipmZGSzLYvv27ZimiaZpJJNJYrEYmUxGemgikcA0TZLJJEEQ4HmeFL80FADDMEgkEgghGB8fp1qtyuFCCMEjjzxCMpnEdV08z5M6ju4fStRg7UdZXVlZIQgCVFXFMAw6nQ62bZPP54cM3bIs6vU6s7Oz0pSGst9utzEMg263SzablR4LN+aCcrks/1goFKhWq1iWRTqdZnp6msEldep5Hp7nMT8/TywWk8CR/eVyOTzPIx6PEwQBjuOwsLBALpfDtm2ZKAB9cIRcWVkhDEPK5bKsmuhJNE2j3+9jmqZslJG33mzXm9YXiTaZTJJIJORujuNg2za+78v+FYYhmqZJ6bTbbWzblvKL5DbUo8rlMrZt47quvAmg1+tRq9VkY1RVlV6vRyKR4Nq1a5JMREiN/nz+/HmOHDnCxsYGpVIJTdOo1Wr0ej1arRbff/89Qgj6/b58ElVVmZmZIZvNSpbApviXlpYwDINUKkU+n8f3farVKslkEs/zKBQK9Pt9DMMgDEO63S7r6+tks1k6nc6w+KP4qKrKo48+iqqqMvDnzp1DCEG9XqdQKNBsNun1ejJxo6OjrK+vMzc3RyKR2JRgRHlpaYmJiQn6/T6//vqrLN1kMomqqqyursqkxeNxut0uuVyOLVu2cPr0aWlIMvuKorC0tES1WuXSpUs0m01UVSWXy7G4uEgikUBRFDY2NqRGM5mMVIHrutx7772ypejRbNput/F9nzAMsSyLfr8va7vf71Mul2k0GuRyOVKpFJZlyWkmn88zOTk5nP3IDJ555hnq9TqO41CtVmm1WgC0220Adu3axerqKu12m6mpKZrNJv1+n2w2y/T0NJZlbZZptK5fv86FCxdk/y+VSti2TTqdxrZtcrkc09PTVCoVNE1jfHycq1evomka7XabVqs17PwAn3zyCVNTU3ieR7vdlq6UyWSk8NfW1jh16hRCCCzLolAoYJom6+vrslUPvZ1cvHiRffv2EQQB4+PjaJqG4zhcu3YNz/MIw5ALFy5Qq9XwfZ/V1VVSqRR33303QgjZpqX4o9g6jkO73Zb9PJVKEY/HWVlZIRaL4TgOnuchhODKlSvSF/6tTAcNtlAo8OmnnzI/P0+j0cD3fTmn1ut1bNuWzFKplGzrg16hD5QWYRjy3nvvceDAAZLJJJZl0e12qdfrxONx4vE4lmXhOA6aptHtdtE0jWvXrkmmUvyRnwohmJ+fx7ZtTNOUk3IulyORSJBKpbBtm9HRUYIgIJ/PU61WWVpawnXdzdofzP5gTX/11VfUajUURWF1dVX2MMuysCyL5eVl1tbWiMfjLC0tyY4qhBjWKdx4qWg2m6ysrFCpVOQTdDodVFWlWq0CUK/XyWQy3HPPPdi2zWBu1Ci4g4zffPNNXnvtNbrdLt1uF9d1CcMQ13VJJBIA0miivh/57BDTqO9ELXj37t0cPXoU27apVCrSFyI/HRsbo9Pp0Gg02L59u4xpNKHovu/L3uP7PoqicPbsWen6+Xxeih+gXC5LYz5z5gyjo6NcunRpiOk/olgCMuMHDx7kgw8+4Pr16+i6Ll1sfX19iO2xY8e4evUqV69eleFTgf8D/g7ged5Qr9E0jS+++IKlpSVisRitVgvXdTEMA8dxqNVqZLNZHnvsMRYWFjYr6ib4PyPgCNT3ffbv389nn33GkSNH+Pnnn3FdF9d1ZRkfP36cJ554glarRaPRGGLKIHAECDd89MqVKzz//PMoisLJkycpFoskk0kqlQoXL16kUCjw0UcfSTneCjoE3O/3EULw1ltv8dJLL5HL5Wi321y+fJlms8k333zDCy+8QLFYpNFoEIbh5thzq/hvAiOE+NzzPFRVZe/evZw8eZJDhw5x+PBhObY7jsO3336Lpmmy4uAPzkGAN4DPo7OpkZERvvzyS3766SfW1tbYtWsX+XyevXv3SiMBZBH80XoDELquC8dxRKlUEh9//LH47bffxNGjR8WDDz4oLMsSpmkKXdeFruuC2zxmekNRFGEYhrBtW8TjcfH000+LUqkkVFUVpmkKwzDkFbi9E7GbwJ8bhrGpxZt1f2t593o9tNsE/X9gOQiC5wanxOg6CBwEwW2DSuAwDJ8bHJSjTQbfG/4MqAQWQjwXHYNEPgqbIfmzoBI4CILnoj4PmwcI0QZ/db0B/Mfs/0+oEXAEalnWHQEdAr5TTCWwoijCNM07CiqB7zQowN8A8Vck9UfrNLD8L8oZK2+nvpHfAAAAAElFTkSuQmCC;" vertex="1" parent="1">
          <mxGeometry x="74.45" y="163.50000000000003" width="17.06" height="65" as="geometry" />
        </mxCell>
        <mxCell id="JT29bU-KKxfSDwlyNfCX-97" value="" style="shape=image;verticalLabelPosition=bottom;labelBackgroundColor=#ffffff;verticalAlign=top;aspect=fixed;imageAspect=0;image=data:image/png,iVBORw0KGgoAAAANSUhEUgAAABUAAABQCAYAAAD2gj5JAAALMUlEQVRYha2YS4hc1fbGf+ddp0690vXqrk53k3S0NdE2KkpAEUVMwIEOlKCicMWbiw5EnAhCRk5EJDgUxAv5Izpx5MCBkEESxEAi/qN50unW7lSnU0lXdVdV1+NUnce+g+Tsrsq9eqM3e3KqilPf/s5a3/rWOlsBAk3TNEVRGFxCCAzDkN9VVUUIAUAYhgRBgBACRVHkVVEUPM9DBVxAcAeXCqDrOncSWI0+3ElgdeiLqt4RYAkaBftOMJagUfbDMPyfgdVBlvJHVcU0zb8MrEYsgyBAURRUVSUIAjRNwzAMFEX508AS9FamqqqiaRqWZf1p4BvBE0JWTASWz+d58sknSaVSnDhxgjNnzgghhPLfACXTm1KSJZdIJHjllVfYuXMnzWaT999/n/3798NtxlgmSgghY/nUU08RBAEffvghx48f58CBA5imyZ49e24rFHrEMEpUOp0mk8lw7NgxZmZm2L17N41Gg9OnT/Puu+9y7tw5Go2GAH43FArQjsVicbih0dnZWWZnZ9m2bRuO4xCLxej1ehw6dAjTNHnnnXc4ePAg3W4XIYTyey4l4wlQLBb54YcfKJVKFItFdF0nn8/z8ssvMzk5yYkTJ3AcJ7LF/xiKoZiqqiqByuUymUyGSqWCZVkEQcCLL77IwsICb7/9Npqm/W7lDenU931GR0fZuXMn8XgcTdPYunUrvV4Pz/MoFou8/vrrLC8v4ziOJHIrsApIF9d1HV3X2blzJ7Ozs3iex9jYGHNzczQaDebm5nAch++++46HH35YktE0bQhYjUozDEOKxSKu6zIxMcHi4iLdbhdVVbEsi16vRz6fx3VdXn31VSYnJ9F1XSZpEFgd/DGVSuH7Pr1ej7vuuotsNhvFjVgshqIotFotSqUS3W6XkZERFEUhDEOEEBJYjaSkKAoTExOEYcjy8jLVapUgCIgSOTo6SrVaZceOHcRiMX788UempqYG40oYhpuPH+02NTVFGIaUSiXK5TKtVgtd15mcnKTf7xOGIclkko2NDZ599lnGxsZkaQ9Kc8j5R0ZG2NjYwDAMNE1jcXERz/NIp9Ok02m2bdsmu8P27dvJZrNDDhdtoA7uIoTg8uXL1Go1NE1DCEGr1cIwDPlZURQmJyfZ2NhgbW1N3qeqqtxAit/3fcbGxpiYmKDT6eC6LpqmoSgKjuOQTCYZGRkBwPd9Op0Ox44do1gsyvsigmpEPZFIkEgkyGQyFAoF0um0dH/Xddm9ezeZTAZFUWg0GuzYsYM9e/ZQKBQIw1AqQIofIJ/P02w2EUIQi8VIJBJomobneXz99ddomoZt2/T7fbZu3Uo8Hufxxx/HNM1biwApqfHxcRYWFlAUBdM0WV5eRtM0er0eDz30ELqu4/s+i4uLhGFIOp1GVVX27dsnGQ4xVRSF0dFRzp8/j+M49Ho9WUme52FZFqdOneLw4cM4jkO9XqdSqUhbjABlS4piOjExIRN29uxZGo1G1PTQdZ3z58/zwAMPkEwmWV5e5pdffmHLli00Gg0pKd/3N5lGFXP//fdz3333YZomsVhMjpMjIyO4rksqlZLmMzMzw9zcHNevXwduzGKRrPQoUalUipmZGSzLYvv27ZimiaZpJJNJYrEYmUxGemgikcA0TZLJJEEQ4HmeFL80FADDMEgkEgghGB8fp1qtyuFCCMEjjzxCMpnEdV08z5M6ju4fStRg7UdZXVlZIQgCVFXFMAw6nQ62bZPP54cM3bIs6vU6s7Oz0pSGst9utzEMg263SzablR4LN+aCcrks/1goFKhWq1iWRTqdZnp6msEldep5Hp7nMT8/TywWk8CR/eVyOTzPIx6PEwQBjuOwsLBALpfDtm2ZKAB9cIRcWVkhDEPK5bKsmuhJNE2j3+9jmqZslJG33mzXm9YXiTaZTJJIJORujuNg2za+78v+FYYhmqZJ6bTbbWzblvKL5DbUo8rlMrZt47quvAmg1+tRq9VkY1RVlV6vRyKR4Nq1a5JMREiN/nz+/HmOHDnCxsYGpVIJTdOo1Wr0ej1arRbff/89Qgj6/b58ElVVmZmZIZvNSpbApviXlpYwDINUKkU+n8f3farVKslkEs/zKBQK9Pt9DMMgDEO63S7r6+tks1k6nc6w+KP4qKrKo48+iqqqMvDnzp1DCEG9XqdQKNBsNun1ejJxo6OjrK+vMzc3RyKR2JRgRHlpaYmJiQn6/T6//vqrLN1kMomqqqyursqkxeNxut0uuVyOLVu2cPr0aWlIMvuKorC0tES1WuXSpUs0m01UVSWXy7G4uEgikUBRFDY2NqRGM5mMVIHrutx7772ypejRbNput/F9nzAMsSyLfr8va7vf71Mul2k0GuRyOVKpFJZlyWkmn88zOTk5nP3IDJ555hnq9TqO41CtVmm1WgC0220Adu3axerqKu12m6mpKZrNJv1+n2w2y/T0NJZlbZZptK5fv86FCxdk/y+VSti2TTqdxrZtcrkc09PTVCoVNE1jfHycq1evomka7XabVqs17PwAn3zyCVNTU3ieR7vdlq6UyWSk8NfW1jh16hRCCCzLolAoYJom6+vrslUPvZ1cvHiRffv2EQQB4+PjaJqG4zhcu3YNz/MIw5ALFy5Qq9XwfZ/V1VVSqRR33303QgjZpqX4o9g6jkO73Zb9PJVKEY/HWVlZIRaL4TgOnuchhODKlSvSF/6tTAcNtlAo8OmnnzI/P0+j0cD3fTmn1ut1bNuWzFKplGzrg16hD5QWYRjy3nvvceDAAZLJJJZl0e12qdfrxONx4vE4lmXhOA6aptHtdtE0jWvXrkmmUvyRnwohmJ+fx7ZtTNOUk3IulyORSJBKpbBtm9HRUYIgIJ/PU61WWVpawnXdzdofzP5gTX/11VfUajUURWF1dVX2MMuysCyL5eVl1tbWiMfjLC0tyY4qhBjWKdx4qWg2m6ysrFCpVOQTdDodVFWlWq0CUK/XyWQy3HPPPdi2zWBu1Ci4g4zffPNNXnvtNbrdLt1uF9d1CcMQ13VJJBIA0miivh/57BDTqO9ELXj37t0cPXoU27apVCrSFyI/HRsbo9Pp0Gg02L59u4xpNKHovu/L3uP7PoqicPbsWen6+Xxeih+gXC5LYz5z5gyjo6NcunRpiOk/olgCMuMHDx7kgw8+4Pr16+i6Ll1sfX19iO2xY8e4evUqV69eleFTgf8D/g7ged5Qr9E0jS+++IKlpSVisRitVgvXdTEMA8dxqNVqZLNZHnvsMRYWFjYr6ib4PyPgCNT3ffbv389nn33GkSNH+Pnnn3FdF9d1ZRkfP36cJ554glarRaPRGGLKIHAECDd89MqVKzz//PMoisLJkycpFoskk0kqlQoXL16kUCjw0UcfSTneCjoE3O/3EULw1ltv8dJLL5HL5Wi321y+fJlms8k333zDCy+8QLFYpNFoEIbh5thzq/hvAiOE+NzzPFRVZe/evZw8eZJDhw5x+PBhObY7jsO3336Lpmmy4uAPzkGAN4DPo7OpkZERvvzyS3766SfW1tbYtWsX+XyevXv3SiMBZBH80XoDELquC8dxRKlUEh9//LH47bffxNGjR8WDDz4oLMsSpmkKXdeFruuC2zxmekNRFGEYhrBtW8TjcfH000+LUqkkVFUVpmkKwzDkFbi9E7GbwJ8bhrGpxZt1f2t593o9tNsE/X9gOQiC5wanxOg6CBwEwW2DSuAwDJ8bHJSjTQbfG/4MqAQWQjwXHYNEPgqbIfmzoBI4CILnoj4PmwcI0QZ/db0B/Mfs/0+oEXAEalnWHQEdAr5TTCWwoijCNM07CiqB7zQowN8A8Vck9UfrNLD8L8oZK2+nvpHfAAAAAElFTkSuQmCC;" vertex="1" parent="1">
          <mxGeometry x="79.94" y="250.50000000000003" width="11.81" height="45" as="geometry" />
        </mxCell>
      </root>
    </mxGraphModel>
  </diagram>
</mxfile>
